<svg id="SvgjsSvg1658" width="763" height="404" xmlns="http://www.w3.org/2000/svg" version="1.1" xmlns:xlink="http://www.w3.org/1999/xlink" xmlns:svgjs="http://svgjs.com/svgjs"><defs id="SvgjsDefs1659"><marker id="SvgjsMarker1690" markerWidth="16" markerHeight="12" refX="16" refY="6" viewBox="0 0 16 12" orient="auto" markerUnits="userSpaceOnUse" stroke-dasharray="0,0"><path id="SvgjsPath1691" d="M0,2 L14,6 L0,11 L0,2" fill="#323232" stroke="#323232" stroke-width="2"></path></marker><marker id="SvgjsMarker1694" markerWidth="16" markerHeight="12" refX="16" refY="6" viewBox="0 0 16 12" orient="auto" markerUnits="userSpaceOnUse" stroke-dasharray="0,0"><path id="SvgjsPath1695" d="M0,2 L14,6 L0,11 L0,2" fill="#323232" stroke="#323232" stroke-width="2"></path></marker><marker id="SvgjsMarker1749" markerWidth="16" markerHeight="12" refX="16" refY="6" viewBox="0 0 16 12" orient="auto" markerUnits="userSpaceOnUse" stroke-dasharray="0,0"><path id="SvgjsPath1750" d="M0,2 L14,6 L0,11 L0,2" fill="#323232" stroke="#323232" stroke-width="2"></path></marker><marker id="SvgjsMarker1753" markerWidth="16" markerHeight="12" refX="16" refY="6" viewBox="0 0 16 12" orient="auto" markerUnits="userSpaceOnUse" stroke-dasharray="0,0"><path id="SvgjsPath1754" d="M0,2 L14,6 L0,11 L0,2" fill="#323232" stroke="#323232" stroke-width="2"></path></marker><marker id="SvgjsMarker1769" markerWidth="16" markerHeight="12" refX="16" refY="6" viewBox="0 0 16 12" orient="auto" markerUnits="userSpaceOnUse" stroke-dasharray="0,0"><path id="SvgjsPath1770" d="M0,2 L14,6 L0,11 L0,2" fill="#323232" stroke="#323232" stroke-width="2"></path></marker></defs><g id="SvgjsG1660" transform="translate(165,78)"><path id="SvgjsPath1661" d="M 0 0L 74 0L 74 36L 0 36Z" stroke="none" fill="none"></path><g id="SvgjsG1662"><text id="SvgjsText1663" font-family="微软雅黑" text-anchor="middle" font-size="13px" width="74px" fill="#323232" font-weight="400" align="middle" anchor="middle" family="微软雅黑" size="13px" weight="400" font-style="" opacity="1" y="8.05" transform="rotate(0)"><tspan id="SvgjsTspan1664" dy="16" x="37"><tspan id="SvgjsTspan1665" style="text-decoration:;">aio_read</tspan></tspan></text></g></g><g id="SvgjsG1666" transform="translate(525,213)"><path id="SvgjsPath1667" d="M 0 0L 110 0L 110 36L 0 36Z" stroke="none" fill="none"></path><g id="SvgjsG1668"><text id="SvgjsText1669" font-family="微软雅黑" text-anchor="middle" font-size="13px" width="110px" fill="#323232" font-weight="400" align="middle" anchor="middle" family="微软雅黑" size="13px" weight="400" font-style="" opacity="1" y="0.050000000000000044" transform="rotate(0)"><tspan id="SvgjsTspan1670" dy="16" x="55"><tspan id="SvgjsTspan1671" style="text-decoration:;">数据报准备好</tspan></tspan><tspan id="SvgjsTspan1672" dy="16" x="55"><tspan id="SvgjsTspan1673" style="text-decoration:;">复制数据报</tspan></tspan></text></g></g><g id="SvgjsG1674" transform="translate(525,343)"><path id="SvgjsPath1675" d="M 0 0L 110 0L 110 36L 0 36Z" stroke="none" fill="none"></path><g id="SvgjsG1676"><text id="SvgjsText1677" font-family="微软雅黑" text-anchor="middle" font-size="13px" width="110px" fill="#323232" font-weight="400" align="middle" anchor="middle" family="微软雅黑" size="13px" weight="400" font-style="" opacity="1" y="8.05" transform="rotate(0)"><tspan id="SvgjsTspan1678" dy="16" x="55"><tspan id="SvgjsTspan1679" style="text-decoration:;">复制完成</tspan></tspan></text></g></g><g id="SvgjsG1680" transform="translate(147,343)"><path id="SvgjsPath1681" d="M 0 0L 110 0L 110 36L 0 36Z" stroke="none" fill="none"></path><g id="SvgjsG1682"><text id="SvgjsText1683" font-family="微软雅黑" text-anchor="middle" font-size="13px" width="110px" fill="#323232" font-weight="400" align="middle" anchor="middle" family="微软雅黑" size="13px" weight="400" font-style="" opacity="1" y="0.050000000000000044" transform="rotate(0)"><tspan id="SvgjsTspan1684" dy="16" x="55"><tspan id="SvgjsTspan1685" style="text-decoration:;">信号处理程序处理</tspan></tspan><tspan id="SvgjsTspan1686" dy="16" x="55"><tspan id="SvgjsTspan1687" style="text-decoration:;">数据报</tspan></tspan></text></g></g><g id="SvgjsG1688"><path id="SvgjsPath1689" d="M287 96L384.5 96L384.5 96L482 96" stroke="#323232" stroke-width="2" fill="none" marker-end="url(#SvgjsMarker1690)"></path></g><g id="SvgjsG1692"><path id="SvgjsPath1693" d="M488 358L385 358L385 358L282 358" stroke="#323232" stroke-width="2" fill="none" marker-end="url(#SvgjsMarker1694)"></path></g><g id="SvgjsG1696" transform="translate(327,58)"><path id="SvgjsPath1697" d="M 0 0L 110 0L 110 36L 0 36Z" stroke="none" fill="none"></path><g id="SvgjsG1698"><text id="SvgjsText1699" font-family="微软雅黑" text-anchor="middle" font-size="13px" width="110px" fill="#323232" font-weight="400" align="middle" anchor="middle" family="微软雅黑" size="13px" weight="400" font-style="" opacity="1" y="8.05" transform="rotate(0)"><tspan id="SvgjsTspan1700" dy="16" x="55"><tspan id="SvgjsTspan1701" style="text-decoration:;">系统调用</tspan></tspan></text></g></g><g id="SvgjsG1702" transform="translate(327,323)"><path id="SvgjsPath1703" d="M 0 0L 110 0L 110 36L 0 36Z" stroke="none" fill="none"></path><g id="SvgjsG1704"><text id="SvgjsText1705" font-family="微软雅黑" text-anchor="middle" font-size="13px" width="110px" fill="#323232" font-weight="400" align="middle" anchor="middle" family="微软雅黑" size="13px" weight="400" font-style="" opacity="1" y="0.050000000000000044" transform="rotate(0)"><tspan id="SvgjsTspan1706" dy="16" x="55"><tspan id="SvgjsTspan1707" style="text-decoration:;">递交在aio_read中</tspan></tspan><tspan id="SvgjsTspan1708" dy="16" x="55"><tspan id="SvgjsTspan1709" style="text-decoration:;">指定的信号</tspan></tspan></text></g></g><g id="SvgjsG1710" transform="translate(165,25)"><path id="SvgjsPath1711" d="M 0 0L 74 0L 74 36L 0 36Z" stroke="none" fill="none"></path><g id="SvgjsG1712"><text id="SvgjsText1713" font-family="微软雅黑" text-anchor="middle" font-size="13px" width="74px" fill="#323232" font-weight="700" align="middle" anchor="middle" family="微软雅黑" size="13px" weight="700" font-style="" opacity="1" y="8.05" transform="rotate(0)"><tspan id="SvgjsTspan1714" dy="16" x="37"><tspan id="SvgjsTspan1715" style="text-decoration:;">应用进程</tspan></tspan></text></g></g><g id="SvgjsG1716" transform="translate(543,29)"><path id="SvgjsPath1717" d="M 0 0L 74 0L 74 36L 0 36Z" stroke="none" fill="none"></path><g id="SvgjsG1718"><text id="SvgjsText1719" font-family="微软雅黑" text-anchor="middle" font-size="13px" width="74px" fill="#323232" font-weight="700" align="middle" anchor="middle" family="微软雅黑" size="13px" weight="700" font-style="" opacity="1" y="8.05" transform="rotate(0)"><tspan id="SvgjsTspan1720" dy="16" x="37"><tspan id="SvgjsTspan1721" style="text-decoration:;">内核</tspan></tspan></text></g></g><g id="SvgjsG1722" transform="translate(25,94)"><path id="SvgjsPath1723" d="M 140 0Q 131 0 131 9L 131 123.5Q 131 132.5 118 132.5Q 131 132.5 131 141.5L 131 256Q 131 265 140 265" stroke="rgba(50,50,50,1)" stroke-width="2" fill="none"></path><path id="SvgjsPath1724" d="M 0 0L 140 0L 140 265L 0 265Z" stroke="none" fill="none"></path><g id="SvgjsG1725"><text id="SvgjsText1726" font-family="微软雅黑" text-anchor="middle" font-size="13px" width="113px" fill="#323232" font-weight="400" align="middle" anchor="middle" family="微软雅黑" size="13px" weight="400" font-style="" opacity="1" y="122.55" transform="rotate(0)"><tspan id="SvgjsTspan1727" dy="16" x="56.5"><tspan id="SvgjsTspan1728" style="text-decoration:;">进程继续执行</tspan></tspan></text></g></g><g id="SvgjsG1729" transform="translate(638,94)"><path id="SvgjsPath1730" d="M 0 140Q 9 140 9 131L 9 79Q 9 70 22 70Q 9 70 9 61L 9 9Q 9 0 0 0" stroke="rgba(50,50,50,1)" stroke-width="2" fill="none"></path><path id="SvgjsPath1731" d="M 0 0L 100 0L 100 140L 0 140Z" stroke="none" fill="none"></path><g id="SvgjsG1732"><text id="SvgjsText1733" font-family="微软雅黑" text-anchor="middle" font-size="13px" width="73px" fill="#323232" font-weight="400" align="middle" anchor="middle" family="微软雅黑" size="13px" weight="400" font-style="" opacity="1" y="60.05" transform="rotate(0)"><tspan id="SvgjsTspan1734" dy="16" x="63.5"><tspan id="SvgjsTspan1735" style="text-decoration:;">等待数据</tspan></tspan></text></g></g><g id="SvgjsG1736" transform="translate(638,234)"><path id="SvgjsPath1737" d="M 0 129Q 9 129 9 120L 9 73.5Q 9 64.5 22 64.5Q 9 64.5 9 55.5L 9 9Q 9 0 0 0" stroke="rgba(50,50,50,1)" stroke-width="2" fill="none"></path><path id="SvgjsPath1738" d="M 0 0L 100 0L 100 129L 0 129Z" stroke="none" fill="none"></path><g id="SvgjsG1739"><text id="SvgjsText1740" font-family="微软雅黑" text-anchor="middle" font-size="13px" width="73px" fill="#323232" font-weight="400" align="middle" anchor="middle" family="微软雅黑" size="13px" weight="400" font-style="" opacity="1" y="38.55" transform="rotate(0)"><tspan id="SvgjsTspan1741" dy="16" x="63.5"><tspan id="SvgjsTspan1742" style="text-decoration:;">将数据从内</tspan></tspan><tspan id="SvgjsTspan1743" dy="16" x="63.5"><tspan id="SvgjsTspan1744" style="text-decoration:;">核复制到数</tspan></tspan><tspan id="SvgjsTspan1745" dy="16" x="63.5"><tspan id="SvgjsTspan1746" style="text-decoration:;">据空间</tspan></tspan></text></g></g><g id="SvgjsG1747"><path id="SvgjsPath1748" d="M580 250L580 296.5L580 296.5L580 343" stroke="#323232" stroke-width="2" fill="none" marker-end="url(#SvgjsMarker1749)"></path></g><g id="SvgjsG1751"><path id="SvgjsPath1752" d="M479 111L383.5 111L383.5 111L288 111" stroke="#323232" stroke-width="2" fill="none" marker-end="url(#SvgjsMarker1753)"></path></g><g id="SvgjsG1755" transform="translate(319.5,114)"><path id="SvgjsPath1756" d="M 0 0L 110 0L 110 36L 0 36Z" stroke="none" fill="none"></path><g id="SvgjsG1757"><text id="SvgjsText1758" font-family="微软雅黑" text-anchor="middle" font-size="13px" width="110px" fill="#323232" font-weight="400" align="middle" anchor="middle" family="微软雅黑" size="13px" weight="400" font-style="" opacity="1" y="8.05" transform="rotate(0)"><tspan id="SvgjsTspan1759" dy="16" x="55"><tspan id="SvgjsTspan1760" style="text-decoration:;">返回</tspan></tspan></text></g></g><g id="SvgjsG1761" transform="translate(525,78)"><path id="SvgjsPath1762" d="M 0 0L 110 0L 110 36L 0 36Z" stroke="none" fill="none"></path><g id="SvgjsG1763"><text id="SvgjsText1764" font-family="微软雅黑" text-anchor="middle" font-size="13px" width="110px" fill="#323232" font-weight="400" align="middle" anchor="middle" family="微软雅黑" size="13px" weight="400" font-style="" opacity="1" y="8.05" transform="rotate(0)"><tspan id="SvgjsTspan1765" dy="16" x="55"><tspan id="SvgjsTspan1766" style="text-decoration:;">无数据准备好</tspan></tspan></text></g></g><g id="SvgjsG1767"><path id="SvgjsPath1768" d="M580 114L580 163.5L580 163.5L580 213" stroke="#323232" stroke-width="2" fill="none" marker-end="url(#SvgjsMarker1769)"></path></g></svg>