<svg id="SvgjsSvg1099" width="763" height="404" xmlns="http://www.w3.org/2000/svg" version="1.1" xmlns:xlink="http://www.w3.org/1999/xlink" xmlns:svgjs="http://svgjs.com/svgjs"><defs id="SvgjsDefs1100"><marker id="SvgjsMarker1135" markerWidth="16" markerHeight="12" refX="16" refY="6" viewBox="0 0 16 12" orient="auto" markerUnits="userSpaceOnUse" stroke-dasharray="0,0"><path id="SvgjsPath1136" d="M0,2 L14,6 L0,11 L0,2" fill="#323232" stroke="#323232" stroke-width="2"></path></marker><marker id="SvgjsMarker1139" markerWidth="16" markerHeight="12" refX="16" refY="6" viewBox="0 0 16 12" orient="auto" markerUnits="userSpaceOnUse" stroke-dasharray="0,0"><path id="SvgjsPath1140" d="M0,2 L14,6 L0,11 L0,2" fill="#323232" stroke="#323232" stroke-width="2"></path></marker><marker id="SvgjsMarker1194" markerWidth="16" markerHeight="12" refX="16" refY="6" viewBox="0 0 16 12" orient="auto" markerUnits="userSpaceOnUse" stroke-dasharray="0,0"><path id="SvgjsPath1195" d="M0,2 L14,6 L0,11 L0,2" fill="#323232" stroke="#323232" stroke-width="2"></path></marker><marker id="SvgjsMarker1198" markerWidth="16" markerHeight="12" refX="16" refY="6" viewBox="0 0 16 12" orient="auto" markerUnits="userSpaceOnUse" stroke-dasharray="0,0"><path id="SvgjsPath1199" d="M0,2 L14,6 L0,11 L0,2" fill="#323232" stroke="#323232" stroke-width="2"></path></marker></defs><g id="SvgjsG1101" transform="translate(165,77)"><path id="SvgjsPath1102" d="M 0 0L 74 0L 74 36L 0 36Z" stroke="none" fill="none"></path><g id="SvgjsG1103"><text id="SvgjsText1104" font-family="微软雅黑" text-anchor="middle" font-size="13px" width="74px" fill="#323232" font-weight="400" align="middle" anchor="middle" family="微软雅黑" size="13px" weight="400" font-style="" opacity="1" y="8.05" transform="rotate(0)"><tspan id="SvgjsTspan1105" dy="16" x="37"><tspan id="SvgjsTspan1106" style="text-decoration:;">recvfrom</tspan></tspan></text></g></g><g id="SvgjsG1107" transform="translate(525,77)"><path id="SvgjsPath1108" d="M 0 0L 110 0L 110 36L 0 36Z" stroke="none" fill="none"></path><g id="SvgjsG1109"><text id="SvgjsText1110" font-family="微软雅黑" text-anchor="middle" font-size="13px" width="110px" fill="#323232" font-weight="400" align="middle" anchor="middle" family="微软雅黑" size="13px" weight="400" font-style="" opacity="1" y="8.05" transform="rotate(0)"><tspan id="SvgjsTspan1111" dy="16" x="55"><tspan id="SvgjsTspan1112" style="text-decoration:;">无数据报准备好</tspan></tspan></text></g></g><g id="SvgjsG1113" transform="translate(525,214)"><path id="SvgjsPath1114" d="M 0 0L 110 0L 110 36L 0 36Z" stroke="none" fill="none"></path><g id="SvgjsG1115"><text id="SvgjsText1116" font-family="微软雅黑" text-anchor="middle" font-size="13px" width="110px" fill="#323232" font-weight="400" align="middle" anchor="middle" family="微软雅黑" size="13px" weight="400" font-style="" opacity="1" y="0.050000000000000044" transform="rotate(0)"><tspan id="SvgjsTspan1117" dy="16" x="55"><tspan id="SvgjsTspan1118" style="text-decoration:;">数据报准备好</tspan></tspan><tspan id="SvgjsTspan1119" dy="16" x="55"><tspan id="SvgjsTspan1120" style="text-decoration:;">复制数据报</tspan></tspan></text></g></g><g id="SvgjsG1121" transform="translate(525,343)"><path id="SvgjsPath1122" d="M 0 0L 110 0L 110 36L 0 36Z" stroke="none" fill="none"></path><g id="SvgjsG1123"><text id="SvgjsText1124" font-family="微软雅黑" text-anchor="middle" font-size="13px" width="110px" fill="#323232" font-weight="400" align="middle" anchor="middle" family="微软雅黑" size="13px" weight="400" font-style="" opacity="1" y="8.05" transform="rotate(0)"><tspan id="SvgjsTspan1125" dy="16" x="55"><tspan id="SvgjsTspan1126" style="text-decoration:;">复制完成</tspan></tspan></text></g></g><g id="SvgjsG1127" transform="translate(147,343)"><path id="SvgjsPath1128" d="M 0 0L 110 0L 110 36L 0 36Z" stroke="none" fill="none"></path><g id="SvgjsG1129"><text id="SvgjsText1130" font-family="微软雅黑" text-anchor="middle" font-size="13px" width="110px" fill="#323232" font-weight="400" align="middle" anchor="middle" family="微软雅黑" size="13px" weight="400" font-style="" opacity="1" y="8.05" transform="rotate(0)"><tspan id="SvgjsTspan1131" dy="16" x="55"><tspan id="SvgjsTspan1132" style="text-decoration:;">处理数据报</tspan></tspan></text></g></g><g id="SvgjsG1133"><path id="SvgjsPath1134" d="M287 95L384.5 95L384.5 95L482 95" stroke="#323232" stroke-width="2" fill="none" marker-end="url(#SvgjsMarker1135)"></path></g><g id="SvgjsG1137"><path id="SvgjsPath1138" d="M488 359L385 359L385 359L282 359" stroke="#323232" stroke-width="2" fill="none" marker-end="url(#SvgjsMarker1139)"></path></g><g id="SvgjsG1141" transform="translate(327,58)"><path id="SvgjsPath1142" d="M 0 0L 110 0L 110 36L 0 36Z" stroke="none" fill="none"></path><g id="SvgjsG1143"><text id="SvgjsText1144" font-family="微软雅黑" text-anchor="middle" font-size="13px" width="110px" fill="#323232" font-weight="400" align="middle" anchor="middle" family="微软雅黑" size="13px" weight="400" font-style="" opacity="1" y="8.05" transform="rotate(0)"><tspan id="SvgjsTspan1145" dy="16" x="55"><tspan id="SvgjsTspan1146" style="text-decoration:;">系统调用</tspan></tspan></text></g></g><g id="SvgjsG1147" transform="translate(327,323)"><path id="SvgjsPath1148" d="M 0 0L 110 0L 110 36L 0 36Z" stroke="none" fill="none"></path><g id="SvgjsG1149"><text id="SvgjsText1150" font-family="微软雅黑" text-anchor="middle" font-size="13px" width="110px" fill="#323232" font-weight="400" align="middle" anchor="middle" family="微软雅黑" size="13px" weight="400" font-style="" opacity="1" y="8.05" transform="rotate(0)"><tspan id="SvgjsTspan1151" dy="16" x="55"><tspan id="SvgjsTspan1152" style="text-decoration:;">返回成功指示</tspan></tspan></text></g></g><g id="SvgjsG1153" transform="translate(165,25)"><path id="SvgjsPath1154" d="M 0 0L 74 0L 74 36L 0 36Z" stroke="none" fill="none"></path><g id="SvgjsG1155"><text id="SvgjsText1156" font-family="微软雅黑" text-anchor="middle" font-size="13px" width="74px" fill="#323232" font-weight="700" align="middle" anchor="middle" family="微软雅黑" size="13px" weight="700" font-style="" opacity="1" y="8.05" transform="rotate(0)"><tspan id="SvgjsTspan1157" dy="16" x="37"><tspan id="SvgjsTspan1158" style="text-decoration:;">应用进程</tspan></tspan></text></g></g><g id="SvgjsG1159" transform="translate(543,29)"><path id="SvgjsPath1160" d="M 0 0L 74 0L 74 36L 0 36Z" stroke="none" fill="none"></path><g id="SvgjsG1161"><text id="SvgjsText1162" font-family="微软雅黑" text-anchor="middle" font-size="13px" width="74px" fill="#323232" font-weight="700" align="middle" anchor="middle" family="微软雅黑" size="13px" weight="700" font-style="" opacity="1" y="8.05" transform="rotate(0)"><tspan id="SvgjsTspan1163" dy="16" x="37"><tspan id="SvgjsTspan1164" style="text-decoration:;">内核</tspan></tspan></text></g></g><g id="SvgjsG1165" transform="translate(25,94)"><path id="SvgjsPath1166" d="M 136 0Q 127 0 127 9L 127 123.5Q 127 132.5 114 132.5Q 127 132.5 127 141.5L 127 256Q 127 265 136 265" stroke="rgba(50,50,50,1)" stroke-width="2" fill="none"></path><path id="SvgjsPath1167" d="M 0 0L 136 0L 136 265L 0 265Z" stroke="none" fill="none"></path><g id="SvgjsG1168"><text id="SvgjsText1169" font-family="微软雅黑" text-anchor="middle" font-size="13px" width="109px" fill="#323232" font-weight="400" align="middle" anchor="middle" family="微软雅黑" size="13px" weight="400" font-style="" opacity="1" y="114.55" transform="rotate(0)"><tspan id="SvgjsTspan1170" dy="16" x="54.5"><tspan id="SvgjsTspan1171" style="text-decoration:;">进程阻塞于</tspan></tspan><tspan id="SvgjsTspan1172" dy="16" x="54.5"><tspan id="SvgjsTspan1173" style="text-decoration:;">recvfrom的调用</tspan></tspan></text></g></g><g id="SvgjsG1174" transform="translate(638,94)"><path id="SvgjsPath1175" d="M 0 140Q 9 140 9 131L 9 79Q 9 70 22 70Q 9 70 9 61L 9 9Q 9 0 0 0" stroke="rgba(50,50,50,1)" stroke-width="2" fill="none"></path><path id="SvgjsPath1176" d="M 0 0L 100 0L 100 140L 0 140Z" stroke="none" fill="none"></path><g id="SvgjsG1177"><text id="SvgjsText1178" font-family="微软雅黑" text-anchor="middle" font-size="13px" width="73px" fill="#323232" font-weight="400" align="middle" anchor="middle" family="微软雅黑" size="13px" weight="400" font-style="" opacity="1" y="60.05" transform="rotate(0)"><tspan id="SvgjsTspan1179" dy="16" x="63.5"><tspan id="SvgjsTspan1180" style="text-decoration:;">等待数据</tspan></tspan></text></g></g><g id="SvgjsG1181" transform="translate(638,234)"><path id="SvgjsPath1182" d="M 0 129Q 9 129 9 120L 9 73.5Q 9 64.5 22 64.5Q 9 64.5 9 55.5L 9 9Q 9 0 0 0" stroke="rgba(50,50,50,1)" stroke-width="2" fill="none"></path><path id="SvgjsPath1183" d="M 0 0L 100 0L 100 129L 0 129Z" stroke="none" fill="none"></path><g id="SvgjsG1184"><text id="SvgjsText1185" font-family="微软雅黑" text-anchor="middle" font-size="13px" width="73px" fill="#323232" font-weight="400" align="middle" anchor="middle" family="微软雅黑" size="13px" weight="400" font-style="" opacity="1" y="38.55" transform="rotate(0)"><tspan id="SvgjsTspan1186" dy="16" x="63.5"><tspan id="SvgjsTspan1187" style="text-decoration:;">将数据从内</tspan></tspan><tspan id="SvgjsTspan1188" dy="16" x="63.5"><tspan id="SvgjsTspan1189" style="text-decoration:;">核复制到数</tspan></tspan><tspan id="SvgjsTspan1190" dy="16" x="63.5"><tspan id="SvgjsTspan1191" style="text-decoration:;">据空间</tspan></tspan></text></g></g><g id="SvgjsG1192"><path id="SvgjsPath1193" d="M580 113L580 163.5L580 163.5L580 214" stroke="#323232" stroke-width="2" fill="none" marker-end="url(#SvgjsMarker1194)"></path></g><g id="SvgjsG1196"><path id="SvgjsPath1197" d="M580 250L580 296.5L580 296.5L580 343" stroke="#323232" stroke-width="2" fill="none" marker-end="url(#SvgjsMarker1198)"></path></g></svg>