<svg id="SvgjsSvg1006" width="975" height="519" xmlns="http://www.w3.org/2000/svg" version="1.1" xmlns:xlink="http://www.w3.org/1999/xlink" xmlns:svgjs="http://svgjs.com/svgjs"><defs id="SvgjsDefs1007"></defs><g id="SvgjsG1008" transform="translate(138,50)"><path id="SvgjsPath1009" d="M 0 0L 207 0L 207 37L 0 37Z" stroke="rgba(50,50,50,1)" stroke-width="2" fill-opacity="1" fill="#ffffff"></path><g id="SvgjsG1010"><text id="SvgjsText1011" font-family="微软雅黑" text-anchor="middle" font-size="13px" width="187px" fill="#323232" font-weight="700" align="middle" anchor="middle" family="微软雅黑" size="13px" weight="700" font-style="" opacity="1" y="8.55" transform="rotate(0)"><tspan id="SvgjsTspan1012" dy="16" x="103.5"><tspan id="SvgjsTspan1013" style="text-decoration:;">ELF头</tspan></tspan></text></g></g><g id="SvgjsG1014" transform="translate(138,87)"><path id="SvgjsPath1015" d="M 0 0L 207 0L 207 37L 0 37Z" stroke="rgba(50,50,50,1)" stroke-width="2" fill-opacity="1" fill="#ffffff"></path><g id="SvgjsG1016"><text id="SvgjsText1017" font-family="微软雅黑" text-anchor="middle" font-size="13px" width="187px" fill="#323232" font-weight="700" align="middle" anchor="middle" family="微软雅黑" size="13px" weight="700" font-style="" opacity="1" y="8.55" transform="rotate(0)"><tspan id="SvgjsTspan1018" dy="16" x="103.5"><tspan id="SvgjsTspan1019" style="text-decoration:;">.text</tspan></tspan></text></g></g><g id="SvgjsG1020" transform="translate(138,124)"><path id="SvgjsPath1021" d="M 0 0L 207 0L 207 37L 0 37Z" stroke="rgba(50,50,50,1)" stroke-width="2" fill-opacity="1" fill="#ffffff"></path><g id="SvgjsG1022"><text id="SvgjsText1023" font-family="微软雅黑" text-anchor="middle" font-size="13px" width="187px" fill="#323232" font-weight="700" align="middle" anchor="middle" family="微软雅黑" size="13px" weight="700" font-style="" opacity="1" y="8.55" transform="rotate(0)"><tspan id="SvgjsTspan1024" dy="16" x="103.5"><tspan id="SvgjsTspan1025" style="text-decoration:;">.rodata</tspan></tspan></text></g></g><g id="SvgjsG1026" transform="translate(138,161)"><path id="SvgjsPath1027" d="M 0 0L 207 0L 207 37L 0 37Z" stroke="rgba(50,50,50,1)" stroke-width="2" fill-opacity="1" fill="#ffffff"></path><g id="SvgjsG1028"><text id="SvgjsText1029" font-family="微软雅黑" text-anchor="middle" font-size="13px" width="187px" fill="#323232" font-weight="700" align="middle" anchor="middle" family="微软雅黑" size="13px" weight="700" font-style="" opacity="1" y="8.55" transform="rotate(0)"><tspan id="SvgjsTspan1030" dy="16" x="103.5"><tspan id="SvgjsTspan1031" style="text-decoration:;">.data</tspan></tspan></text></g></g><g id="SvgjsG1032" transform="translate(138,198)"><path id="SvgjsPath1033" d="M 0 0L 207 0L 207 37L 0 37Z" stroke="rgba(50,50,50,1)" stroke-width="2" fill-opacity="1" fill="#ffffff"></path><g id="SvgjsG1034"><text id="SvgjsText1035" font-family="微软雅黑" text-anchor="middle" font-size="13px" width="187px" fill="#323232" font-weight="700" align="middle" anchor="middle" family="微软雅黑" size="13px" weight="700" font-style="" opacity="1" y="8.55" transform="rotate(0)"><tspan id="SvgjsTspan1036" dy="16" x="103.5"><tspan id="SvgjsTspan1037" style="text-decoration:;">.bss</tspan></tspan></text></g></g><g id="SvgjsG1038" transform="translate(138,235)"><path id="SvgjsPath1039" d="M 0 0L 207 0L 207 37L 0 37Z" stroke="rgba(50,50,50,1)" stroke-width="2" fill-opacity="1" fill="#ffffff"></path><g id="SvgjsG1040"><text id="SvgjsText1041" font-family="微软雅黑" text-anchor="middle" font-size="13px" width="187px" fill="#323232" font-weight="700" align="middle" anchor="middle" family="微软雅黑" size="13px" weight="700" font-style="" opacity="1" y="8.55" transform="rotate(0)"><tspan id="SvgjsTspan1042" dy="16" x="103.5"><tspan id="SvgjsTspan1043" style="text-decoration:;">.symtab</tspan></tspan></text></g></g><g id="SvgjsG1044" transform="translate(138,272)"><path id="SvgjsPath1045" d="M 0 0L 207 0L 207 37L 0 37Z" stroke="rgba(50,50,50,1)" stroke-width="2" fill-opacity="1" fill="#ffffff"></path><g id="SvgjsG1046"><text id="SvgjsText1047" font-family="微软雅黑" text-anchor="middle" font-size="13px" width="187px" fill="#323232" font-weight="700" align="middle" anchor="middle" family="微软雅黑" size="13px" weight="700" font-style="" opacity="1" y="8.55" transform="rotate(0)"><tspan id="SvgjsTspan1048" dy="16" x="103.5"><tspan id="SvgjsTspan1049" style="text-decoration:;">.rel.text</tspan></tspan></text></g></g><g id="SvgjsG1050" transform="translate(138,309)"><path id="SvgjsPath1051" d="M 0 0L 207 0L 207 37L 0 37Z" stroke="rgba(50,50,50,1)" stroke-width="2" fill-opacity="1" fill="#ffffff"></path><g id="SvgjsG1052"><text id="SvgjsText1053" font-family="微软雅黑" text-anchor="middle" font-size="13px" width="187px" fill="#323232" font-weight="700" align="middle" anchor="middle" family="微软雅黑" size="13px" weight="700" font-style="" opacity="1" y="8.55" transform="rotate(0)"><tspan id="SvgjsTspan1054" dy="16" x="103.5"><tspan id="SvgjsTspan1055" style="text-decoration:;">.rel.data</tspan></tspan></text></g></g><g id="SvgjsG1056" transform="translate(138,346)"><path id="SvgjsPath1057" d="M 0 0L 207 0L 207 37L 0 37Z" stroke="rgba(50,50,50,1)" stroke-width="2" fill-opacity="1" fill="#ffffff"></path><g id="SvgjsG1058"><text id="SvgjsText1059" font-family="微软雅黑" text-anchor="middle" font-size="13px" width="187px" fill="#323232" font-weight="700" align="middle" anchor="middle" family="微软雅黑" size="13px" weight="700" font-style="" opacity="1" y="8.55" transform="rotate(0)"><tspan id="SvgjsTspan1060" dy="16" x="103.5"><tspan id="SvgjsTspan1061" style="text-decoration:;">.debug</tspan></tspan></text></g></g><g id="SvgjsG1062" transform="translate(138,383)"><path id="SvgjsPath1063" d="M 0 0L 207 0L 207 37L 0 37Z" stroke="rgba(50,50,50,1)" stroke-width="2" fill-opacity="1" fill="#ffffff"></path><g id="SvgjsG1064"><text id="SvgjsText1065" font-family="微软雅黑" text-anchor="middle" font-size="13px" width="187px" fill="#323232" font-weight="700" align="middle" anchor="middle" family="微软雅黑" size="13px" weight="700" font-style="" opacity="1" y="8.55" transform="rotate(0)"><tspan id="SvgjsTspan1066" dy="16" x="103.5"><tspan id="SvgjsTspan1067" style="text-decoration:;">.line</tspan></tspan></text></g></g><g id="SvgjsG1068" transform="translate(138,420)"><path id="SvgjsPath1069" d="M 0 0L 207 0L 207 37L 0 37Z" stroke="rgba(50,50,50,1)" stroke-width="2" fill-opacity="1" fill="#ffffff"></path><g id="SvgjsG1070"><text id="SvgjsText1071" font-family="微软雅黑" text-anchor="middle" font-size="13px" width="187px" fill="#323232" font-weight="700" align="middle" anchor="middle" family="微软雅黑" size="13px" weight="700" font-style="" opacity="1" y="8.55" transform="rotate(0)"><tspan id="SvgjsTspan1072" dy="16" x="103.5"><tspan id="SvgjsTspan1073" style="text-decoration:;">.strtab</tspan></tspan></text></g></g><g id="SvgjsG1074" transform="translate(138,457)"><path id="SvgjsPath1075" d="M 0 0L 207 0L 207 37L 0 37Z" stroke="rgba(50,50,50,1)" stroke-width="2" fill-opacity="1" fill="#ffffff"></path><g id="SvgjsG1076"><text id="SvgjsText1077" font-family="微软雅黑" text-anchor="middle" font-size="13px" width="187px" fill="#323232" font-weight="700" align="middle" anchor="middle" family="微软雅黑" size="13px" weight="700" font-style="" opacity="1" y="8.55" transform="rotate(0)"><tspan id="SvgjsTspan1078" dy="16" x="103.5"><tspan id="SvgjsTspan1079" style="text-decoration:;">节头部表</tspan></tspan></text></g></g><g id="SvgjsG1080" transform="translate(335,25)"><path id="SvgjsPath1081" d="M 0 0L 48 0L 48 25L 0 25Z" stroke="none" fill="none"></path><g id="SvgjsG1082"><text id="SvgjsText1083" font-family="微软雅黑" text-anchor="middle" font-size="13px" width="48px" fill="#323232" font-weight="400" align="middle" anchor="middle" family="微软雅黑" size="13px" weight="400" font-style="" opacity="1" y="2.55" transform="rotate(0)"><tspan id="SvgjsTspan1084" dy="16" x="24"><tspan id="SvgjsTspan1085" style="text-decoration:;">0</tspan></tspan></text></g></g><g id="SvgjsG1086" transform="translate(74,87)"><path id="SvgjsPath1087" d="M 57 0Q 51.3 0 51.3 9L 51.3 174.5Q 51.3 183.5 35 183.5Q 51.3 183.5 51.3 192.5L 51.3 358Q 51.3 367 57 367" stroke="rgba(50,50,50,1)" stroke-width="2" fill="none"></path><path id="SvgjsPath1088" d="M 0 0L 57 0L 57 367L 0 367Z" stroke="none" fill="none"></path><g id="SvgjsG1089"><text id="SvgjsText1090" font-family="微软雅黑" text-anchor="end" font-size="13px" width="30px" fill="#323232" font-weight="400" align="middle" anchor="end" family="微软雅黑" size="13px" weight="400" font-style="" opacity="1" y="173.55" transform="rotate(0)"><tspan id="SvgjsTspan1091" dy="16" x="30"><tspan id="SvgjsTspan1092" style="text-decoration:;">节</tspan></tspan></text></g></g><g id="SvgjsG1093" transform="translate(25,457)"><path id="SvgjsPath1094" d="M 106 0Q 97 0 97 3.7L 97 14.8Q 97 18.5 84 18.5Q 97 18.5 97 22.2L 97 33.3Q 97 37 106 37" stroke="rgba(50,50,50,1)" stroke-width="2" fill="none"></path><path id="SvgjsPath1095" d="M 0 0L 106 0L 106 37L 0 37Z" stroke="none" fill="none"></path><g id="SvgjsG1096"><text id="SvgjsText1097" font-family="微软雅黑" text-anchor="end" font-size="13px" width="79px" fill="#323232" font-weight="400" align="middle" anchor="end" family="微软雅黑" size="13px" weight="400" font-style="" opacity="1" y="0.55" transform="rotate(0)"><tspan id="SvgjsTspan1098" dy="16" x="79"><tspan id="SvgjsTspan1099" style="text-decoration:;">描述目标</tspan></tspan><tspan id="SvgjsTspan1100" dy="16" x="79"><tspan id="SvgjsTspan1101" style="text-decoration:;">文件的节</tspan></tspan></text></g></g><g id="SvgjsG1102" transform="translate(371,50)"><path id="SvgjsPath1103" d="M 0 0L 365 0L 365 37L 0 37Z" stroke="none" fill="none"></path><g id="SvgjsG1104"><text id="SvgjsText1105" font-family="微软雅黑" text-anchor="start" font-size="13px" width="365px" fill="#323232" font-weight="400" align="middle" anchor="start" family="微软雅黑" size="13px" weight="400" font-style="" opacity="1" y="8.55" transform="rotate(0)"><tspan id="SvgjsTspan1106" dy="16" x="0"><tspan id="SvgjsTspan1107" style="text-decoration:;">16字节的序列,描述了生成该文件的系统的字的大小和字节顺序</tspan></tspan></text></g></g><g id="SvgjsG1108" transform="translate(371,87)"><path id="SvgjsPath1109" d="M 0 0L 224 0L 224 37L 0 37Z" stroke="none" fill="none"></path><g id="SvgjsG1110"><text id="SvgjsText1111" font-family="微软雅黑" text-anchor="start" font-size="13px" width="224px" fill="#323232" font-weight="400" align="middle" anchor="start" family="微软雅黑" size="13px" weight="400" font-style="" opacity="1" y="8.55" transform="rotate(0)"><tspan id="SvgjsTspan1112" dy="16" x="0"><tspan id="SvgjsTspan1113" style="text-decoration:;">已编译程序的机器代码</tspan></tspan></text></g></g><g id="SvgjsG1114" transform="translate(371,124)"><path id="SvgjsPath1115" d="M 0 0L 224 0L 224 37L 0 37Z" stroke="none" fill="none"></path><g id="SvgjsG1116"><text id="SvgjsText1117" font-family="微软雅黑" text-anchor="start" font-size="13px" width="224px" fill="#323232" font-weight="400" align="middle" anchor="start" family="微软雅黑" size="13px" weight="400" font-style="" opacity="1" y="8.55" transform="rotate(0)"><tspan id="SvgjsTspan1118" dy="16" x="0"><tspan id="SvgjsTspan1119" style="text-decoration:;">只读数据</tspan></tspan></text></g></g><g id="SvgjsG1120" transform="translate(371,161)"><path id="SvgjsPath1121" d="M 0 0L 294 0L 294 37L 0 37Z" stroke="none" fill="none"></path><g id="SvgjsG1122"><text id="SvgjsText1123" font-family="微软雅黑" text-anchor="start" font-size="13px" width="294px" fill="#323232" font-weight="400" align="middle" anchor="start" family="微软雅黑" size="13px" weight="400" font-style="" opacity="1" y="8.55" transform="rotate(0)"><tspan id="SvgjsTspan1124" dy="16" x="0"><tspan id="SvgjsTspan1125" style="text-decoration:;">已初始化的全局和静态变量</tspan></tspan></text></g></g><g id="SvgjsG1126" transform="translate(371,198)"><path id="SvgjsPath1127" d="M 0 0L 579 0L 579 37L 0 37Z" stroke="none" fill="none"></path><g id="SvgjsG1128"><text id="SvgjsText1129" font-family="微软雅黑" text-anchor="start" font-size="13px" width="579px" fill="#323232" font-weight="400" align="middle" anchor="start" family="微软雅黑" size="13px" weight="400" font-style="" opacity="1" y="8.55" transform="rotate(0)"><tspan id="SvgjsTspan1130" dy="16" x="0"><tspan id="SvgjsTspan1131" style="text-decoration:;">未初始化的全局和静态变量,以及所有被初始化为0的全局或静态变量</tspan></tspan></text></g></g><g id="SvgjsG1132" transform="translate(371,235)"><path id="SvgjsPath1133" d="M 0 0L 389 0L 389 37L 0 37Z" stroke="none" fill="none"></path><g id="SvgjsG1134"><text id="SvgjsText1135" font-family="微软雅黑" text-anchor="start" font-size="13px" width="389px" fill="#323232" font-weight="400" align="middle" anchor="start" family="微软雅黑" size="13px" weight="400" font-style="" opacity="1" y="8.55" transform="rotate(0)"><tspan id="SvgjsTspan1136" dy="16" x="0"><tspan id="SvgjsTspan1137" style="text-decoration:;">符号表</tspan></tspan></text></g></g><g id="SvgjsG1138" transform="translate(371,272)"><path id="SvgjsPath1139" d="M 0 0L 224 0L 224 37L 0 37Z" stroke="none" fill="none"></path><g id="SvgjsG1140"><text id="SvgjsText1141" font-family="微软雅黑" text-anchor="start" font-size="13px" width="224px" fill="#323232" font-weight="400" align="middle" anchor="start" family="微软雅黑" size="13px" weight="400" font-style="" opacity="1" y="8.55" transform="rotate(0)"><tspan id="SvgjsTspan1142" dy="16" x="0"><tspan id="SvgjsTspan1143" style="text-decoration:;">.text节中位置的列表</tspan></tspan></text></g></g><g id="SvgjsG1144" transform="translate(371,309)"><path id="SvgjsPath1145" d="M 0 0L 335 0L 335 37L 0 37Z" stroke="none" fill="none"></path><g id="SvgjsG1146"><text id="SvgjsText1147" font-family="微软雅黑" text-anchor="start" font-size="13px" width="335px" fill="#323232" font-weight="400" align="middle" anchor="start" family="微软雅黑" size="13px" weight="400" font-style="" opacity="1" y="8.55" transform="rotate(0)"><tspan id="SvgjsTspan1148" dy="16" x="0"><tspan id="SvgjsTspan1149" style="text-decoration:;">被模块引用或定义的所有全局变量的重定位信息</tspan></tspan></text></g></g><g id="SvgjsG1150" transform="translate(371,346)"><path id="SvgjsPath1151" d="M 0 0L 224 0L 224 37L 0 37Z" stroke="none" fill="none"></path><g id="SvgjsG1152"><text id="SvgjsText1153" font-family="微软雅黑" text-anchor="start" font-size="13px" width="224px" fill="#323232" font-weight="400" align="middle" anchor="start" family="微软雅黑" size="13px" weight="400" font-style="" opacity="1" y="8.55" transform="rotate(0)"><tspan id="SvgjsTspan1154" dy="16" x="0"><tspan id="SvgjsTspan1155" style="text-decoration:;">调试符号表</tspan></tspan></text></g></g><g id="SvgjsG1156" transform="translate(371,383)"><path id="SvgjsPath1157" d="M 0 0L 335 0L 335 37L 0 37Z" stroke="none" fill="none"></path><g id="SvgjsG1158"><text id="SvgjsText1159" font-family="微软雅黑" text-anchor="start" font-size="13px" width="335px" fill="#323232" font-weight="400" align="middle" anchor="start" family="微软雅黑" size="13px" weight="400" font-style="" opacity="1" y="8.55" transform="rotate(0)"><tspan id="SvgjsTspan1160" dy="16" x="0"><tspan id="SvgjsTspan1161" style="text-decoration:;">原始C源程序中的行号和.text节中机器指令之间的映射</tspan></tspan></text></g></g><g id="SvgjsG1162" transform="translate(371,420)"><path id="SvgjsPath1163" d="M 0 0L 224 0L 224 37L 0 37Z" stroke="none" fill="none"></path><g id="SvgjsG1164"><text id="SvgjsText1165" font-family="微软雅黑" text-anchor="start" font-size="13px" width="224px" fill="#323232" font-weight="400" align="middle" anchor="start" family="微软雅黑" size="13px" weight="400" font-style="" opacity="1" y="8.55" transform="rotate(0)"><tspan id="SvgjsTspan1166" dy="16" x="0"><tspan id="SvgjsTspan1167" style="text-decoration:;">字符串表</tspan></tspan></text></g></g><g id="SvgjsG1168" transform="translate(371,457)"><path id="SvgjsPath1169" d="M 0 0L 224 0L 224 37L 0 37Z" stroke="none" fill="none"></path><g id="SvgjsG1170"><text id="SvgjsText1171" font-family="微软雅黑" text-anchor="start" font-size="13px" width="224px" fill="#323232" font-weight="400" align="middle" anchor="start" family="微软雅黑" size="13px" weight="400" font-style="" opacity="1" y="8.55" transform="rotate(0)"><tspan id="SvgjsTspan1172" dy="16" x="0"><tspan id="SvgjsTspan1173" style="text-decoration:;">描述不同节的位置和大小</tspan></tspan></text></g></g></svg>