<svg id="SvgjsSvg1174" width="644" height="519" xmlns="http://www.w3.org/2000/svg" version="1.1" xmlns:xlink="http://www.w3.org/1999/xlink" xmlns:svgjs="http://svgjs.com/svgjs"><defs id="SvgjsDefs1175"></defs><g id="SvgjsG1176" transform="translate(214,87)"><path id="SvgjsPath1177" d="M 0 0L 207 0L 207 37L 0 37Z" stroke="rgba(50,50,50,1)" stroke-width="2" fill-opacity="1" fill="#ffffff"></path><g id="SvgjsG1178"><text id="SvgjsText1179" font-family="微软雅黑" text-anchor="middle" font-size="13px" width="187px" fill="#323232" font-weight="700" align="middle" anchor="middle" family="微软雅黑" size="13px" weight="700" font-style="" opacity="1" y="8.55" transform="rotate(0)"><tspan id="SvgjsTspan1180" dy="16" x="103.5"><tspan id="SvgjsTspan1181" style="text-decoration:;">段头部表</tspan></tspan></text></g></g><g id="SvgjsG1182" transform="translate(214,161)"><path id="SvgjsPath1183" d="M 0 0L 207 0L 207 37L 0 37Z" stroke="rgba(50,50,50,1)" stroke-width="2" fill-opacity="1" fill="#ffffff"></path><g id="SvgjsG1184"><text id="SvgjsText1185" font-family="微软雅黑" text-anchor="middle" font-size="13px" width="187px" fill="#323232" font-weight="700" align="middle" anchor="middle" family="微软雅黑" size="13px" weight="700" font-style="" opacity="1" y="8.55" transform="rotate(0)"><tspan id="SvgjsTspan1186" dy="16" x="103.5"><tspan id="SvgjsTspan1187" style="text-decoration:;">.text</tspan></tspan></text></g></g><g id="SvgjsG1188" transform="translate(214,198)"><path id="SvgjsPath1189" d="M 0 0L 207 0L 207 37L 0 37Z" stroke="rgba(50,50,50,1)" stroke-width="2" fill-opacity="1" fill="#ffffff"></path><g id="SvgjsG1190"><text id="SvgjsText1191" font-family="微软雅黑" text-anchor="middle" font-size="13px" width="187px" fill="#323232" font-weight="700" align="middle" anchor="middle" family="微软雅黑" size="13px" weight="700" font-style="" opacity="1" y="8.55" transform="rotate(0)"><tspan id="SvgjsTspan1192" dy="16" x="103.5"><tspan id="SvgjsTspan1193" style="text-decoration:;">.rodata</tspan></tspan></text></g></g><g id="SvgjsG1194" transform="translate(214,235)"><path id="SvgjsPath1195" d="M 0 0L 207 0L 207 37L 0 37Z" stroke="rgba(50,50,50,1)" stroke-width="2" fill-opacity="1" fill="#ffffff"></path><g id="SvgjsG1196"><text id="SvgjsText1197" font-family="微软雅黑" text-anchor="middle" font-size="13px" width="187px" fill="#323232" font-weight="700" align="middle" anchor="middle" family="微软雅黑" size="13px" weight="700" font-style="" opacity="1" y="8.55" transform="rotate(0)"><tspan id="SvgjsTspan1198" dy="16" x="103.5"><tspan id="SvgjsTspan1199" style="text-decoration:;">.data</tspan></tspan></text></g></g><g id="SvgjsG1200" transform="translate(214,272)"><path id="SvgjsPath1201" d="M 0 0L 207 0L 207 37L 0 37Z" stroke="rgba(50,50,50,1)" stroke-width="2" fill-opacity="1" fill="#ffffff"></path><g id="SvgjsG1202"><text id="SvgjsText1203" font-family="微软雅黑" text-anchor="middle" font-size="13px" width="187px" fill="#323232" font-weight="700" align="middle" anchor="middle" family="微软雅黑" size="13px" weight="700" font-style="" opacity="1" y="8.55" transform="rotate(0)"><tspan id="SvgjsTspan1204" dy="16" x="103.5"><tspan id="SvgjsTspan1205" style="text-decoration:;">.bss</tspan></tspan></text></g></g><g id="SvgjsG1206" transform="translate(214,309)"><path id="SvgjsPath1207" d="M 0 0L 207 0L 207 37L 0 37Z" stroke="rgba(50,50,50,1)" stroke-width="2" fill-opacity="1" fill="#ffffff"></path><g id="SvgjsG1208"><text id="SvgjsText1209" font-family="微软雅黑" text-anchor="middle" font-size="13px" width="187px" fill="#323232" font-weight="700" align="middle" anchor="middle" family="微软雅黑" size="13px" weight="700" font-style="" opacity="1" y="8.55" transform="rotate(0)"><tspan id="SvgjsTspan1210" dy="16" x="103.5"><tspan id="SvgjsTspan1211" style="text-decoration:;">.symtab</tspan></tspan></text></g></g><g id="SvgjsG1212" transform="translate(214,346)"><path id="SvgjsPath1213" d="M 0 0L 207 0L 207 37L 0 37Z" stroke="rgba(50,50,50,1)" stroke-width="2" fill-opacity="1" fill="#ffffff"></path><g id="SvgjsG1214"><text id="SvgjsText1215" font-family="微软雅黑" text-anchor="middle" font-size="13px" width="187px" fill="#323232" font-weight="700" align="middle" anchor="middle" family="微软雅黑" size="13px" weight="700" font-style="" opacity="1" y="8.55" transform="rotate(0)"><tspan id="SvgjsTspan1216" dy="16" x="103.5"><tspan id="SvgjsTspan1217" style="text-decoration:;">.debug</tspan></tspan></text></g></g><g id="SvgjsG1218" transform="translate(214,383)"><path id="SvgjsPath1219" d="M 0 0L 207 0L 207 37L 0 37Z" stroke="rgba(50,50,50,1)" stroke-width="2" fill-opacity="1" fill="#ffffff"></path><g id="SvgjsG1220"><text id="SvgjsText1221" font-family="微软雅黑" text-anchor="middle" font-size="13px" width="187px" fill="#323232" font-weight="700" align="middle" anchor="middle" family="微软雅黑" size="13px" weight="700" font-style="" opacity="1" y="8.55" transform="rotate(0)"><tspan id="SvgjsTspan1222" dy="16" x="103.5"><tspan id="SvgjsTspan1223" style="text-decoration:;">.line</tspan></tspan></text></g></g><g id="SvgjsG1224" transform="translate(214,420)"><path id="SvgjsPath1225" d="M 0 0L 207 0L 207 37L 0 37Z" stroke="rgba(50,50,50,1)" stroke-width="2" fill-opacity="1" fill="#ffffff"></path><g id="SvgjsG1226"><text id="SvgjsText1227" font-family="微软雅黑" text-anchor="middle" font-size="13px" width="187px" fill="#323232" font-weight="700" align="middle" anchor="middle" family="微软雅黑" size="13px" weight="700" font-style="" opacity="1" y="8.55" transform="rotate(0)"><tspan id="SvgjsTspan1228" dy="16" x="103.5"><tspan id="SvgjsTspan1229" style="text-decoration:;">.strtab</tspan></tspan></text></g></g><g id="SvgjsG1230" transform="translate(214,457)"><path id="SvgjsPath1231" d="M 0 0L 207 0L 207 37L 0 37Z" stroke="rgba(50,50,50,1)" stroke-width="2" fill-opacity="1" fill="#ffffff"></path><g id="SvgjsG1232"><text id="SvgjsText1233" font-family="微软雅黑" text-anchor="middle" font-size="13px" width="187px" fill="#323232" font-weight="700" align="middle" anchor="middle" family="微软雅黑" size="13px" weight="700" font-style="" opacity="1" y="8.55" transform="rotate(0)"><tspan id="SvgjsTspan1234" dy="16" x="103.5"><tspan id="SvgjsTspan1235" style="text-decoration:;">节头部表</tspan></tspan></text></g></g><g id="SvgjsG1236" transform="translate(411,25)"><path id="SvgjsPath1237" d="M 0 0L 48 0L 48 25L 0 25Z" stroke="none" fill="none"></path><g id="SvgjsG1238"><text id="SvgjsText1239" font-family="微软雅黑" text-anchor="middle" font-size="13px" width="48px" fill="#323232" font-weight="400" align="middle" anchor="middle" family="微软雅黑" size="13px" weight="400" font-style="" opacity="1" y="2.55" transform="rotate(0)"><tspan id="SvgjsTspan1240" dy="16" x="24"><tspan id="SvgjsTspan1241" style="text-decoration:;">0</tspan></tspan></text></g></g><g id="SvgjsG1242" transform="translate(25,87)"><path id="SvgjsPath1243" d="M 182 0Q 173 0 173 3.7L 173 14.8Q 173 18.5 160 18.5Q 173 18.5 173 22.2L 173 33.3Q 173 37 182 37" stroke="rgba(50,50,50,1)" stroke-width="2" fill="none"></path><path id="SvgjsPath1244" d="M 0 0L 182 0L 182 37L 0 37Z" stroke="none" fill="none"></path><g id="SvgjsG1245"><text id="SvgjsText1246" font-family="微软雅黑" text-anchor="end" font-size="13px" width="155px" fill="#323232" font-weight="400" align="middle" anchor="end" family="微软雅黑" size="13px" weight="400" font-style="" opacity="1" y="0.55" transform="rotate(0)"><tspan id="SvgjsTspan1247" dy="16" x="155"><tspan id="SvgjsTspan1248" style="text-decoration:;">将连续的文件节</tspan></tspan><tspan id="SvgjsTspan1249" dy="16" x="155"><tspan id="SvgjsTspan1250" style="text-decoration:;">映射到运行时内存段</tspan></tspan></text></g></g><g id="SvgjsG1251" transform="translate(101,457)"><path id="SvgjsPath1252" d="M 106 0Q 97 0 97 3.7L 97 14.8Q 97 18.5 84 18.5Q 97 18.5 97 22.2L 97 33.3Q 97 37 106 37" stroke="rgba(50,50,50,1)" stroke-width="2" fill="none"></path><path id="SvgjsPath1253" d="M 0 0L 106 0L 106 37L 0 37Z" stroke="none" fill="none"></path><g id="SvgjsG1254"><text id="SvgjsText1255" font-family="微软雅黑" text-anchor="end" font-size="13px" width="79px" fill="#323232" font-weight="400" align="middle" anchor="end" family="微软雅黑" size="13px" weight="400" font-style="" opacity="1" y="0.55" transform="rotate(0)"><tspan id="SvgjsTspan1256" dy="16" x="79"><tspan id="SvgjsTspan1257" style="text-decoration:;">描述目标</tspan></tspan><tspan id="SvgjsTspan1258" dy="16" x="79"><tspan id="SvgjsTspan1259" style="text-decoration:;">文件的节</tspan></tspan></text></g></g><g id="SvgjsG1260" transform="translate(214,50)"><path id="SvgjsPath1261" d="M 0 0L 207 0L 207 37L 0 37Z" stroke="rgba(50,50,50,1)" stroke-width="2" fill-opacity="1" fill="#ffffff"></path><g id="SvgjsG1262"><text id="SvgjsText1263" font-family="微软雅黑" text-anchor="middle" font-size="13px" width="187px" fill="#323232" font-weight="700" align="middle" anchor="middle" family="微软雅黑" size="13px" weight="700" font-style="" opacity="1" y="8.55" transform="rotate(0)"><tspan id="SvgjsTspan1264" dy="16" x="103.5"><tspan id="SvgjsTspan1265" style="text-decoration:;">ELF头</tspan></tspan></text></g></g><g id="SvgjsG1266" transform="translate(214,124)"><path id="SvgjsPath1267" d="M 0 0L 207 0L 207 37L 0 37Z" stroke="rgba(50,50,50,1)" stroke-width="2" fill-opacity="1" fill="#ffffff"></path><g id="SvgjsG1268"><text id="SvgjsText1269" font-family="微软雅黑" text-anchor="middle" font-size="13px" width="187px" fill="#323232" font-weight="700" align="middle" anchor="middle" family="微软雅黑" size="13px" weight="700" font-style="" opacity="1" y="8.55" transform="rotate(0)"><tspan id="SvgjsTspan1270" dy="16" x="103.5"><tspan id="SvgjsTspan1271" style="text-decoration:;">.init</tspan></tspan></text></g></g><g id="SvgjsG1272" transform="translate(432,50)"><path id="SvgjsPath1273" d="M 0 185Q 9 185 9 176L 9 101.5Q 9 92.5 22 92.5Q 9 92.5 9 83.5L 9 9Q 9 0 0 0" stroke="rgba(50,50,50,1)" stroke-width="2" fill="none"></path><path id="SvgjsPath1274" d="M 0 0L 187 0L 187 185L 0 185Z" stroke="none" fill="none"></path><g id="SvgjsG1275"><text id="SvgjsText1276" font-family="微软雅黑" text-anchor="start" font-size="13px" width="160px" fill="#323232" font-weight="400" align="middle" anchor="start" family="微软雅黑" size="13px" weight="400" font-style="" opacity="1" y="82.55" transform="rotate(0)"><tspan id="SvgjsTspan1277" dy="16" x="27"><tspan id="SvgjsTspan1278" style="text-decoration:;">只读内存段(代码段)</tspan></tspan></text></g></g><g id="SvgjsG1279" transform="translate(432,235)"><path id="SvgjsPath1280" d="M 0 74Q 9 74 9 66.6L 9 44.4Q 9 37 22 37Q 9 37 9 29.6L 9 7.4Q 9 0 0 0" stroke="rgba(50,50,50,1)" stroke-width="2" fill="none"></path><path id="SvgjsPath1281" d="M 0 0L 187 0L 187 74L 0 74Z" stroke="none" fill="none"></path><g id="SvgjsG1282"><text id="SvgjsText1283" font-family="微软雅黑" text-anchor="start" font-size="13px" width="160px" fill="#323232" font-weight="400" align="middle" anchor="start" family="微软雅黑" size="13px" weight="400" font-style="" opacity="1" y="27.05" transform="rotate(0)"><tspan id="SvgjsTspan1284" dy="16" x="27"><tspan id="SvgjsTspan1285" style="text-decoration:;">读/写内存段(数据段)</tspan></tspan></text></g></g><g id="SvgjsG1286" transform="translate(432,309)"><path id="SvgjsPath1287" d="M 0 185Q 9 185 9 176L 9 101.5Q 9 92.5 22 92.5Q 9 92.5 9 83.5L 9 9Q 9 0 0 0" stroke="rgba(50,50,50,1)" stroke-width="2" fill="none"></path><path id="SvgjsPath1288" d="M 0 0L 187 0L 187 185L 0 185Z" stroke="none" fill="none"></path><g id="SvgjsG1289"><text id="SvgjsText1290" font-family="微软雅黑" text-anchor="start" font-size="13px" width="160px" fill="#323232" font-weight="400" align="middle" anchor="start" family="微软雅黑" size="13px" weight="400" font-style="" opacity="1" y="74.55" transform="rotate(0)"><tspan id="SvgjsTspan1291" dy="16" x="27"><tspan id="SvgjsTspan1292" style="text-decoration:;">不加载到内存的</tspan></tspan><tspan id="SvgjsTspan1293" dy="16" x="27"><tspan id="SvgjsTspan1294" style="text-decoration:;">符号表和调试信息</tspan></tspan></text></g></g></svg>