<svg id="SvgjsSvg1148" width="734" height="597" xmlns="http://www.w3.org/2000/svg" version="1.1" xmlns:xlink="http://www.w3.org/1999/xlink" xmlns:svgjs="http://svgjs.com/svgjs"><defs id="SvgjsDefs1149"><marker id="SvgjsMarker1168" markerWidth="16" markerHeight="12" refX="16" refY="6" viewBox="0 0 16 12" orient="auto" markerUnits="userSpaceOnUse" stroke-dasharray="0,0"><path id="SvgjsPath1169" d="M0,2 L14,6 L0,11 L0,2" fill="#323232" stroke="#323232" stroke-width="2"></path></marker><marker id="SvgjsMarker1178" markerWidth="16" markerHeight="12" refX="16" refY="6" viewBox="0 0 16 12" orient="auto" markerUnits="userSpaceOnUse" stroke-dasharray="0,0"><path id="SvgjsPath1179" d="M0,2 L14,6 L0,11 L0,2" fill="#323232" stroke="#323232" stroke-width="2"></path></marker><marker id="SvgjsMarker1182" markerWidth="16" markerHeight="12" refX="16" refY="6" viewBox="0 0 16 12" orient="auto" markerUnits="userSpaceOnUse" stroke-dasharray="0,0"><path id="SvgjsPath1183" d="M0,2 L14,6 L0,11 L0,2" fill="#323232" stroke="#323232" stroke-width="2"></path></marker><marker id="SvgjsMarker1220" markerWidth="16" markerHeight="12" refX="16" refY="6" viewBox="0 0 16 12" orient="auto" markerUnits="userSpaceOnUse" stroke-dasharray="0,0"><path id="SvgjsPath1221" d="M0,2 L14,6 L0,11 L0,2" fill="#323232" stroke="#323232" stroke-width="2"></path></marker><marker id="SvgjsMarker1230" markerWidth="16" markerHeight="12" refX="16" refY="6" viewBox="0 0 16 12" orient="auto" markerUnits="userSpaceOnUse" stroke-dasharray="0,0"><path id="SvgjsPath1231" d="M0,2 L14,6 L0,11 L0,2" fill="#323232" stroke="#323232" stroke-width="2"></path></marker><marker id="SvgjsMarker1274" markerWidth="16" markerHeight="12" refX="16" refY="6" viewBox="0 0 16 12" orient="auto" markerUnits="userSpaceOnUse" stroke-dasharray="0,0"><path id="SvgjsPath1275" d="M0,2 L14,6 L0,11 L0,2" fill="#323232" stroke="#323232" stroke-width="2"></path></marker><marker id="SvgjsMarker1278" markerWidth="16" markerHeight="12" refX="16" refY="6" viewBox="0 0 16 12" orient="auto" markerUnits="userSpaceOnUse" stroke-dasharray="0,0"><path id="SvgjsPath1279" d="M0,2 L14,6 L0,11 L0,2" fill="#323232" stroke="#323232" stroke-width="2"></path></marker></defs><g id="SvgjsG1150" transform="translate(335,65)"><path id="SvgjsPath1151" d="M 0 0L 171 0L 171 64L 0 64Z" stroke="rgba(50,50,50,1)" stroke-width="2" fill-opacity="1" fill="#ffffff"></path><g id="SvgjsG1152"><text id="SvgjsText1153" font-family="微软雅黑" text-anchor="middle" font-size="13px" width="151px" fill="#323232" font-weight="400" align="middle" anchor="middle" family="微软雅黑" size="13px" weight="400" font-style="" opacity="1" y="22.05" transform="rotate(0)"></text></g></g><g id="SvgjsG1154" transform="translate(335,81)"><path id="SvgjsPath1155" d="M 0 0L 74 0L 74 32L 0 32Z" stroke="none" fill="none"></path><g id="SvgjsG1156"><text id="SvgjsText1157" font-family="微软雅黑" text-anchor="middle" font-size="13px" width="74px" fill="#323232" font-weight="400" align="middle" anchor="middle" family="微软雅黑" size="13px" weight="400" font-style="" opacity="1" y="6.05" transform="rotate(0)"><tspan id="SvgjsTspan1158" dy="16" x="37"><tspan id="SvgjsTspan1159" style="text-decoration:;">writefd</tspan></tspan></text></g></g><g id="SvgjsG1160" transform="translate(432,80)"><path id="SvgjsPath1161" d="M 0 0L 74 0L 74 32L 0 32Z" stroke="none" fill="none"></path><g id="SvgjsG1162"><text id="SvgjsText1163" font-family="微软雅黑" text-anchor="middle" font-size="13px" width="74px" fill="#323232" font-weight="400" align="middle" anchor="middle" family="微软雅黑" size="13px" weight="400" font-style="" opacity="1" y="6.05" transform="rotate(0)"><tspan id="SvgjsTspan1164" dy="16" x="37"><tspan id="SvgjsTspan1165" style="text-decoration:;">readfd</tspan></tspan></text></g></g><g id="SvgjsG1166"><path id="SvgjsPath1167" d="M224 152L435 152L435 152L646 152" stroke-dasharray="8,5" stroke="#323232" stroke-width="2" fill="none" marker-end="url(#SvgjsMarker1168)"></path></g><g id="SvgjsG1170" transform="translate(335,183)"><path id="SvgjsPath1171" d="M 0 0L 171 0L 171 36L 0 36Z" stroke="rgba(50,50,50,1)" stroke-width="2" fill-opacity="1" fill="#ffffff"></path><g id="SvgjsG1172"><text id="SvgjsText1173" font-family="微软雅黑" text-anchor="middle" font-size="13px" width="151px" fill="#323232" font-weight="400" align="middle" anchor="middle" family="微软雅黑" size="13px" weight="400" font-style="" opacity="1" y="8.05" transform="rotate(0)"><tspan id="SvgjsTspan1174" dy="16" x="85.5"><tspan id="SvgjsTspan1175" style="text-decoration:;">管道</tspan></tspan></text></g></g><g id="SvgjsG1176"><path id="SvgjsPath1177" d="M335 97L305 97L305 201L335 201" stroke="#323232" stroke-width="2" fill="none" marker-end="url(#SvgjsMarker1178)"></path></g><g id="SvgjsG1180"><path id="SvgjsPath1181" d="M506 201L536 201L536 96L506 96" stroke="#323232" stroke-width="2" fill="none" marker-end="url(#SvgjsMarker1182)"></path></g><g id="SvgjsG1184" transform="translate(360.5,25)"><path id="SvgjsPath1185" d="M 0 0L 120 0L 120 40L 0 40Z" stroke="none" fill="none"></path><g id="SvgjsG1186"><text id="SvgjsText1187" font-family="微软雅黑" text-anchor="middle" font-size="13px" width="120px" fill="#323232" font-weight="400" align="middle" anchor="middle" family="微软雅黑" size="13px" weight="400" font-style="" opacity="1" y="10.05" transform="rotate(0)"><tspan id="SvgjsTspan1188" dy="16" x="60"><tspan id="SvgjsTspan1189" style="text-decoration:;">父进程</tspan></tspan></text></g></g><g id="SvgjsG1190" transform="translate(179,112)"><path id="SvgjsPath1191" d="M 0 0L 120 0L 120 40L 0 40Z" stroke="none" fill="none"></path><g id="SvgjsG1192"><text id="SvgjsText1193" font-family="微软雅黑" text-anchor="middle" font-size="13px" width="120px" fill="#323232" font-weight="400" align="middle" anchor="middle" family="微软雅黑" size="13px" weight="400" font-style="" opacity="1" y="10.05" transform="rotate(0)"><tspan id="SvgjsTspan1194" dy="16" x="60"><tspan id="SvgjsTspan1195" style="text-decoration:;">进程</tspan></tspan></text></g></g><g id="SvgjsG1196" transform="translate(179,152)"><path id="SvgjsPath1197" d="M 0 0L 120 0L 120 40L 0 40Z" stroke="none" fill="none"></path><g id="SvgjsG1198"><text id="SvgjsText1199" font-family="微软雅黑" text-anchor="middle" font-size="13px" width="120px" fill="#323232" font-weight="400" align="middle" anchor="middle" family="微软雅黑" size="13px" weight="400" font-style="" opacity="1" y="10.05" transform="rotate(0)"><tspan id="SvgjsTspan1200" dy="16" x="60"><tspan id="SvgjsTspan1201" style="text-decoration:;">内核</tspan></tspan></text></g></g><g id="SvgjsG1202" transform="translate(181,336)"><path id="SvgjsPath1203" d="M 0 0L 171 0L 171 64L 0 64Z" stroke="rgba(50,50,50,1)" stroke-width="2" fill-opacity="1" fill="#ffffff"></path><g id="SvgjsG1204"><text id="SvgjsText1205" font-family="微软雅黑" text-anchor="middle" font-size="13px" width="151px" fill="#323232" font-weight="400" align="middle" anchor="middle" family="微软雅黑" size="13px" weight="400" font-style="" opacity="1" y="22.05" transform="rotate(0)"></text></g></g><g id="SvgjsG1206" transform="translate(181,352)"><path id="SvgjsPath1207" d="M 0 0L 74 0L 74 32L 0 32Z" stroke="none" fill="none"></path><g id="SvgjsG1208"><text id="SvgjsText1209" font-family="微软雅黑" text-anchor="middle" font-size="13px" width="74px" fill="#323232" font-weight="400" align="middle" anchor="middle" family="微软雅黑" size="13px" weight="400" font-style="" opacity="1" y="6.05" transform="rotate(0)"><tspan id="SvgjsTspan1210" dy="16" x="37"><tspan id="SvgjsTspan1211" style="text-decoration:;">writefd</tspan></tspan></text></g></g><g id="SvgjsG1212" transform="translate(278,352)"><path id="SvgjsPath1213" d="M 0 0L 74 0L 74 32L 0 32Z" stroke="none" fill="none"></path><g id="SvgjsG1214"><text id="SvgjsText1215" font-family="微软雅黑" text-anchor="middle" font-size="13px" width="74px" fill="#323232" font-weight="400" align="middle" anchor="middle" family="微软雅黑" size="13px" weight="400" font-style="" opacity="1" y="6.05" transform="rotate(0)"><tspan id="SvgjsTspan1216" dy="16" x="37"><tspan id="SvgjsTspan1217" style="text-decoration:;">readfd</tspan></tspan></text></g></g><g id="SvgjsG1218"><path id="SvgjsPath1219" d="M70 423L389.5 423L389.5 423L709 423" stroke-dasharray="8,5" stroke="#323232" stroke-width="2" fill="none" marker-end="url(#SvgjsMarker1220)"></path></g><g id="SvgjsG1222" transform="translate(329.5,536)"><path id="SvgjsPath1223" d="M 0 0L 171 0L 171 36L 0 36Z" stroke="rgba(50,50,50,1)" stroke-width="2" fill-opacity="1" fill="#ffffff"></path><g id="SvgjsG1224"><text id="SvgjsText1225" font-family="微软雅黑" text-anchor="middle" font-size="13px" width="151px" fill="#323232" font-weight="400" align="middle" anchor="middle" family="微软雅黑" size="13px" weight="400" font-style="" opacity="1" y="8.05" transform="rotate(0)"><tspan id="SvgjsTspan1226" dy="16" x="85.5"><tspan id="SvgjsTspan1227" style="text-decoration:;">管道</tspan></tspan></text></g></g><g id="SvgjsG1228"><path id="SvgjsPath1229" d="M181 368L151 368L151 554L329.5 554" stroke="#323232" stroke-width="2" fill="none" marker-end="url(#SvgjsMarker1230)"></path></g><g id="SvgjsG1232" transform="translate(206.5,296)"><path id="SvgjsPath1233" d="M 0 0L 120 0L 120 40L 0 40Z" stroke="none" fill="none"></path><g id="SvgjsG1234"><text id="SvgjsText1235" font-family="微软雅黑" text-anchor="middle" font-size="13px" width="120px" fill="#323232" font-weight="400" align="middle" anchor="middle" family="微软雅黑" size="13px" weight="400" font-style="" opacity="1" y="10.05" transform="rotate(0)"><tspan id="SvgjsTspan1236" dy="16" x="60"><tspan id="SvgjsTspan1237" style="text-decoration:;">父进程</tspan></tspan></text></g></g><g id="SvgjsG1238" transform="translate(25,383)"><path id="SvgjsPath1239" d="M 0 0L 120 0L 120 40L 0 40Z" stroke="none" fill="none"></path><g id="SvgjsG1240"><text id="SvgjsText1241" font-family="微软雅黑" text-anchor="middle" font-size="13px" width="120px" fill="#323232" font-weight="400" align="middle" anchor="middle" family="微软雅黑" size="13px" weight="400" font-style="" opacity="1" y="10.05" transform="rotate(0)"><tspan id="SvgjsTspan1242" dy="16" x="60"><tspan id="SvgjsTspan1243" style="text-decoration:;">进程</tspan></tspan></text></g></g><g id="SvgjsG1244" transform="translate(25,423)"><path id="SvgjsPath1245" d="M 0 0L 120 0L 120 40L 0 40Z" stroke="none" fill="none"></path><g id="SvgjsG1246"><text id="SvgjsText1247" font-family="微软雅黑" text-anchor="middle" font-size="13px" width="120px" fill="#323232" font-weight="400" align="middle" anchor="middle" family="微软雅黑" size="13px" weight="400" font-style="" opacity="1" y="10.05" transform="rotate(0)"><tspan id="SvgjsTspan1248" dy="16" x="60"><tspan id="SvgjsTspan1249" style="text-decoration:;">内核</tspan></tspan></text></g></g><g id="SvgjsG1250" transform="translate(475,336)"><path id="SvgjsPath1251" d="M 0 0L 171 0L 171 64L 0 64Z" stroke="rgba(50,50,50,1)" stroke-width="2" fill-opacity="1" fill="#ffffff"></path><g id="SvgjsG1252"><text id="SvgjsText1253" font-family="微软雅黑" text-anchor="middle" font-size="13px" width="151px" fill="#323232" font-weight="400" align="middle" anchor="middle" family="微软雅黑" size="13px" weight="400" font-style="" opacity="1" y="22.05" transform="rotate(0)"></text></g></g><g id="SvgjsG1254" transform="translate(475,352)"><path id="SvgjsPath1255" d="M 0 0L 74 0L 74 32L 0 32Z" stroke="none" fill="none"></path><g id="SvgjsG1256"><text id="SvgjsText1257" font-family="微软雅黑" text-anchor="middle" font-size="13px" width="74px" fill="#323232" font-weight="400" align="middle" anchor="middle" family="微软雅黑" size="13px" weight="400" font-style="" opacity="1" y="6.05" transform="rotate(0)"><tspan id="SvgjsTspan1258" dy="16" x="37"><tspan id="SvgjsTspan1259" style="text-decoration:;">writefd</tspan></tspan></text></g></g><g id="SvgjsG1260" transform="translate(572,352)"><path id="SvgjsPath1261" d="M 0 0L 74 0L 74 32L 0 32Z" stroke="none" fill="none"></path><g id="SvgjsG1262"><text id="SvgjsText1263" font-family="微软雅黑" text-anchor="middle" font-size="13px" width="74px" fill="#323232" font-weight="400" align="middle" anchor="middle" family="微软雅黑" size="13px" weight="400" font-style="" opacity="1" y="6.05" transform="rotate(0)"><tspan id="SvgjsTspan1264" dy="16" x="37"><tspan id="SvgjsTspan1265" style="text-decoration:;">readfd</tspan></tspan></text></g></g><g id="SvgjsG1266" transform="translate(500.5,296)"><path id="SvgjsPath1267" d="M 0 0L 120 0L 120 40L 0 40Z" stroke="none" fill="none"></path><g id="SvgjsG1268"><text id="SvgjsText1269" font-family="微软雅黑" text-anchor="middle" font-size="13px" width="120px" fill="#323232" font-weight="400" align="middle" anchor="middle" family="微软雅黑" size="13px" weight="400" font-style="" opacity="1" y="10.05" transform="rotate(0)"><tspan id="SvgjsTspan1270" dy="16" x="60"><tspan id="SvgjsTspan1271" style="text-decoration:;">子进程</tspan></tspan></text></g></g><g id="SvgjsG1272"><path id="SvgjsPath1273" d="M500.5 554L676 554L676 368L646 368" stroke="#323232" stroke-width="2" fill="none" marker-end="url(#SvgjsMarker1274)"></path></g><g id="SvgjsG1276"><path id="SvgjsPath1277" d="M378 362L417 362L417 362L456 362" stroke="#323232" stroke-width="2" fill="none" marker-end="url(#SvgjsMarker1278)"></path></g><g id="SvgjsG1280" transform="translate(355,312)"><path id="SvgjsPath1281" d="M 0 0L 120 0L 120 40L 0 40Z" stroke="none" fill="none"></path><g id="SvgjsG1282"><text id="SvgjsText1283" font-family="微软雅黑" text-anchor="middle" font-size="13px" width="120px" fill="#323232" font-weight="400" align="middle" anchor="middle" family="微软雅黑" size="13px" weight="400" font-style="" opacity="1" y="10.05" transform="rotate(0)"><tspan id="SvgjsTspan1284" dy="16" x="60"><tspan id="SvgjsTspan1285" style="text-decoration:;">fork</tspan></tspan></text></g></g><g id="SvgjsG1286" transform="translate(385,243)"><path id="SvgjsPath1287" d="M 19.8 0L 40.2 0L 40.2 35.2L 60 35.2L 30 64L 0 35.2L 19.8 35.2L 19.8 0Z" stroke="rgba(50,50,50,1)" stroke-width="2" fill-opacity="1" fill="#ccffcc"></path><g id="SvgjsG1288"><text id="SvgjsText1289" font-family="微软雅黑" text-anchor="middle" font-size="13px" width="84px" fill="#323232" font-weight="400" align="middle" anchor="middle" family="微软雅黑" size="13px" weight="400" font-style="" opacity="1" y="18.85" transform="rotate(0)"></text></g></g><g id="SvgjsG1290" transform="translate(355,496)"><path id="SvgjsPath1291" d="M 0 0L 120 0L 120 40L 0 40Z" stroke="none" fill="none"></path><g id="SvgjsG1292"><text id="SvgjsText1293" font-family="微软雅黑" text-anchor="middle" font-size="13px" width="120px" fill="#323232" font-weight="400" align="middle" anchor="middle" family="微软雅黑" size="13px" weight="400" font-style="" opacity="1" y="10.05" transform="rotate(0)"><tspan id="SvgjsTspan1294" dy="16" x="60"><tspan id="SvgjsTspan1295" style="text-decoration:;">tmp/fifo.test</tspan></tspan></text></g></g></svg>