<svg id="SvgjsSvg1006" width="754" height="345" xmlns="http://www.w3.org/2000/svg" version="1.1" xmlns:xlink="http://www.w3.org/1999/xlink" xmlns:svgjs="http://svgjs.com/svgjs"><defs id="SvgjsDefs1007"><marker id="SvgjsMarker1106" markerWidth="16" markerHeight="12" refX="16" refY="6" viewBox="0 0 16 12" orient="auto" markerUnits="userSpaceOnUse" stroke-dasharray="0,0"><path id="SvgjsPath1107" d="M0,2 L14,6 L0,11 L0,2" fill="#323232" stroke="#323232" stroke-width="2"></path></marker><marker id="SvgjsMarker1110" markerWidth="16" markerHeight="12" refX="16" refY="6" viewBox="0 0 16 12" orient="auto" markerUnits="userSpaceOnUse" stroke-dasharray="0,0"><path id="SvgjsPath1111" d="M0,2 L14,6 L0,11 L0,2" fill="#323232" stroke="#323232" stroke-width="2"></path></marker><marker id="SvgjsMarker1114" markerWidth="16" markerHeight="12" refX="16" refY="6" viewBox="0 0 16 12" orient="auto" markerUnits="userSpaceOnUse" stroke-dasharray="0,0"><path id="SvgjsPath1115" d="M0,2 L14,6 L0,11 L0,2" fill="#323232" stroke="#323232" stroke-width="2"></path></marker><marker id="SvgjsMarker1118" markerWidth="16" markerHeight="12" refX="16" refY="6" viewBox="0 0 16 12" orient="auto" markerUnits="userSpaceOnUse" stroke-dasharray="0,0"><path id="SvgjsPath1119" d="M0,2 L14,6 L0,11 L0,2" fill="#323232" stroke="#323232" stroke-width="2"></path></marker></defs><g id="SvgjsG1008" transform="translate(410,92)"><path id="SvgjsPath1009" d="M 0 0L 319 0L 319 47L 0 47Z" stroke="rgba(50,50,50,1)" stroke-width="2" fill-opacity="1" fill="#ffcccc"></path><g id="SvgjsG1010"><text id="SvgjsText1011" font-family="微软雅黑" text-anchor="middle" font-size="13px" width="299px" fill="#323232" font-weight="400" align="middle" anchor="middle" family="微软雅黑" size="13px" weight="400" font-style="" opacity="1" y="13.55" transform="rotate(0)"><tspan id="SvgjsTspan1012" dy="16" x="159.5"><tspan id="SvgjsTspan1013" style="text-decoration:;">(20,张三,23,180)</tspan></tspan></text></g></g><g id="SvgjsG1014" transform="translate(410,139)"><path id="SvgjsPath1015" d="M 0 0L 319 0L 319 47L 0 47Z" stroke="rgba(50,50,50,1)" stroke-width="2" fill-opacity="1" fill="#ffcccc"></path><g id="SvgjsG1016"><text id="SvgjsText1017" font-family="微软雅黑" text-anchor="middle" font-size="13px" width="299px" fill="#323232" font-weight="400" align="middle" anchor="middle" family="微软雅黑" size="13px" weight="400" font-style="" opacity="1" y="13.55" transform="rotate(0)"><tspan id="SvgjsTspan1018" dy="16" x="159.5"><tspan id="SvgjsTspan1019" style="text-decoration:;">(40,李四,23,175)</tspan></tspan></text></g></g><g id="SvgjsG1020" transform="translate(410,186)"><path id="SvgjsPath1021" d="M 0 0L 319 0L 319 47L 0 47Z" stroke="rgba(50,50,50,1)" stroke-width="2" fill-opacity="1" fill="#ffcccc"></path><g id="SvgjsG1022"><text id="SvgjsText1023" font-family="微软雅黑" text-anchor="middle" font-size="13px" width="299px" fill="#323232" font-weight="400" align="middle" anchor="middle" family="微软雅黑" size="13px" weight="400" font-style="" opacity="1" y="13.55" transform="rotate(0)"><tspan id="SvgjsTspan1024" dy="16" x="159.5"><tspan id="SvgjsTspan1025" style="text-decoration:;">(50,王五,26,165)</tspan></tspan></text></g></g><g id="SvgjsG1026" transform="translate(410,233)"><path id="SvgjsPath1027" d="M 0 0L 319 0L 319 47L 0 47Z" stroke="rgba(50,50,50,1)" stroke-width="2" fill-opacity="1" fill="#ffcccc"></path><g id="SvgjsG1028"><text id="SvgjsText1029" font-family="微软雅黑" text-anchor="middle" font-size="13px" width="299px" fill="#323232" font-weight="400" align="middle" anchor="middle" family="微软雅黑" size="13px" weight="400" font-style="" opacity="1" y="13.55" transform="rotate(0)"><tspan id="SvgjsTspan1030" dy="16" x="159.5"><tspan id="SvgjsTspan1031" style="text-decoration:;">(60,赵六,23,175)</tspan></tspan></text></g></g><g id="SvgjsG1032" transform="translate(313,92)"><path id="SvgjsPath1033" d="M 0 0L 97 0L 97 47L 0 47Z" stroke="rgba(50,50,50,1)" stroke-width="2" fill-opacity="1" fill="#ffcccc"></path><g id="SvgjsG1034"><text id="SvgjsText1035" font-family="微软雅黑" text-anchor="middle" font-size="13px" width="77px" fill="#323232" font-weight="400" align="middle" anchor="middle" family="微软雅黑" size="13px" weight="400" font-style="" opacity="1" y="13.55" transform="rotate(0)"><tspan id="SvgjsTspan1036" dy="16" x="48.5"><tspan id="SvgjsTspan1037" style="text-decoration:;">0x01</tspan></tspan></text></g></g><g id="SvgjsG1038" transform="translate(313,139)"><path id="SvgjsPath1039" d="M 0 0L 97 0L 97 47L 0 47Z" stroke="rgba(50,50,50,1)" stroke-width="2" fill-opacity="1" fill="#ffcccc"></path><g id="SvgjsG1040"><text id="SvgjsText1041" font-family="微软雅黑" text-anchor="middle" font-size="13px" width="77px" fill="#323232" font-weight="400" align="middle" anchor="middle" family="微软雅黑" size="13px" weight="400" font-style="" opacity="1" y="13.55" transform="rotate(0)"><tspan id="SvgjsTspan1042" dy="16" x="48.5"><tspan id="SvgjsTspan1043" style="text-decoration:;">0x02</tspan></tspan></text></g></g><g id="SvgjsG1044" transform="translate(313,186)"><path id="SvgjsPath1045" d="M 0 0L 97 0L 97 47L 0 47Z" stroke="rgba(50,50,50,1)" stroke-width="2" fill-opacity="1" fill="#ffcccc"></path><g id="SvgjsG1046"><text id="SvgjsText1047" font-family="微软雅黑" text-anchor="middle" font-size="13px" width="77px" fill="#323232" font-weight="400" align="middle" anchor="middle" family="微软雅黑" size="13px" weight="400" font-style="" opacity="1" y="13.55" transform="rotate(0)"><tspan id="SvgjsTspan1048" dy="16" x="48.5"><tspan id="SvgjsTspan1049" style="text-decoration:;">0x03</tspan></tspan></text></g></g><g id="SvgjsG1050" transform="translate(313,233)"><path id="SvgjsPath1051" d="M 0 0L 97 0L 97 47L 0 47Z" stroke="rgba(50,50,50,1)" stroke-width="2" fill-opacity="1" fill="#ffcccc"></path><g id="SvgjsG1052"><text id="SvgjsText1053" font-family="微软雅黑" text-anchor="middle" font-size="13px" width="77px" fill="#323232" font-weight="400" align="middle" anchor="middle" family="微软雅黑" size="13px" weight="400" font-style="" opacity="1" y="13.55" transform="rotate(0)"><tspan id="SvgjsTspan1054" dy="16" x="48.5"><tspan id="SvgjsTspan1055" style="text-decoration:;">0x04</tspan></tspan></text></g></g><g id="SvgjsG1056" transform="translate(122,92)"><path id="SvgjsPath1057" d="M 0 0L 97 0L 97 47L 0 47Z" stroke="rgba(50,50,50,1)" stroke-width="2" fill-opacity="1" fill="#ccffcc"></path><g id="SvgjsG1058"><text id="SvgjsText1059" font-family="微软雅黑" text-anchor="middle" font-size="13px" width="77px" fill="#323232" font-weight="400" align="middle" anchor="middle" family="微软雅黑" size="13px" weight="400" font-style="" opacity="1" y="13.55" transform="rotate(0)"><tspan id="SvgjsTspan1060" dy="16" x="48.5"><tspan id="SvgjsTspan1061" style="text-decoration:;">0x01</tspan></tspan></text></g></g><g id="SvgjsG1062" transform="translate(122,139)"><path id="SvgjsPath1063" d="M 0 0L 97 0L 97 47L 0 47Z" stroke="rgba(50,50,50,1)" stroke-width="2" fill-opacity="1" fill="#ccffcc"></path><g id="SvgjsG1064"><text id="SvgjsText1065" font-family="微软雅黑" text-anchor="middle" font-size="13px" width="77px" fill="#323232" font-weight="400" align="middle" anchor="middle" family="微软雅黑" size="13px" weight="400" font-style="" opacity="1" y="13.55" transform="rotate(0)"><tspan id="SvgjsTspan1066" dy="16" x="48.5"><tspan id="SvgjsTspan1067" style="text-decoration:;">0x02</tspan></tspan></text></g></g><g id="SvgjsG1068" transform="translate(122,186)"><path id="SvgjsPath1069" d="M 0 0L 97 0L 97 47L 0 47Z" stroke="rgba(50,50,50,1)" stroke-width="2" fill-opacity="1" fill="#ccffcc"></path><g id="SvgjsG1070"><text id="SvgjsText1071" font-family="微软雅黑" text-anchor="middle" font-size="13px" width="77px" fill="#323232" font-weight="400" align="middle" anchor="middle" family="微软雅黑" size="13px" weight="400" font-style="" opacity="1" y="13.55" transform="rotate(0)"><tspan id="SvgjsTspan1072" dy="16" x="48.5"><tspan id="SvgjsTspan1073" style="text-decoration:;">0x03</tspan></tspan></text></g></g><g id="SvgjsG1074" transform="translate(122,233)"><path id="SvgjsPath1075" d="M 0 0L 97 0L 97 47L 0 47Z" stroke="rgba(50,50,50,1)" stroke-width="2" fill-opacity="1" fill="#ccffcc"></path><g id="SvgjsG1076"><text id="SvgjsText1077" font-family="微软雅黑" text-anchor="middle" font-size="13px" width="77px" fill="#323232" font-weight="400" align="middle" anchor="middle" family="微软雅黑" size="13px" weight="400" font-style="" opacity="1" y="13.55" transform="rotate(0)"><tspan id="SvgjsTspan1078" dy="16" x="48.5"><tspan id="SvgjsTspan1079" style="text-decoration:;">0x04</tspan></tspan></text></g></g><g id="SvgjsG1080" transform="translate(25,92)"><path id="SvgjsPath1081" d="M 0 0L 97 0L 97 47L 0 47Z" stroke="rgba(50,50,50,1)" stroke-width="2" fill-opacity="1" fill="#ccffcc"></path><g id="SvgjsG1082"><text id="SvgjsText1083" font-family="微软雅黑" text-anchor="middle" font-size="13px" width="77px" fill="#323232" font-weight="400" align="middle" anchor="middle" family="微软雅黑" size="13px" weight="400" font-style="" opacity="1" y="13.55" transform="rotate(0)"><tspan id="SvgjsTspan1084" dy="16" x="48.5"><tspan id="SvgjsTspan1085" style="text-decoration:;">20</tspan></tspan></text></g></g><g id="SvgjsG1086" transform="translate(25,139)"><path id="SvgjsPath1087" d="M 0 0L 97 0L 97 47L 0 47Z" stroke="rgba(50,50,50,1)" stroke-width="2" fill-opacity="1" fill="#ccffcc"></path><g id="SvgjsG1088"><text id="SvgjsText1089" font-family="微软雅黑" text-anchor="middle" font-size="13px" width="77px" fill="#323232" font-weight="400" align="middle" anchor="middle" family="微软雅黑" size="13px" weight="400" font-style="" opacity="1" y="13.55" transform="rotate(0)"><tspan id="SvgjsTspan1090" dy="16" x="48.5"><tspan id="SvgjsTspan1091" style="text-decoration:;">40</tspan></tspan></text></g></g><g id="SvgjsG1092" transform="translate(25,186)"><path id="SvgjsPath1093" d="M 0 0L 97 0L 97 47L 0 47Z" stroke="rgba(50,50,50,1)" stroke-width="2" fill-opacity="1" fill="#ccffcc"></path><g id="SvgjsG1094"><text id="SvgjsText1095" font-family="微软雅黑" text-anchor="middle" font-size="13px" width="77px" fill="#323232" font-weight="400" align="middle" anchor="middle" family="微软雅黑" size="13px" weight="400" font-style="" opacity="1" y="13.55" transform="rotate(0)"><tspan id="SvgjsTspan1096" dy="16" x="48.5"><tspan id="SvgjsTspan1097" style="text-decoration:;">50</tspan></tspan></text></g></g><g id="SvgjsG1098" transform="translate(25,233)"><path id="SvgjsPath1099" d="M 0 0L 97 0L 97 47L 0 47Z" stroke="rgba(50,50,50,1)" stroke-width="2" fill-opacity="1" fill="#ccffcc"></path><g id="SvgjsG1100"><text id="SvgjsText1101" font-family="微软雅黑" text-anchor="middle" font-size="13px" width="77px" fill="#323232" font-weight="400" align="middle" anchor="middle" family="微软雅黑" size="13px" weight="400" font-style="" opacity="1" y="13.55" transform="rotate(0)"><tspan id="SvgjsTspan1102" dy="16" x="48.5"><tspan id="SvgjsTspan1103" style="text-decoration:;">60</tspan></tspan></text></g></g><g id="SvgjsG1104"><path id="SvgjsPath1105" d="M219 115.5L266 115.5L266 115.5L313 115.5" stroke="#323232" stroke-width="2" fill="none" marker-end="url(#SvgjsMarker1106)"></path></g><g id="SvgjsG1108"><path id="SvgjsPath1109" d="M219 162.5L266 162.5L266 162.5L313 162.5" stroke="#323232" stroke-width="2" fill="none" marker-end="url(#SvgjsMarker1110)"></path></g><g id="SvgjsG1112"><path id="SvgjsPath1113" d="M219 209.5L266 209.5L266 209.5L313 209.5" stroke="#323232" stroke-width="2" fill="none" marker-end="url(#SvgjsMarker1114)"></path></g><g id="SvgjsG1116"><path id="SvgjsPath1117" d="M219 256.5L266 256.5L266 256.5L313 256.5" stroke="#323232" stroke-width="2" fill="none" marker-end="url(#SvgjsMarker1118)"></path></g><g id="SvgjsG1120" transform="translate(62,25)"><path id="SvgjsPath1121" d="M 0 0L 120 0L 120 40L 0 40Z" stroke="none" fill="none"></path><g id="SvgjsG1122"><text id="SvgjsText1123" font-family="微软雅黑" text-anchor="middle" font-size="18px" width="120px" fill="#323232" font-weight="700" align="middle" anchor="middle" family="微软雅黑" size="18px" weight="700" font-style="" opacity="1" y="5.800000000000001" transform="rotate(0)"><tspan id="SvgjsTspan1124" dy="22" x="60"><tspan id="SvgjsTspan1125" style="text-decoration:;">索引</tspan></tspan></text></g></g><g id="SvgjsG1126" transform="translate(469,25)"><path id="SvgjsPath1127" d="M 0 0L 120 0L 120 40L 0 40Z" stroke="none" fill="none"></path><g id="SvgjsG1128"><text id="SvgjsText1129" font-family="微软雅黑" text-anchor="middle" font-size="18px" width="120px" fill="#323232" font-weight="700" align="middle" anchor="middle" family="微软雅黑" size="18px" weight="700" font-style="" opacity="1" y="5.800000000000001" transform="rotate(0)"><tspan id="SvgjsTspan1130" dy="22" x="60"><tspan id="SvgjsTspan1131" style="text-decoration:;">数据</tspan></tspan></text></g></g><g id="SvgjsG1132" transform="translate(110.5,280)"><path id="SvgjsPath1133" d="M 0 0L 120 0L 120 40L 0 40Z" stroke="none" fill="none"></path><g id="SvgjsG1134"><text id="SvgjsText1135" font-family="微软雅黑" text-anchor="middle" font-size="13px" width="120px" fill="#323232" font-weight="400" align="middle" anchor="middle" family="微软雅黑" size="13px" weight="400" font-style="" opacity="1" y="10.05" transform="rotate(0)"><tspan id="SvgjsTspan1136" dy="16" x="60"><tspan id="SvgjsTspan1137" style="text-decoration:;">地址</tspan></tspan></text></g></g></svg>