<svg id="SvgjsSvg1387" width="763" height="404" xmlns="http://www.w3.org/2000/svg" version="1.1" xmlns:xlink="http://www.w3.org/1999/xlink" xmlns:svgjs="http://svgjs.com/svgjs"><defs id="SvgjsDefs1388"><marker id="SvgjsMarker1423" markerWidth="16" markerHeight="12" refX="16" refY="6" viewBox="0 0 16 12" orient="auto" markerUnits="userSpaceOnUse" stroke-dasharray="0,0"><path id="SvgjsPath1424" d="M0,2 L14,6 L0,11 L0,2" fill="#323232" stroke="#323232" stroke-width="2"></path></marker><marker id="SvgjsMarker1427" markerWidth="16" markerHeight="12" refX="16" refY="6" viewBox="0 0 16 12" orient="auto" markerUnits="userSpaceOnUse" stroke-dasharray="0,0"><path id="SvgjsPath1428" d="M0,2 L14,6 L0,11 L0,2" fill="#323232" stroke="#323232" stroke-width="2"></path></marker><marker id="SvgjsMarker1486" markerWidth="16" markerHeight="12" refX="16" refY="6" viewBox="0 0 16 12" orient="auto" markerUnits="userSpaceOnUse" stroke-dasharray="0,0"><path id="SvgjsPath1487" d="M0,2 L14,6 L0,11 L0,2" fill="#323232" stroke="#323232" stroke-width="2"></path></marker><marker id="SvgjsMarker1496" markerWidth="16" markerHeight="12" refX="16" refY="6" viewBox="0 0 16 12" orient="auto" markerUnits="userSpaceOnUse" stroke-dasharray="0,0"><path id="SvgjsPath1497" d="M0,2 L14,6 L0,11 L0,2" fill="#323232" stroke="#323232" stroke-width="2"></path></marker><marker id="SvgjsMarker1506" markerWidth="16" markerHeight="12" refX="16" refY="6" viewBox="0 0 16 12" orient="auto" markerUnits="userSpaceOnUse" stroke-dasharray="0,0"><path id="SvgjsPath1507" d="M0,2 L14,6 L0,11 L0,2" fill="#323232" stroke="#323232" stroke-width="2"></path></marker><marker id="SvgjsMarker1516" markerWidth="16" markerHeight="12" refX="16" refY="6" viewBox="0 0 16 12" orient="auto" markerUnits="userSpaceOnUse" stroke-dasharray="0,0"><path id="SvgjsPath1517" d="M0,2 L14,6 L0,11 L0,2" fill="#323232" stroke="#323232" stroke-width="2"></path></marker></defs><g id="SvgjsG1389" transform="translate(165,78)"><path id="SvgjsPath1390" d="M 0 0L 74 0L 74 36L 0 36Z" stroke="none" fill="none"></path><g id="SvgjsG1391"><text id="SvgjsText1392" font-family="微软雅黑" text-anchor="middle" font-size="13px" width="74px" fill="#323232" font-weight="400" align="middle" anchor="middle" family="微软雅黑" size="13px" weight="400" font-style="" opacity="1" y="8.05" transform="rotate(0)"><tspan id="SvgjsTspan1393" dy="16" x="37"><tspan id="SvgjsTspan1394" style="text-decoration:;">select</tspan></tspan></text></g></g><g id="SvgjsG1395" transform="translate(525,78)"><path id="SvgjsPath1396" d="M 0 0L 110 0L 110 36L 0 36Z" stroke="none" fill="none"></path><g id="SvgjsG1397"><text id="SvgjsText1398" font-family="微软雅黑" text-anchor="middle" font-size="13px" width="110px" fill="#323232" font-weight="400" align="middle" anchor="middle" family="微软雅黑" size="13px" weight="400" font-style="" opacity="1" y="8.05" transform="rotate(0)"><tspan id="SvgjsTspan1399" dy="16" x="55"><tspan id="SvgjsTspan1400" style="text-decoration:;">无数据报准备好</tspan></tspan></text></g></g><g id="SvgjsG1401" transform="translate(525,213)"><path id="SvgjsPath1402" d="M 0 0L 110 0L 110 36L 0 36Z" stroke="none" fill="none"></path><g id="SvgjsG1403"><text id="SvgjsText1404" font-family="微软雅黑" text-anchor="middle" font-size="13px" width="110px" fill="#323232" font-weight="400" align="middle" anchor="middle" family="微软雅黑" size="13px" weight="400" font-style="" opacity="1" y="0.050000000000000044" transform="rotate(0)"><tspan id="SvgjsTspan1405" dy="16" x="55"><tspan id="SvgjsTspan1406" style="text-decoration:;">数据报准备好</tspan></tspan><tspan id="SvgjsTspan1407" dy="16" x="55"><tspan id="SvgjsTspan1408" style="text-decoration:;">复制数据报</tspan></tspan></text></g></g><g id="SvgjsG1409" transform="translate(525,343)"><path id="SvgjsPath1410" d="M 0 0L 110 0L 110 36L 0 36Z" stroke="none" fill="none"></path><g id="SvgjsG1411"><text id="SvgjsText1412" font-family="微软雅黑" text-anchor="middle" font-size="13px" width="110px" fill="#323232" font-weight="400" align="middle" anchor="middle" family="微软雅黑" size="13px" weight="400" font-style="" opacity="1" y="8.05" transform="rotate(0)"><tspan id="SvgjsTspan1413" dy="16" x="55"><tspan id="SvgjsTspan1414" style="text-decoration:;">复制完成</tspan></tspan></text></g></g><g id="SvgjsG1415" transform="translate(147,343)"><path id="SvgjsPath1416" d="M 0 0L 110 0L 110 36L 0 36Z" stroke="none" fill="none"></path><g id="SvgjsG1417"><text id="SvgjsText1418" font-family="微软雅黑" text-anchor="middle" font-size="13px" width="110px" fill="#323232" font-weight="400" align="middle" anchor="middle" family="微软雅黑" size="13px" weight="400" font-style="" opacity="1" y="8.05" transform="rotate(0)"><tspan id="SvgjsTspan1419" dy="16" x="55"><tspan id="SvgjsTspan1420" style="text-decoration:;">处理数据报</tspan></tspan></text></g></g><g id="SvgjsG1421"><path id="SvgjsPath1422" d="M287 96L384.5 96L384.5 96L482 96" stroke="#323232" stroke-width="2" fill="none" marker-end="url(#SvgjsMarker1423)"></path></g><g id="SvgjsG1425"><path id="SvgjsPath1426" d="M488 358L385 358L385 358L282 358" stroke="#323232" stroke-width="2" fill="none" marker-end="url(#SvgjsMarker1427)"></path></g><g id="SvgjsG1429" transform="translate(327,58)"><path id="SvgjsPath1430" d="M 0 0L 110 0L 110 36L 0 36Z" stroke="none" fill="none"></path><g id="SvgjsG1431"><text id="SvgjsText1432" font-family="微软雅黑" text-anchor="middle" font-size="13px" width="110px" fill="#323232" font-weight="400" align="middle" anchor="middle" family="微软雅黑" size="13px" weight="400" font-style="" opacity="1" y="8.05" transform="rotate(0)"><tspan id="SvgjsTspan1433" dy="16" x="55"><tspan id="SvgjsTspan1434" style="text-decoration:;">系统调用</tspan></tspan></text></g></g><g id="SvgjsG1435" transform="translate(327,323)"><path id="SvgjsPath1436" d="M 0 0L 110 0L 110 36L 0 36Z" stroke="none" fill="none"></path><g id="SvgjsG1437"><text id="SvgjsText1438" font-family="微软雅黑" text-anchor="middle" font-size="13px" width="110px" fill="#323232" font-weight="400" align="middle" anchor="middle" family="微软雅黑" size="13px" weight="400" font-style="" opacity="1" y="8.05" transform="rotate(0)"><tspan id="SvgjsTspan1439" dy="16" x="55"><tspan id="SvgjsTspan1440" style="text-decoration:;">返回成功指示</tspan></tspan></text></g></g><g id="SvgjsG1441" transform="translate(165,25)"><path id="SvgjsPath1442" d="M 0 0L 74 0L 74 36L 0 36Z" stroke="none" fill="none"></path><g id="SvgjsG1443"><text id="SvgjsText1444" font-family="微软雅黑" text-anchor="middle" font-size="13px" width="74px" fill="#323232" font-weight="700" align="middle" anchor="middle" family="微软雅黑" size="13px" weight="700" font-style="" opacity="1" y="8.05" transform="rotate(0)"><tspan id="SvgjsTspan1445" dy="16" x="37"><tspan id="SvgjsTspan1446" style="text-decoration:;">应用进程</tspan></tspan></text></g></g><g id="SvgjsG1447" transform="translate(543,29)"><path id="SvgjsPath1448" d="M 0 0L 74 0L 74 36L 0 36Z" stroke="none" fill="none"></path><g id="SvgjsG1449"><text id="SvgjsText1450" font-family="微软雅黑" text-anchor="middle" font-size="13px" width="74px" fill="#323232" font-weight="700" align="middle" anchor="middle" family="微软雅黑" size="13px" weight="700" font-style="" opacity="1" y="8.05" transform="rotate(0)"><tspan id="SvgjsTspan1451" dy="16" x="37"><tspan id="SvgjsTspan1452" style="text-decoration:;">内核</tspan></tspan></text></g></g><g id="SvgjsG1453" transform="translate(25,94)"><path id="SvgjsPath1454" d="M 136 0Q 127 0 127 9L 127 123.5Q 127 132.5 114 132.5Q 127 132.5 127 141.5L 127 256Q 127 265 136 265" stroke="rgba(50,50,50,1)" stroke-width="2" fill="none"></path><path id="SvgjsPath1455" d="M 0 0L 136 0L 136 265L 0 265Z" stroke="none" fill="none"></path><g id="SvgjsG1456"><text id="SvgjsText1457" font-family="微软雅黑" text-anchor="middle" font-size="13px" width="109px" fill="#323232" font-weight="400" align="middle" anchor="middle" family="微软雅黑" size="13px" weight="400" font-style="" opacity="1" y="98.55" transform="rotate(0)"><tspan id="SvgjsTspan1458" dy="16" x="54.5"><tspan id="SvgjsTspan1459" style="text-decoration:;">进程受阻于select</tspan></tspan><tspan id="SvgjsTspan1460" dy="16" x="54.5"><tspan id="SvgjsTspan1461" style="text-decoration:;">调用，等待可能多</tspan></tspan><tspan id="SvgjsTspan1462" dy="16" x="54.5"><tspan id="SvgjsTspan1463" style="text-decoration:;">个套接字中的任一</tspan></tspan><tspan id="SvgjsTspan1464" dy="16" x="54.5"><tspan id="SvgjsTspan1465" style="text-decoration:;">个变为可读</tspan></tspan></text></g></g><g id="SvgjsG1466" transform="translate(638,94)"><path id="SvgjsPath1467" d="M 0 140Q 9 140 9 131L 9 79Q 9 70 22 70Q 9 70 9 61L 9 9Q 9 0 0 0" stroke="rgba(50,50,50,1)" stroke-width="2" fill="none"></path><path id="SvgjsPath1468" d="M 0 0L 100 0L 100 140L 0 140Z" stroke="none" fill="none"></path><g id="SvgjsG1469"><text id="SvgjsText1470" font-family="微软雅黑" text-anchor="middle" font-size="13px" width="73px" fill="#323232" font-weight="400" align="middle" anchor="middle" family="微软雅黑" size="13px" weight="400" font-style="" opacity="1" y="60.05" transform="rotate(0)"><tspan id="SvgjsTspan1471" dy="16" x="63.5"><tspan id="SvgjsTspan1472" style="text-decoration:;">等待数据</tspan></tspan></text></g></g><g id="SvgjsG1473" transform="translate(638,234)"><path id="SvgjsPath1474" d="M 0 129Q 9 129 9 120L 9 73.5Q 9 64.5 22 64.5Q 9 64.5 9 55.5L 9 9Q 9 0 0 0" stroke="rgba(50,50,50,1)" stroke-width="2" fill="none"></path><path id="SvgjsPath1475" d="M 0 0L 100 0L 100 129L 0 129Z" stroke="none" fill="none"></path><g id="SvgjsG1476"><text id="SvgjsText1477" font-family="微软雅黑" text-anchor="middle" font-size="13px" width="73px" fill="#323232" font-weight="400" align="middle" anchor="middle" family="微软雅黑" size="13px" weight="400" font-style="" opacity="1" y="38.55" transform="rotate(0)"><tspan id="SvgjsTspan1478" dy="16" x="63.5"><tspan id="SvgjsTspan1479" style="text-decoration:;">将数据从内</tspan></tspan><tspan id="SvgjsTspan1480" dy="16" x="63.5"><tspan id="SvgjsTspan1481" style="text-decoration:;">核复制到数</tspan></tspan><tspan id="SvgjsTspan1482" dy="16" x="63.5"><tspan id="SvgjsTspan1483" style="text-decoration:;">据空间</tspan></tspan></text></g></g><g id="SvgjsG1484"><path id="SvgjsPath1485" d="M580 250L580 296.5L580 296.5L580 343" stroke="#323232" stroke-width="2" fill="none" marker-end="url(#SvgjsMarker1486)"></path></g><g id="SvgjsG1488" transform="translate(165,213)"><path id="SvgjsPath1489" d="M 0 0L 74 0L 74 36L 0 36Z" stroke="none" fill="none"></path><g id="SvgjsG1490"><text id="SvgjsText1491" font-family="微软雅黑" text-anchor="middle" font-size="13px" width="74px" fill="#323232" font-weight="400" align="middle" anchor="middle" family="微软雅黑" size="13px" weight="400" font-style="" opacity="1" y="8.05" transform="rotate(0)"><tspan id="SvgjsTspan1492" dy="16" x="37"><tspan id="SvgjsTspan1493" style="text-decoration:;">recvfrom</tspan></tspan></text></g></g><g id="SvgjsG1494"><path id="SvgjsPath1495" d="M284.5 240.5L382 240.5L382 240.5L479.5 240.5" stroke="#323232" stroke-width="2" fill="none" marker-end="url(#SvgjsMarker1496)"></path></g><g id="SvgjsG1498" transform="translate(319.5,240.5)"><path id="SvgjsPath1499" d="M 0 0L 110 0L 110 36L 0 36Z" stroke="none" fill="none"></path><g id="SvgjsG1500"><text id="SvgjsText1501" font-family="微软雅黑" text-anchor="middle" font-size="13px" width="110px" fill="#323232" font-weight="400" align="middle" anchor="middle" family="微软雅黑" size="13px" weight="400" font-style="" opacity="1" y="8.05" transform="rotate(0)"><tspan id="SvgjsTspan1502" dy="16" x="55"><tspan id="SvgjsTspan1503" style="text-decoration:;">系统调用</tspan></tspan></text></g></g><g id="SvgjsG1504"><path id="SvgjsPath1505" d="M477 219L381.5 219L381.5 219L286 219" stroke="#323232" stroke-width="2" fill="none" marker-end="url(#SvgjsMarker1506)"></path></g><g id="SvgjsG1508" transform="translate(324,181)"><path id="SvgjsPath1509" d="M 0 0L 110 0L 110 36L 0 36Z" stroke="none" fill="none"></path><g id="SvgjsG1510"><text id="SvgjsText1511" font-family="微软雅黑" text-anchor="middle" font-size="13px" width="110px" fill="#323232" font-weight="400" align="middle" anchor="middle" family="微软雅黑" size="13px" weight="400" font-style="" opacity="1" y="8.05" transform="rotate(0)"><tspan id="SvgjsTspan1512" dy="16" x="55"><tspan id="SvgjsTspan1513" style="text-decoration:;">返回可读条件</tspan></tspan></text></g></g><g id="SvgjsG1514"><path id="SvgjsPath1515" d="M580 114L580 163.5L580 163.5L580 213" stroke="#323232" stroke-width="2" fill="none" marker-end="url(#SvgjsMarker1516)"></path></g></svg>