<svg id="SvgjsSvg1006" width="670" height="477" xmlns="http://www.w3.org/2000/svg" version="1.1" xmlns:xlink="http://www.w3.org/1999/xlink" xmlns:svgjs="http://svgjs.com/svgjs"><defs id="SvgjsDefs1007"><marker id="SvgjsMarker1112" markerWidth="16" markerHeight="12" refX="16" refY="6" viewBox="0 0 16 12" orient="auto" markerUnits="userSpaceOnUse" stroke-dasharray="0,0"><path id="SvgjsPath1113" d="M0,2 L14,6 L0,11 L0,2" fill="#323232" stroke="#323232" stroke-width="2"></path></marker><marker id="SvgjsMarker1158" markerWidth="16" markerHeight="12" refX="16" refY="6" viewBox="0 0 16 12" orient="auto" markerUnits="userSpaceOnUse" stroke-dasharray="0,0"><path id="SvgjsPath1159" d="M0,2 L14,6 L0,11 L0,2" fill="#323232" stroke="#323232" stroke-width="2"></path></marker><marker id="SvgjsMarker1176" markerWidth="16" markerHeight="12" refX="16" refY="6" viewBox="0 0 16 12" orient="auto" markerUnits="userSpaceOnUse" stroke-dasharray="0,0"><path id="SvgjsPath1177" d="M0,2 L14,6 L0,11 L0,2" fill="#323232" stroke="#323232" stroke-width="2"></path></marker><marker id="SvgjsMarker1186" markerWidth="16" markerHeight="12" refX="16" refY="6" viewBox="0 0 16 12" orient="auto" markerUnits="userSpaceOnUse" stroke-dasharray="0,0"><path id="SvgjsPath1187" d="M0,2 L14,6 L0,11 L0,2" fill="#323232" stroke="#323232" stroke-width="2"></path></marker><marker id="SvgjsMarker1204" markerWidth="16" markerHeight="12" refX="16" refY="6" viewBox="0 0 16 12" orient="auto" markerUnits="userSpaceOnUse" stroke-dasharray="0,0"><path id="SvgjsPath1205" d="M0,2 L14,6 L0,11 L0,2" fill="#323232" stroke="#323232" stroke-width="2"></path></marker></defs><g id="SvgjsG1008" transform="translate(550,78)"><path id="SvgjsPath1009" d="M 0 195Q 9 195 9 186L 9 106.5Q 9 97.5 22 97.5Q 9 97.5 9 88.5L 9 9Q 9 0 0 0" stroke="rgba(50,50,50,1)" stroke-width="2" fill="none"></path><path id="SvgjsPath1010" d="M 0 0L 95 0L 95 195L 0 195Z" stroke="none" fill="none"></path><g id="SvgjsG1011"><text id="SvgjsText1012" font-family="微软雅黑" text-anchor="start" font-size="13px" width="68px" fill="#323232" font-weight="400" align="middle" anchor="start" family="微软雅黑" size="13px" weight="400" font-style="" opacity="1" y="87.55" transform="rotate(0)"><tspan id="SvgjsTspan1013" dy="16" x="27"><tspan id="SvgjsTspan1014" style="text-decoration:;">等待数据</tspan></tspan></text></g></g><g id="SvgjsG1015" transform="translate(550,283)"><path id="SvgjsPath1016" d="M 0 157Q 9 157 9 148L 9 87.5Q 9 78.5 22 78.5Q 9 78.5 9 69.5L 9 9Q 9 0 0 0" stroke="rgba(50,50,50,1)" stroke-width="2" fill="none"></path><path id="SvgjsPath1017" d="M 0 0L 95 0L 95 157L 0 157Z" stroke="none" fill="none"></path><g id="SvgjsG1018"><text id="SvgjsText1019" font-family="微软雅黑" text-anchor="start" font-size="13px" width="68px" fill="#323232" font-weight="400" align="middle" anchor="start" family="微软雅黑" size="13px" weight="400" font-style="" opacity="1" y="52.55" transform="rotate(0)"><tspan id="SvgjsTspan1020" dy="16" x="27"><tspan id="SvgjsTspan1021" style="text-decoration:;">将数据从内</tspan></tspan><tspan id="SvgjsTspan1022" dy="16" x="27"><tspan id="SvgjsTspan1023" style="text-decoration:;">核复制到用</tspan></tspan><tspan id="SvgjsTspan1024" dy="16" x="27"><tspan id="SvgjsTspan1025" style="text-decoration:;">户空间</tspan></tspan></text></g></g><g id="SvgjsG1026" transform="translate(426,25)"><path id="SvgjsPath1027" d="M 0 0L 101 0L 101 34L 0 34Z" stroke="none" fill="none"></path><g id="SvgjsG1028"><text id="SvgjsText1029" font-family="微软雅黑" text-anchor="middle" font-size="13px" width="101px" fill="#323232" font-weight="700" align="middle" anchor="middle" family="微软雅黑" size="13px" weight="700" font-style="" opacity="1" y="7.05" transform="rotate(0)"><tspan id="SvgjsTspan1030" dy="16" x="50.5"><tspan id="SvgjsTspan1031" style="text-decoration:;">异步I/O</tspan></tspan></text></g></g><g id="SvgjsG1032" transform="translate(340,25)"><path id="SvgjsPath1033" d="M 0 0L 101 0L 101 34L 0 34Z" stroke="none" fill="none"></path><g id="SvgjsG1034"><text id="SvgjsText1035" font-family="微软雅黑" text-anchor="middle" font-size="13px" width="101px" fill="#323232" font-weight="700" align="middle" anchor="middle" family="微软雅黑" size="13px" weight="700" font-style="" opacity="1" y="7.05" transform="rotate(0)"><tspan id="SvgjsTspan1036" dy="16" x="50.5"><tspan id="SvgjsTspan1037" style="text-decoration:;">信号驱动式I/O</tspan></tspan></text></g></g><g id="SvgjsG1038" transform="translate(237,25)"><path id="SvgjsPath1039" d="M 0 0L 101 0L 101 34L 0 34Z" stroke="none" fill="none"></path><g id="SvgjsG1040"><text id="SvgjsText1041" font-family="微软雅黑" text-anchor="middle" font-size="13px" width="101px" fill="#323232" font-weight="700" align="middle" anchor="middle" family="微软雅黑" size="13px" weight="700" font-style="" opacity="1" y="7.05" transform="rotate(0)"><tspan id="SvgjsTspan1042" dy="16" x="50.5"><tspan id="SvgjsTspan1043" style="text-decoration:;">I/O复用</tspan></tspan></text></g></g><g id="SvgjsG1044" transform="translate(136,25)"><path id="SvgjsPath1045" d="M 0 0L 101 0L 101 34L 0 34Z" stroke="none" fill="none"></path><g id="SvgjsG1046"><text id="SvgjsText1047" font-family="微软雅黑" text-anchor="middle" font-size="13px" width="101px" fill="#323232" font-weight="700" align="middle" anchor="middle" family="微软雅黑" size="13px" weight="700" font-style="" opacity="1" y="7.05" transform="rotate(0)"><tspan id="SvgjsTspan1048" dy="16" x="50.5"><tspan id="SvgjsTspan1049" style="text-decoration:;">非阻塞式I/O</tspan></tspan></text></g></g><g id="SvgjsG1050" transform="translate(29,25)"><path id="SvgjsPath1051" d="M 0 0L 101 0L 101 34L 0 34Z" stroke="none" fill="none"></path><g id="SvgjsG1052"><text id="SvgjsText1053" font-family="微软雅黑" text-anchor="middle" font-size="13px" width="101px" fill="#323232" font-weight="700" align="middle" anchor="middle" family="微软雅黑" size="13px" weight="700" font-style="" opacity="1" y="7.05" transform="rotate(0)"><tspan id="SvgjsTspan1054" dy="16" x="50.5"><tspan id="SvgjsTspan1055" style="text-decoration:;">阻塞式I/O</tspan></tspan></text></g></g><g id="SvgjsG1056" transform="translate(436.75,63)"><path id="SvgjsPath1057" d="M 0 0L 79.5 0L 79.5 33L 0 33Z" stroke="none" fill="none"></path><g id="SvgjsG1058"><text id="SvgjsText1059" font-family="微软雅黑" text-anchor="middle" font-size="13px" width="80px" fill="#323232" font-weight="400" align="middle" anchor="middle" family="微软雅黑" size="13px" weight="400" font-style="" opacity="1" y="6.55" transform="rotate(0)"><tspan id="SvgjsTspan1060" dy="16" x="40"><tspan id="SvgjsTspan1061" style="text-decoration:;">发起</tspan></tspan></text></g></g><g id="SvgjsG1062" transform="translate(247.75,63)"><path id="SvgjsPath1063" d="M 0 0L 79.5 0L 79.5 33L 0 33Z" stroke="none" fill="none"></path><g id="SvgjsG1064"><text id="SvgjsText1065" font-family="微软雅黑" text-anchor="middle" font-size="13px" width="80px" fill="#323232" font-weight="400" align="middle" anchor="middle" family="微软雅黑" size="13px" weight="400" font-style="" opacity="1" y="6.55" transform="rotate(0)"><tspan id="SvgjsTspan1066" dy="16" x="40"><tspan id="SvgjsTspan1067" style="text-decoration:;">检查</tspan></tspan></text></g></g><g id="SvgjsG1068" transform="translate(146.75,63)"><path id="SvgjsPath1069" d="M 0 0L 79.5 0L 79.5 33L 0 33Z" stroke="none" fill="none"></path><g id="SvgjsG1070"><text id="SvgjsText1071" font-family="微软雅黑" text-anchor="middle" font-size="13px" width="80px" fill="#323232" font-weight="400" align="middle" anchor="middle" family="微软雅黑" size="13px" weight="400" font-style="" opacity="1" y="6.55" transform="rotate(0)"><tspan id="SvgjsTspan1072" dy="16" x="40"><tspan id="SvgjsTspan1073" style="text-decoration:;">检查</tspan></tspan></text></g></g><g id="SvgjsG1074" transform="translate(39.75,63)"><path id="SvgjsPath1075" d="M 0 0L 79.5 0L 79.5 33L 0 33Z" stroke="none" fill="none"></path><g id="SvgjsG1076"><text id="SvgjsText1077" font-family="微软雅黑" text-anchor="middle" font-size="13px" width="80px" fill="#323232" font-weight="400" align="middle" anchor="middle" family="微软雅黑" size="13px" weight="400" font-style="" opacity="1" y="6.55" transform="rotate(0)"><tspan id="SvgjsTspan1078" dy="16" x="40"><tspan id="SvgjsTspan1079" style="text-decoration:;">发起</tspan></tspan></text></g></g><g id="SvgjsG1080" transform="translate(436.75,419)"><path id="SvgjsPath1081" d="M 0 0L 79.5 0L 79.5 33L 0 33Z" stroke="none" fill="none"></path><g id="SvgjsG1082"><text id="SvgjsText1083" font-family="微软雅黑" text-anchor="middle" font-size="13px" width="80px" fill="#323232" font-weight="400" align="middle" anchor="middle" family="微软雅黑" size="13px" weight="400" font-style="" opacity="1" y="6.55" transform="rotate(0)"><tspan id="SvgjsTspan1084" dy="16" x="40"><tspan id="SvgjsTspan1085" style="text-decoration:;">通知</tspan></tspan></text></g></g><g id="SvgjsG1086" transform="translate(350.75,419)"><path id="SvgjsPath1087" d="M 0 0L 79.5 0L 79.5 33L 0 33Z" stroke="none" fill="none"></path><g id="SvgjsG1088"><text id="SvgjsText1089" font-family="微软雅黑" text-anchor="middle" font-size="13px" width="80px" fill="#323232" font-weight="400" align="middle" anchor="middle" family="微软雅黑" size="13px" weight="400" font-style="" opacity="1" y="6.55" transform="rotate(0)"><tspan id="SvgjsTspan1090" dy="16" x="40"><tspan id="SvgjsTspan1091" style="text-decoration:;">完成</tspan></tspan></text></g></g><g id="SvgjsG1092" transform="translate(247.75,419)"><path id="SvgjsPath1093" d="M 0 0L 79.5 0L 79.5 33L 0 33Z" stroke="none" fill="none"></path><g id="SvgjsG1094"><text id="SvgjsText1095" font-family="微软雅黑" text-anchor="middle" font-size="13px" width="80px" fill="#323232" font-weight="400" align="middle" anchor="middle" family="微软雅黑" size="13px" weight="400" font-style="" opacity="1" y="6.55" transform="rotate(0)"><tspan id="SvgjsTspan1096" dy="16" x="40"><tspan id="SvgjsTspan1097" style="text-decoration:;">完成</tspan></tspan></text></g></g><g id="SvgjsG1098" transform="translate(146.75,419)"><path id="SvgjsPath1099" d="M 0 0L 79.5 0L 79.5 33L 0 33Z" stroke="none" fill="none"></path><g id="SvgjsG1100"><text id="SvgjsText1101" font-family="微软雅黑" text-anchor="middle" font-size="13px" width="80px" fill="#323232" font-weight="400" align="middle" anchor="middle" family="微软雅黑" size="13px" weight="400" font-style="" opacity="1" y="6.55" transform="rotate(0)"><tspan id="SvgjsTspan1102" dy="16" x="40"><tspan id="SvgjsTspan1103" style="text-decoration:;">完成</tspan></tspan></text></g></g><g id="SvgjsG1104" transform="translate(39.75,419)"><path id="SvgjsPath1105" d="M 0 0L 79.5 0L 79.5 33L 0 33Z" stroke="none" fill="none"></path><g id="SvgjsG1106"><text id="SvgjsText1107" font-family="微软雅黑" text-anchor="middle" font-size="13px" width="80px" fill="#323232" font-weight="400" align="middle" anchor="middle" family="微软雅黑" size="13px" weight="400" font-style="" opacity="1" y="6.55" transform="rotate(0)"><tspan id="SvgjsTspan1108" dy="16" x="40"><tspan id="SvgjsTspan1109" style="text-decoration:;">完成</tspan></tspan></text></g></g><g id="SvgjsG1110"><path id="SvgjsPath1111" d="M79.5 96L79.5 257.5L79.5 257.5L79.5 419" stroke="#323232" stroke-width="2" fill="none" marker-end="url(#SvgjsMarker1112)"></path></g><g id="SvgjsG1114" transform="translate(25,215)"><path id="SvgjsPath1115" d="M 0 0L 53 0L 53 31L 0 31Z" stroke="none" fill="none"></path><g id="SvgjsG1116"><text id="SvgjsText1117" font-family="微软雅黑" text-anchor="middle" font-size="13px" width="53px" fill="#323232" font-weight="400" align="middle" anchor="middle" family="微软雅黑" size="13px" weight="400" font-style="" opacity="1" y="5.55" transform="rotate(0)"><tspan id="SvgjsTspan1118" dy="16" x="26.5"><tspan id="SvgjsTspan1119" style="text-decoration:;">阻塞</tspan></tspan></text></g></g><g id="SvgjsG1120" transform="translate(146.75,93)"><path id="SvgjsPath1121" d="M 0 0L 79.5 0L 79.5 33L 0 33Z" stroke="none" fill="none"></path><g id="SvgjsG1122"><text id="SvgjsText1123" font-family="微软雅黑" text-anchor="middle" font-size="13px" width="80px" fill="#323232" font-weight="400" align="middle" anchor="middle" family="微软雅黑" size="13px" weight="400" font-style="" opacity="1" y="6.55" transform="rotate(0)"><tspan id="SvgjsTspan1124" dy="16" x="40"><tspan id="SvgjsTspan1125" style="text-decoration:;">检查</tspan></tspan></text></g></g><g id="SvgjsG1126" transform="translate(146.75,126)"><path id="SvgjsPath1127" d="M 0 0L 79.5 0L 79.5 33L 0 33Z" stroke="none" fill="none"></path><g id="SvgjsG1128"><text id="SvgjsText1129" font-family="微软雅黑" text-anchor="middle" font-size="13px" width="80px" fill="#323232" font-weight="400" align="middle" anchor="middle" family="微软雅黑" size="13px" weight="400" font-style="" opacity="1" y="6.55" transform="rotate(0)"><tspan id="SvgjsTspan1130" dy="16" x="40"><tspan id="SvgjsTspan1131" style="text-decoration:;">检查</tspan></tspan></text></g></g><g id="SvgjsG1132" transform="translate(146.75,159)"><path id="SvgjsPath1133" d="M 0 0L 79.5 0L 79.5 33L 0 33Z" stroke="none" fill="none"></path><g id="SvgjsG1134"><text id="SvgjsText1135" font-family="微软雅黑" text-anchor="middle" font-size="13px" width="80px" fill="#323232" font-weight="400" align="middle" anchor="middle" family="微软雅黑" size="13px" weight="400" font-style="" opacity="1" y="6.55" transform="rotate(0)"><tspan id="SvgjsTspan1136" dy="16" x="40"><tspan id="SvgjsTspan1137" style="text-decoration:;">检查</tspan></tspan></text></g></g><g id="SvgjsG1138" transform="translate(146.75,192)"><path id="SvgjsPath1139" d="M 0 0L 79.5 0L 79.5 33L 0 33Z" stroke="none" fill="none"></path><g id="SvgjsG1140"><text id="SvgjsText1141" font-family="微软雅黑" text-anchor="middle" font-size="13px" width="80px" fill="#323232" font-weight="400" align="middle" anchor="middle" family="微软雅黑" size="13px" weight="400" font-style="" opacity="1" y="6.55" transform="rotate(0)"><tspan id="SvgjsTspan1142" dy="16" x="40"><tspan id="SvgjsTspan1143" style="text-decoration:;">检查</tspan></tspan></text></g></g><g id="SvgjsG1144" transform="translate(146.75,225)"><path id="SvgjsPath1145" d="M 0 0L 79.5 0L 79.5 33L 0 33Z" stroke="none" fill="none"></path><g id="SvgjsG1146"><text id="SvgjsText1147" font-family="微软雅黑" text-anchor="middle" font-size="13px" width="80px" fill="#323232" font-weight="400" align="middle" anchor="middle" family="微软雅黑" size="13px" weight="400" font-style="" opacity="1" y="6.55" transform="rotate(0)"><tspan id="SvgjsTspan1148" dy="16" x="40"><tspan id="SvgjsTspan1149" style="text-decoration:;">检查</tspan></tspan></text></g></g><g id="SvgjsG1150" transform="translate(146.75,258)"><path id="SvgjsPath1151" d="M 0 0L 79.5 0L 79.5 33L 0 33Z" stroke="none" fill="none"></path><g id="SvgjsG1152"><text id="SvgjsText1153" font-family="微软雅黑" text-anchor="middle" font-size="13px" width="80px" fill="#323232" font-weight="400" align="middle" anchor="middle" family="微软雅黑" size="13px" weight="400" font-style="" opacity="1" y="6.55" transform="rotate(0)"><tspan id="SvgjsTspan1154" dy="16" x="40"><tspan id="SvgjsTspan1155" style="text-decoration:;">检查</tspan></tspan></text></g></g><g id="SvgjsG1156"><path id="SvgjsPath1157" d="M186.5 291L186.5 355L186.5 355L186.5 419" stroke="#323232" stroke-width="2" fill="none" marker-end="url(#SvgjsMarker1158)"></path></g><g id="SvgjsG1160" transform="translate(143,334)"><path id="SvgjsPath1161" d="M 0 0L 53 0L 53 31L 0 31Z" stroke="none" fill="none"></path><g id="SvgjsG1162"><text id="SvgjsText1163" font-family="微软雅黑" text-anchor="middle" font-size="13px" width="53px" fill="#323232" font-weight="400" align="middle" anchor="middle" family="微软雅黑" size="13px" weight="400" font-style="" opacity="1" y="5.55" transform="rotate(0)"><tspan id="SvgjsTspan1164" dy="16" x="26.5"><tspan id="SvgjsTspan1165" style="text-decoration:;">阻塞</tspan></tspan></text></g></g><g id="SvgjsG1166" transform="translate(247.75,268)"><path id="SvgjsPath1167" d="M 0 0L 79.5 0L 79.5 33L 0 33Z" stroke="none" fill="none"></path><g id="SvgjsG1168"><text id="SvgjsText1169" font-family="微软雅黑" text-anchor="middle" font-size="13px" width="80px" fill="#323232" font-weight="400" align="middle" anchor="middle" family="微软雅黑" size="13px" weight="400" font-style="" opacity="1" y="-1.45" transform="rotate(0)"><tspan id="SvgjsTspan1170" dy="16" x="40"><tspan id="SvgjsTspan1171" style="text-decoration:;">就绪</tspan></tspan><tspan id="SvgjsTspan1172" dy="16" x="40"><tspan id="SvgjsTspan1173" style="text-decoration:;">发起</tspan></tspan></text></g></g><g id="SvgjsG1174"><path id="SvgjsPath1175" d="M287.5 301L287.5 360L287.5 360L287.5 419" stroke="#323232" stroke-width="2" fill="none" marker-end="url(#SvgjsMarker1176)"></path></g><g id="SvgjsG1178" transform="translate(246.25,334)"><path id="SvgjsPath1179" d="M 0 0L 53 0L 53 31L 0 31Z" stroke="none" fill="none"></path><g id="SvgjsG1180"><text id="SvgjsText1181" font-family="微软雅黑" text-anchor="middle" font-size="13px" width="53px" fill="#323232" font-weight="400" align="middle" anchor="middle" family="微软雅黑" size="13px" weight="400" font-style="" opacity="1" y="5.55" transform="rotate(0)"><tspan id="SvgjsTspan1182" dy="16" x="26.5"><tspan id="SvgjsTspan1183" style="text-decoration:;">阻塞</tspan></tspan></text></g></g><g id="SvgjsG1184"><path id="SvgjsPath1185" d="M287.5 96L287.5 182L287.5 182L287.5 268" stroke="#323232" stroke-width="2" fill="none" marker-end="url(#SvgjsMarker1186)"></path></g><g id="SvgjsG1188" transform="translate(246.25,141)"><path id="SvgjsPath1189" d="M 0 0L 53 0L 53 31L 0 31Z" stroke="none" fill="none"></path><g id="SvgjsG1190"><text id="SvgjsText1191" font-family="微软雅黑" text-anchor="middle" font-size="13px" width="53px" fill="#323232" font-weight="400" align="middle" anchor="middle" family="微软雅黑" size="13px" weight="400" font-style="" opacity="1" y="5.55" transform="rotate(0)"><tspan id="SvgjsTspan1192" dy="16" x="26.5"><tspan id="SvgjsTspan1193" style="text-decoration:;">阻塞</tspan></tspan></text></g></g><g id="SvgjsG1194" transform="translate(350.75,268)"><path id="SvgjsPath1195" d="M 0 0L 79.5 0L 79.5 33L 0 33Z" stroke="none" fill="none"></path><g id="SvgjsG1196"><text id="SvgjsText1197" font-family="微软雅黑" text-anchor="middle" font-size="13px" width="80px" fill="#323232" font-weight="400" align="middle" anchor="middle" family="微软雅黑" size="13px" weight="400" font-style="" opacity="1" y="-1.45" transform="rotate(0)"><tspan id="SvgjsTspan1198" dy="16" x="40"><tspan id="SvgjsTspan1199" style="text-decoration:;">通知</tspan></tspan><tspan id="SvgjsTspan1200" dy="16" x="40"><tspan id="SvgjsTspan1201" style="text-decoration:;">发起</tspan></tspan></text></g></g><g id="SvgjsG1202"><path id="SvgjsPath1203" d="M390.5 301L390.5 360L390.5 360L390.5 419" stroke="#323232" stroke-width="2" fill="none" marker-end="url(#SvgjsMarker1204)"></path></g><g id="SvgjsG1206" transform="translate(345,326)"><path id="SvgjsPath1207" d="M 0 0L 53 0L 53 31L 0 31Z" stroke="none" fill="none"></path><g id="SvgjsG1208"><text id="SvgjsText1209" font-family="微软雅黑" text-anchor="middle" font-size="13px" width="53px" fill="#323232" font-weight="400" align="middle" anchor="middle" family="微软雅黑" size="13px" weight="400" font-style="" opacity="1" y="5.55" transform="rotate(0)"><tspan id="SvgjsTspan1210" dy="16" x="26.5"><tspan id="SvgjsTspan1211" style="text-decoration:;">阻塞</tspan></tspan></text></g></g></svg>