<svg id="SvgjsSvg1006" width="864" height="634" xmlns="http://www.w3.org/2000/svg" version="1.1" xmlns:xlink="http://www.w3.org/1999/xlink" xmlns:svgjs="http://svgjs.com/svgjs"><defs id="SvgjsDefs1007"></defs><g id="SvgjsG1008" transform="translate(140,44)"><path id="SvgjsPath1009" d="M 0 0L 236 0L 236 51L 0 51Z" stroke="rgba(50,50,50,1)" stroke-width="2" fill-opacity="1" fill="#ffffff"></path><g id="SvgjsG1010"><text id="SvgjsText1011" font-family="微软雅黑" text-anchor="middle" font-size="13px" width="216px" fill="#323232" font-weight="400" align="middle" anchor="middle" family="微软雅黑" size="13px" weight="400" font-style="" opacity="1" y="7.55" transform="rotate(0)"><tspan id="SvgjsTspan1012" dy="16" x="118"><tspan id="SvgjsTspan1013" style="text-decoration:;">内核虚拟内存</tspan></tspan><tspan id="SvgjsTspan1014" dy="16" x="118"><tspan id="SvgjsTspan1015" style="text-decoration:;">（代码、数据、堆、栈）</tspan></tspan></text></g></g><g id="SvgjsG1016" transform="translate(140,96)"><path id="SvgjsPath1017" d="M 0 0L 236 0L 236 51L 0 51Z" stroke="rgba(50,50,50,1)" stroke-width="2" fill-opacity="1" fill="#ffffff"></path><g id="SvgjsG1018"><text id="SvgjsText1019" font-family="微软雅黑" text-anchor="middle" font-size="13px" width="216px" fill="#323232" font-weight="400" align="middle" anchor="middle" family="微软雅黑" size="13px" weight="400" font-style="" opacity="1" y="7.55" transform="rotate(0)"><tspan id="SvgjsTspan1020" dy="16" x="118"><tspan id="SvgjsTspan1021" style="text-decoration:;">用户栈</tspan></tspan><tspan id="SvgjsTspan1022" dy="16" x="118"><tspan id="SvgjsTspan1023" style="text-decoration:;">（运行时创建）</tspan></tspan></text></g></g><g id="SvgjsG1024" transform="translate(140,147)"><path id="SvgjsPath1025" d="M 0 0L 236 0L 236 51L 0 51Z" stroke="rgba(50,50,50,1)" stroke-width="2" fill-opacity="1" fill="#66ffb3"></path><g id="SvgjsG1026"><text id="SvgjsText1027" font-family="微软雅黑" text-anchor="middle" font-size="13px" width="216px" fill="#323232" font-weight="400" align="middle" anchor="middle" family="微软雅黑" size="13px" weight="400" font-style="" opacity="1" y="15.55" transform="rotate(0)"><tspan id="SvgjsTspan1028" dy="16" x="118"><tspan id="SvgjsTspan1029" style="text-decoration:;"> </tspan></tspan></text></g></g><g id="SvgjsG1030" transform="translate(140,198)"><path id="SvgjsPath1031" d="M 0 0L 236 0L 236 51L 0 51Z" stroke="rgba(50,50,50,1)" stroke-width="2" fill-opacity="1" fill="#ffffff"></path><g id="SvgjsG1032"><text id="SvgjsText1033" font-family="微软雅黑" text-anchor="middle" font-size="13px" width="216px" fill="#323232" font-weight="400" align="middle" anchor="middle" family="微软雅黑" size="13px" weight="400" font-style="" opacity="1" y="7.55" transform="rotate(0)"><tspan id="SvgjsTspan1034" dy="16" x="118"><tspan id="SvgjsTspan1035" style="text-decoration:;">共享库的内存</tspan></tspan><tspan id="SvgjsTspan1036" dy="16" x="118"><tspan id="SvgjsTspan1037" style="text-decoration:;">映射区域</tspan></tspan></text></g></g><g id="SvgjsG1038" transform="translate(140,249)"><path id="SvgjsPath1039" d="M 0 0L 236 0L 236 51L 0 51Z" stroke="rgba(50,50,50,1)" stroke-width="2" fill-opacity="1" fill="#66ffb3"></path><g id="SvgjsG1040"><text id="SvgjsText1041" font-family="微软雅黑" text-anchor="middle" font-size="13px" width="216px" fill="#323232" font-weight="400" align="middle" anchor="middle" family="微软雅黑" size="13px" weight="400" font-style="" opacity="1" y="15.55" transform="rotate(0)"><tspan id="SvgjsTspan1042" dy="16" x="118"><tspan id="SvgjsTspan1043" style="text-decoration:;"> </tspan></tspan></text></g></g><g id="SvgjsG1044" transform="translate(140,300)"><path id="SvgjsPath1045" d="M 0 0L 236 0L 236 51L 0 51Z" stroke="rgba(50,50,50,1)" stroke-width="2" fill-opacity="1" fill="#ffffff"></path><g id="SvgjsG1046"><text id="SvgjsText1047" font-family="微软雅黑" text-anchor="middle" font-size="13px" width="216px" fill="#323232" font-weight="400" align="middle" anchor="middle" family="微软雅黑" size="13px" weight="400" font-style="" opacity="1" y="7.55" transform="rotate(0)"><tspan id="SvgjsTspan1048" dy="16" x="118"><tspan id="SvgjsTspan1049" style="text-decoration:;">运行时堆</tspan></tspan><tspan id="SvgjsTspan1050" dy="16" x="118"><tspan id="SvgjsTspan1051" style="text-decoration:;">（由malloc创建，free释放）</tspan></tspan></text></g></g><g id="SvgjsG1052" transform="translate(140,351)"><path id="SvgjsPath1053" d="M 0 0L 236 0L 236 51L 0 51Z" stroke="rgba(50,50,50,1)" stroke-width="2" fill-opacity="1" fill="#ffffff"></path><g id="SvgjsG1054"><text id="SvgjsText1055" font-family="微软雅黑" text-anchor="middle" font-size="13px" width="216px" fill="#323232" font-weight="400" align="middle" anchor="middle" family="微软雅黑" size="13px" weight="400" font-style="" opacity="1" y="7.55" transform="rotate(0)"><tspan id="SvgjsTspan1056" dy="16" x="118"><tspan id="SvgjsTspan1057" style="text-decoration:;">读/写数据</tspan></tspan><tspan id="SvgjsTspan1058" dy="16" x="118"><tspan id="SvgjsTspan1059" style="text-decoration:;">（.data，.bss）</tspan></tspan></text></g></g><g id="SvgjsG1060" transform="translate(140,453)"><path id="SvgjsPath1061" d="M 0 0L 236 0L 236 51L 0 51Z" stroke="rgba(50,50,50,1)" stroke-width="2" fill-opacity="1" fill="#ffffff"></path><g id="SvgjsG1062"><text id="SvgjsText1063" font-family="微软雅黑" text-anchor="middle" font-size="13px" width="216px" fill="#323232" font-weight="400" align="middle" anchor="middle" family="微软雅黑" size="13px" weight="400" font-style="" opacity="1" y="7.55" transform="rotate(0)"><tspan id="SvgjsTspan1064" dy="16" x="118"><tspan id="SvgjsTspan1065" style="text-decoration:;">只读代码段</tspan></tspan><tspan id="SvgjsTspan1066" dy="16" x="118"><tspan id="SvgjsTspan1067" style="text-decoration:;">（.init，.text，.rodata）</tspan></tspan></text></g></g><g id="SvgjsG1068" transform="translate(140,504)"><path id="SvgjsPath1069" d="M 0 0L 236 0L 236 51L 0 51Z" stroke="rgba(50,50,50,1)" stroke-width="2" fill-opacity="1" fill="#66ffb3"></path><g id="SvgjsG1070"><text id="SvgjsText1071" font-family="微软雅黑" text-anchor="middle" font-size="13px" width="216px" fill="#323232" font-weight="400" align="middle" anchor="middle" family="微软雅黑" size="13px" weight="400" font-style="" opacity="1" y="15.55" transform="rotate(0)"><tspan id="SvgjsTspan1072" dy="16" x="118"><tspan id="SvgjsTspan1073" style="text-decoration:;"> </tspan></tspan></text></g></g><g id="SvgjsG1074" transform="translate(248,178)"><path id="SvgjsPath1075" d="M 10 0L 20 9L 13.4 9L 13.4 20L 6.6000000000000005 20L 6.6000000000000005 9L 0 9L 10 0Z" stroke="rgba(50,50,50,1)" stroke-width="2" fill-opacity="1" fill="#ffffff"></path><g id="SvgjsG1076"><text id="SvgjsText1077" font-family="微软雅黑" text-anchor="middle" font-size="13px" width="28px" fill="#323232" font-weight="400" align="middle" anchor="middle" family="微软雅黑" size="13px" weight="400" font-style="" opacity="1" y="1.05" transform="rotate(0)"></text></g></g><g id="SvgjsG1078" transform="matrix(-1,1.2246467991473532e-16,-1.2246467991473532e-16,-1,268,167)"><path id="SvgjsPath1079" d="M 10 0L 20 9L 13.4 9L 13.4 20L 6.6000000000000005 20L 6.6000000000000005 9L 0 9L 10 0Z" stroke="rgba(50,50,50,1)" stroke-width="2" fill-opacity="1" fill="#ffffff"></path><g id="SvgjsG1080"><text id="SvgjsText1081" font-family="微软雅黑" text-anchor="middle" font-size="13px" width="28px" fill="#323232" font-weight="400" align="middle" anchor="middle" family="微软雅黑" size="13px" weight="400" font-style="" opacity="1" y="1.05" transform="rotate(0)"></text></g></g><g id="SvgjsG1082" transform="translate(248,280)"><path id="SvgjsPath1083" d="M 10 0L 20 9L 13.4 9L 13.4 20L 6.6000000000000005 20L 6.6000000000000005 9L 0 9L 10 0Z" stroke="rgba(50,50,50,1)" stroke-width="2" fill-opacity="1" fill="#ffffff"></path><g id="SvgjsG1084"><text id="SvgjsText1085" font-family="微软雅黑" text-anchor="middle" font-size="13px" width="28px" fill="#323232" font-weight="400" align="middle" anchor="middle" family="微软雅黑" size="13px" weight="400" font-style="" opacity="1" y="1.05" transform="rotate(0)"></text></g></g><g id="SvgjsG1086" transform="translate(365,569)"><path id="SvgjsPath1087" d="M 0 0L 120 0L 120 40L 0 40Z" stroke="none" fill="none"></path><g id="SvgjsG1088"><text id="SvgjsText1089" font-family="微软雅黑" text-anchor="middle" font-size="13px" width="120px" fill="#323232" font-weight="400" align="middle" anchor="middle" family="微软雅黑" size="13px" weight="400" font-style="" opacity="1" y="10.05" transform="rotate(0)"><tspan id="SvgjsTspan1090" dy="16" x="60"><tspan id="SvgjsTspan1091" style="text-decoration:;">进程的虚拟地址空间</tspan></tspan></text></g></g><g id="SvgjsG1092" transform="translate(402,95)"><path id="SvgjsPath1093" d="M 0 0L 236 0L 236 102L 0 102Z" stroke="rgba(50,50,50,1)" stroke-width="2" fill-opacity="1" fill="#ffffff"></path><g id="SvgjsG1094"><text id="SvgjsText1095" font-family="微软雅黑" text-anchor="middle" font-size="13px" width="216px" fill="#323232" font-weight="400" align="middle" anchor="middle" family="微软雅黑" size="13px" weight="400" font-style="" opacity="1" y="33.05" transform="rotate(0)"><tspan id="SvgjsTspan1096" dy="16" x="118"><tspan id="SvgjsTspan1097" style="text-decoration:;">栈区</tspan></tspan><tspan id="SvgjsTspan1098" dy="16" x="118"><tspan id="SvgjsTspan1099" style="text-decoration:;">（局部变量，形参，函数返回值）</tspan></tspan></text></g></g><g id="SvgjsG1100" transform="translate(402,248)"><path id="SvgjsPath1101" d="M 0 0L 236 0L 236 102L 0 102Z" stroke="rgba(50,50,50,1)" stroke-width="2" fill-opacity="1" fill="#ffffff"></path><g id="SvgjsG1102"><text id="SvgjsText1103" font-family="微软雅黑" text-anchor="middle" font-size="13px" width="216px" fill="#323232" font-weight="400" align="middle" anchor="middle" family="微软雅黑" size="13px" weight="400" font-style="" opacity="1" y="33.05" transform="rotate(0)"><tspan id="SvgjsTspan1104" dy="16" x="118"><tspan id="SvgjsTspan1105" style="text-decoration:;">堆区/内存池</tspan></tspan><tspan id="SvgjsTspan1106" dy="16" x="118"><tspan id="SvgjsTspan1107" style="text-decoration:;">（由new创建，delete释放）</tspan></tspan></text></g></g><g id="SvgjsG1108" transform="translate(402,350)"><path id="SvgjsPath1109" d="M 0 0L 236 0L 236 51L 0 51Z" stroke="rgba(50,50,50,1)" stroke-width="2" fill-opacity="1" fill="#ffffff"></path><g id="SvgjsG1110"><text id="SvgjsText1111" font-family="微软雅黑" text-anchor="middle" font-size="13px" width="216px" fill="#323232" font-weight="400" align="middle" anchor="middle" family="微软雅黑" size="13px" weight="400" font-style="" opacity="1" y="7.55" transform="rotate(0)"><tspan id="SvgjsTspan1112" dy="16" x="118"><tspan id="SvgjsTspan1113" style="text-decoration:;">初始化的全局变量和静态变量(.data)</tspan></tspan><tspan id="SvgjsTspan1114" dy="16" x="118"><tspan id="SvgjsTspan1115" style="text-decoration:;">未初始化的全局变量和静态变量(.bss)</tspan></tspan></text></g></g><g id="SvgjsG1116" transform="translate(402,44)"><path id="SvgjsPath1117" d="M 0 0L 236 0L 236 51L 0 51Z" stroke="rgba(50,50,50,1)" stroke-width="2" fill-opacity="1" fill="#ffffff"></path><g id="SvgjsG1118"><text id="SvgjsText1119" font-family="微软雅黑" text-anchor="middle" font-size="13px" width="216px" fill="#323232" font-weight="400" align="middle" anchor="middle" family="微软雅黑" size="13px" weight="400" font-style="" opacity="1" y="15.55" transform="rotate(0)"><tspan id="SvgjsTspan1120" dy="16" x="118"><tspan id="SvgjsTspan1121" style="text-decoration:;">环境变量，命令行参数</tspan></tspan></text></g></g><g id="SvgjsG1122" transform="translate(51,25)"><path id="SvgjsPath1123" d="M 0 0L 120 0L 120 40L 0 40Z" stroke="none" fill="none"></path><g id="SvgjsG1124"><text id="SvgjsText1125" font-family="微软雅黑" text-anchor="middle" font-size="13px" width="120px" fill="#323232" font-weight="400" align="middle" anchor="middle" family="微软雅黑" size="13px" weight="400" font-style="" opacity="1" y="10.05" transform="rotate(0)"><tspan id="SvgjsTspan1126" dy="16" x="60"><tspan id="SvgjsTspan1127" style="text-decoration:;">高地址</tspan></tspan></text></g></g><g id="SvgjsG1128" transform="translate(48,535)"><path id="SvgjsPath1129" d="M 0 0L 120 0L 120 40L 0 40Z" stroke="none" fill="none"></path><g id="SvgjsG1130"><text id="SvgjsText1131" font-family="微软雅黑" text-anchor="middle" font-size="13px" width="120px" fill="#323232" font-weight="400" align="middle" anchor="middle" family="微软雅黑" size="13px" weight="400" font-style="" opacity="1" y="10.05" transform="rotate(0)"><tspan id="SvgjsTspan1132" dy="16" x="60"><tspan id="SvgjsTspan1133" style="text-decoration:;">低地址</tspan></tspan></text></g></g><g id="SvgjsG1134" transform="translate(402,449)"><path id="SvgjsPath1135" d="M 0 0L 236 0L 236 51L 0 51Z" stroke="rgba(50,50,50,1)" stroke-width="2" fill-opacity="1" fill="#ffffff"></path><g id="SvgjsG1136"><text id="SvgjsText1137" font-family="微软雅黑" text-anchor="middle" font-size="13px" width="216px" fill="#323232" font-weight="400" align="middle" anchor="middle" family="微软雅黑" size="13px" weight="400" font-style="" opacity="1" y="15.55" transform="rotate(0)"><tspan id="SvgjsTspan1138" dy="16" x="118"><tspan id="SvgjsTspan1139" style="text-decoration:;">CPU执行的机器指令</tspan></tspan></text></g></g><g id="SvgjsG1140" transform="translate(140,402)"><path id="SvgjsPath1141" d="M 0 0L 236 0L 236 51L 0 51Z" stroke="rgba(50,50,50,1)" stroke-width="2" fill-opacity="1" fill="#ffffff"></path><g id="SvgjsG1142"><text id="SvgjsText1143" font-family="微软雅黑" text-anchor="middle" font-size="13px" width="216px" fill="#323232" font-weight="400" align="middle" anchor="middle" family="微软雅黑" size="13px" weight="400" font-style="" opacity="1" y="15.55" transform="rotate(0)"><tspan id="SvgjsTspan1144" dy="16" x="118"><tspan id="SvgjsTspan1145" style="text-decoration:;">常量区</tspan></tspan></text></g></g><g id="SvgjsG1146" transform="translate(402,401)"><path id="SvgjsPath1147" d="M 0 0L 236 0L 236 51L 0 51Z" stroke="rgba(50,50,50,1)" stroke-width="2" fill-opacity="1" fill="#ffffff"></path><g id="SvgjsG1148"><text id="SvgjsText1149" font-family="微软雅黑" text-anchor="middle" font-size="13px" width="216px" fill="#323232" font-weight="400" align="middle" anchor="middle" family="微软雅黑" size="13px" weight="400" font-style="" opacity="1" y="7.55" transform="rotate(0)"><tspan id="SvgjsTspan1150" dy="16" x="118"><tspan id="SvgjsTspan1151" style="text-decoration:;">文字常量区</tspan></tspan><tspan id="SvgjsTspan1152" dy="16" x="118"><tspan id="SvgjsTspan1153" style="text-decoration:;">（常量字符串）</tspan></tspan></text></g></g><g id="SvgjsG1154" transform="translate(402,500)"><path id="SvgjsPath1155" d="M 0 0L 236 0L 236 51L 0 51Z" stroke="rgba(50,50,50,1)" stroke-width="2" fill-opacity="1" fill="#66ffb3"></path><g id="SvgjsG1156"><text id="SvgjsText1157" font-family="微软雅黑" text-anchor="middle" font-size="13px" width="216px" fill="#323232" font-weight="400" align="middle" anchor="middle" family="微软雅黑" size="13px" weight="400" font-style="" opacity="1" y="15.55" transform="rotate(0)"><tspan id="SvgjsTspan1158" dy="16" x="118"><tspan id="SvgjsTspan1159" style="text-decoration:;"> </tspan></tspan></text></g></g><g id="SvgjsG1160" transform="translate(402,197)"><path id="SvgjsPath1161" d="M 0 0L 236 0L 236 51L 0 51Z" stroke="rgba(50,50,50,1)" stroke-width="2" fill-opacity="1" fill="#ffffff"></path><g id="SvgjsG1162"><text id="SvgjsText1163" font-family="微软雅黑" text-anchor="middle" font-size="13px" width="216px" fill="#323232" font-weight="400" align="middle" anchor="middle" family="微软雅黑" size="13px" weight="400" font-style="" opacity="1" y="7.55" transform="rotate(0)"><tspan id="SvgjsTspan1164" dy="16" x="118"><tspan id="SvgjsTspan1165" style="text-decoration:;">共享库的内存</tspan><tspan id="SvgjsTspan1166" style="text-decoration:;font-size: inherit;">映射区域</tspan></tspan><tspan id="SvgjsTspan1167" dy="16" x="118"><tspan id="SvgjsTspan1168" style="text-decoration:;font-size: inherit;">（printf）</tspan></tspan></text></g></g><g id="SvgjsG1169" transform="translate(638,95)"><path id="SvgjsPath1170" d="M 0 0L 89 0L 89 102L 0 102Z" stroke="rgba(50,50,50,1)" stroke-width="2" fill-opacity="1" fill="#ffcccc"></path><g id="SvgjsG1171"><text id="SvgjsText1172" font-family="微软雅黑" text-anchor="middle" font-size="13px" width="69px" fill="#323232" font-weight="400" align="middle" anchor="middle" family="微软雅黑" size="13px" weight="400" font-style="" opacity="1" y="41.05" transform="rotate(0)"><tspan id="SvgjsTspan1173" dy="16" x="44.5"><tspan id="SvgjsTspan1174" style="text-decoration:;">栈</tspan></tspan></text></g></g><g id="SvgjsG1175" transform="translate(638,248)"><path id="SvgjsPath1176" d="M 0 0L 89 0L 89 102L 0 102Z" stroke="rgba(50,50,50,1)" stroke-width="2" fill-opacity="1" fill="#ffe6cc"></path><g id="SvgjsG1177"><text id="SvgjsText1178" font-family="微软雅黑" text-anchor="middle" font-size="13px" width="69px" fill="#323232" font-weight="400" align="middle" anchor="middle" family="微软雅黑" size="13px" weight="400" font-style="" opacity="1" y="41.05" transform="rotate(0)"><tspan id="SvgjsTspan1179" dy="16" x="44.5"><tspan id="SvgjsTspan1180" style="text-decoration:;">堆区</tspan></tspan></text></g></g><g id="SvgjsG1181" transform="translate(638,350)"><path id="SvgjsPath1182" d="M 0 0L 89 0L 89 51L 0 51Z" stroke="rgba(50,50,50,1)" stroke-width="2" fill-opacity="1" fill="#ffffcc"></path><g id="SvgjsG1183"><text id="SvgjsText1184" font-family="微软雅黑" text-anchor="middle" font-size="13px" width="69px" fill="#323232" font-weight="400" align="middle" anchor="middle" family="微软雅黑" size="13px" weight="400" font-style="" opacity="1" y="7.55" transform="rotate(0)"><tspan id="SvgjsTspan1185" dy="16" x="44.5"><tspan id="SvgjsTspan1186" style="text-decoration:;">全局/静态</tspan></tspan><tspan id="SvgjsTspan1187" dy="16" x="44.5"><tspan id="SvgjsTspan1188" style="text-decoration:;">区</tspan></tspan></text></g></g><g id="SvgjsG1189" transform="translate(638,401)"><path id="SvgjsPath1190" d="M 0 0L 89 0L 89 51L 0 51Z" stroke="rgba(50,50,50,1)" stroke-width="2" fill-opacity="1" fill="#cce5ff"></path><g id="SvgjsG1191"><text id="SvgjsText1192" font-family="微软雅黑" text-anchor="middle" font-size="13px" width="69px" fill="#323232" font-weight="400" align="middle" anchor="middle" family="微软雅黑" size="13px" weight="400" font-style="" opacity="1" y="15.55" transform="rotate(0)"><tspan id="SvgjsTspan1193" dy="16" x="44.5"><tspan id="SvgjsTspan1194" style="text-decoration:;">文字常量区</tspan></tspan></text></g></g><g id="SvgjsG1195" transform="translate(638,452)"><path id="SvgjsPath1196" d="M 0 0L 89 0L 89 48L 0 48Z" stroke="rgba(50,50,50,1)" stroke-width="2" fill-opacity="1" fill="#ffccff"></path><g id="SvgjsG1197"><text id="SvgjsText1198" font-family="微软雅黑" text-anchor="middle" font-size="13px" width="69px" fill="#323232" font-weight="400" align="middle" anchor="middle" family="微软雅黑" size="13px" weight="400" font-style="" opacity="1" y="14.05" transform="rotate(0)"><tspan id="SvgjsTspan1199" dy="16" x="44.5"><tspan id="SvgjsTspan1200" style="text-decoration:;">程序代码区</tspan></tspan></text></g></g><g id="SvgjsG1201" transform="translate(25,486)"><path id="SvgjsPath1202" d="M 0 0L 120 0L 120 40L 0 40Z" stroke="none" fill="none"></path><g id="SvgjsG1203"><text id="SvgjsText1204" font-family="微软雅黑" text-anchor="middle" font-size="13px" width="120px" fill="#323232" font-weight="400" align="middle" anchor="middle" family="微软雅黑" size="13px" weight="400" font-style="" opacity="1" y="10.05" transform="rotate(0)"><tspan id="SvgjsTspan1205" dy="16" x="60"><tspan id="SvgjsTspan1206" style="text-decoration:;">0x400000</tspan></tspan></text></g></g><g id="SvgjsG1207" transform="translate(739,350)"><path id="SvgjsPath1208" d="M 0 150Q 9 150 9 141L 9 84Q 9 75 22 75Q 9 75 9 66L 9 9Q 9 0 0 0" stroke="rgba(50,50,50,1)" stroke-width="2" fill="none"></path><path id="SvgjsPath1209" d="M 0 0L 100 0L 100 150L 0 150Z" stroke="none" fill="none"></path><g id="SvgjsG1210"><text id="SvgjsText1211" font-family="微软雅黑" text-anchor="start" font-size="13px" width="73px" fill="#323232" font-weight="400" align="middle" anchor="start" family="微软雅黑" size="13px" weight="400" font-style="" opacity="1" y="57.05" transform="rotate(0)"><tspan id="SvgjsTspan1212" dy="16" x="27"><tspan id="SvgjsTspan1213" style="text-decoration:;">从可执行文</tspan></tspan><tspan id="SvgjsTspan1214" dy="16" x="27"><tspan id="SvgjsTspan1215" style="text-decoration:;">件中加载</tspan></tspan></text></g></g><g id="SvgjsG1216" transform="translate(652,44)"><path id="SvgjsPath1217" d="M 0 43Q 9 43 9 38.7L 9 25.8Q 9 21.5 22 21.5Q 9 21.5 9 17.2L 9 4.3Q 9 0 0 0" stroke="rgba(50,50,50,1)" stroke-width="2" fill="none"></path><path id="SvgjsPath1218" d="M 0 0L 97 0L 97 43L 0 43Z" stroke="none" fill="none"></path><g id="SvgjsG1219"><text id="SvgjsText1220" font-family="微软雅黑" text-anchor="start" font-size="13px" width="70px" fill="#323232" font-weight="400" align="middle" anchor="start" family="微软雅黑" size="13px" weight="400" font-style="" opacity="1" y="3.55" transform="rotate(0)"><tspan id="SvgjsTspan1221" dy="16" x="27"><tspan id="SvgjsTspan1222" style="text-decoration:;">对用户代码</tspan></tspan><tspan id="SvgjsTspan1223" dy="16" x="27"><tspan id="SvgjsTspan1224" style="text-decoration:;">不可见</tspan></tspan></text></g></g></svg>