<svg id="SvgjsSvg1200" width="763" height="480" xmlns="http://www.w3.org/2000/svg" version="1.1" xmlns:xlink="http://www.w3.org/1999/xlink" xmlns:svgjs="http://svgjs.com/svgjs"><defs id="SvgjsDefs1201"><marker id="SvgjsMarker1236" markerWidth="16" markerHeight="12" refX="16" refY="6" viewBox="0 0 16 12" orient="auto" markerUnits="userSpaceOnUse" stroke-dasharray="0,0"><path id="SvgjsPath1237" d="M0,2 L14,6 L0,11 L0,2" fill="#323232" stroke="#323232" stroke-width="2"></path></marker><marker id="SvgjsMarker1240" markerWidth="16" markerHeight="12" refX="16" refY="6" viewBox="0 0 16 12" orient="auto" markerUnits="userSpaceOnUse" stroke-dasharray="0,0"><path id="SvgjsPath1241" d="M0,2 L14,6 L0,11 L0,2" fill="#323232" stroke="#323232" stroke-width="2"></path></marker><marker id="SvgjsMarker1295" markerWidth="16" markerHeight="12" refX="16" refY="6" viewBox="0 0 16 12" orient="auto" markerUnits="userSpaceOnUse" stroke-dasharray="0,0"><path id="SvgjsPath1296" d="M0,2 L14,6 L0,11 L0,2" fill="#323232" stroke="#323232" stroke-width="2"></path></marker><marker id="SvgjsMarker1299" markerWidth="16" markerHeight="12" refX="16" refY="6" viewBox="0 0 16 12" orient="auto" markerUnits="userSpaceOnUse" stroke-dasharray="0,0"><path id="SvgjsPath1300" d="M0,2 L14,6 L0,11 L0,2" fill="#323232" stroke="#323232" stroke-width="2"></path></marker><marker id="SvgjsMarker1321" markerWidth="16" markerHeight="12" refX="16" refY="6" viewBox="0 0 16 12" orient="auto" markerUnits="userSpaceOnUse" stroke-dasharray="0,0"><path id="SvgjsPath1322" d="M0,2 L14,6 L0,11 L0,2" fill="#323232" stroke="#323232" stroke-width="2"></path></marker><marker id="SvgjsMarker1331" markerWidth="16" markerHeight="12" refX="16" refY="6" viewBox="0 0 16 12" orient="auto" markerUnits="userSpaceOnUse" stroke-dasharray="0,0"><path id="SvgjsPath1332" d="M0,2 L14,6 L0,11 L0,2" fill="#323232" stroke="#323232" stroke-width="2"></path></marker><marker id="SvgjsMarker1353" markerWidth="16" markerHeight="12" refX="16" refY="6" viewBox="0 0 16 12" orient="auto" markerUnits="userSpaceOnUse" stroke-dasharray="0,0"><path id="SvgjsPath1354" d="M0,2 L14,6 L0,11 L0,2" fill="#323232" stroke="#323232" stroke-width="2"></path></marker><marker id="SvgjsMarker1363" markerWidth="16" markerHeight="12" refX="16" refY="6" viewBox="0 0 16 12" orient="auto" markerUnits="userSpaceOnUse" stroke-dasharray="0,0"><path id="SvgjsPath1364" d="M0,2 L14,6 L0,11 L0,2" fill="#323232" stroke="#323232" stroke-width="2"></path></marker><marker id="SvgjsMarker1379" markerWidth="16" markerHeight="12" refX="16" refY="6" viewBox="0 0 16 12" orient="auto" markerUnits="userSpaceOnUse" stroke-dasharray="0,0"><path id="SvgjsPath1380" d="M0,2 L14,6 L0,11 L0,2" fill="#323232" stroke="#323232" stroke-width="2"></path></marker></defs><g id="SvgjsG1202" transform="translate(165,78)"><path id="SvgjsPath1203" d="M 0 0L 74 0L 74 36L 0 36Z" stroke="none" fill="none"></path><g id="SvgjsG1204"><text id="SvgjsText1205" font-family="微软雅黑" text-anchor="middle" font-size="13px" width="74px" fill="#323232" font-weight="400" align="middle" anchor="middle" family="微软雅黑" size="13px" weight="400" font-style="" opacity="1" y="8.05" transform="rotate(0)"><tspan id="SvgjsTspan1206" dy="16" x="37"><tspan id="SvgjsTspan1207" style="text-decoration:;">recvfrom</tspan></tspan></text></g></g><g id="SvgjsG1208" transform="translate(525,78)"><path id="SvgjsPath1209" d="M 0 0L 110 0L 110 36L 0 36Z" stroke="none" fill="none"></path><g id="SvgjsG1210"><text id="SvgjsText1211" font-family="微软雅黑" text-anchor="middle" font-size="13px" width="110px" fill="#323232" font-weight="400" align="middle" anchor="middle" family="微软雅黑" size="13px" weight="400" font-style="" opacity="1" y="8.05" transform="rotate(0)"><tspan id="SvgjsTspan1212" dy="16" x="55"><tspan id="SvgjsTspan1213" style="text-decoration:;">无数据报准备好</tspan></tspan></text></g></g><g id="SvgjsG1214" transform="translate(525,290)"><path id="SvgjsPath1215" d="M 0 0L 110 0L 110 36L 0 36Z" stroke="none" fill="none"></path><g id="SvgjsG1216"><text id="SvgjsText1217" font-family="微软雅黑" text-anchor="middle" font-size="13px" width="110px" fill="#323232" font-weight="400" align="middle" anchor="middle" family="微软雅黑" size="13px" weight="400" font-style="" opacity="1" y="0.050000000000000044" transform="rotate(0)"><tspan id="SvgjsTspan1218" dy="16" x="55"><tspan id="SvgjsTspan1219" style="text-decoration:;">数据报准备好</tspan></tspan><tspan id="SvgjsTspan1220" dy="16" x="55"><tspan id="SvgjsTspan1221" style="text-decoration:;">复制数据报</tspan></tspan></text></g></g><g id="SvgjsG1222" transform="translate(525,419)"><path id="SvgjsPath1223" d="M 0 0L 110 0L 110 36L 0 36Z" stroke="none" fill="none"></path><g id="SvgjsG1224"><text id="SvgjsText1225" font-family="微软雅黑" text-anchor="middle" font-size="13px" width="110px" fill="#323232" font-weight="400" align="middle" anchor="middle" family="微软雅黑" size="13px" weight="400" font-style="" opacity="1" y="8.05" transform="rotate(0)"><tspan id="SvgjsTspan1226" dy="16" x="55"><tspan id="SvgjsTspan1227" style="text-decoration:;">复制完成</tspan></tspan></text></g></g><g id="SvgjsG1228" transform="translate(147,419)"><path id="SvgjsPath1229" d="M 0 0L 110 0L 110 36L 0 36Z" stroke="none" fill="none"></path><g id="SvgjsG1230"><text id="SvgjsText1231" font-family="微软雅黑" text-anchor="middle" font-size="13px" width="110px" fill="#323232" font-weight="400" align="middle" anchor="middle" family="微软雅黑" size="13px" weight="400" font-style="" opacity="1" y="8.05" transform="rotate(0)"><tspan id="SvgjsTspan1232" dy="16" x="55"><tspan id="SvgjsTspan1233" style="text-decoration:;">处理数据报</tspan></tspan></text></g></g><g id="SvgjsG1234"><path id="SvgjsPath1235" d="M287 85L384.5 85L384.5 85L482 85" stroke="#323232" stroke-width="2" fill="none" marker-end="url(#SvgjsMarker1236)"></path></g><g id="SvgjsG1238"><path id="SvgjsPath1239" d="M488 435L385 435L385 435L282 435" stroke="#323232" stroke-width="2" fill="none" marker-end="url(#SvgjsMarker1240)"></path></g><g id="SvgjsG1242" transform="translate(327,48)"><path id="SvgjsPath1243" d="M 0 0L 110 0L 110 36L 0 36Z" stroke="none" fill="none"></path><g id="SvgjsG1244"><text id="SvgjsText1245" font-family="微软雅黑" text-anchor="middle" font-size="13px" width="110px" fill="#323232" font-weight="400" align="middle" anchor="middle" family="微软雅黑" size="13px" weight="400" font-style="" opacity="1" y="8.05" transform="rotate(0)"><tspan id="SvgjsTspan1246" dy="16" x="55"><tspan id="SvgjsTspan1247" style="text-decoration:;">系统调用</tspan></tspan></text></g></g><g id="SvgjsG1248" transform="translate(327,399)"><path id="SvgjsPath1249" d="M 0 0L 110 0L 110 36L 0 36Z" stroke="none" fill="none"></path><g id="SvgjsG1250"><text id="SvgjsText1251" font-family="微软雅黑" text-anchor="middle" font-size="13px" width="110px" fill="#323232" font-weight="400" align="middle" anchor="middle" family="微软雅黑" size="13px" weight="400" font-style="" opacity="1" y="8.05" transform="rotate(0)"><tspan id="SvgjsTspan1252" dy="16" x="55"><tspan id="SvgjsTspan1253" style="text-decoration:;">返回成功指示</tspan></tspan></text></g></g><g id="SvgjsG1254" transform="translate(165,25)"><path id="SvgjsPath1255" d="M 0 0L 74 0L 74 36L 0 36Z" stroke="none" fill="none"></path><g id="SvgjsG1256"><text id="SvgjsText1257" font-family="微软雅黑" text-anchor="middle" font-size="13px" width="74px" fill="#323232" font-weight="700" align="middle" anchor="middle" family="微软雅黑" size="13px" weight="700" font-style="" opacity="1" y="8.05" transform="rotate(0)"><tspan id="SvgjsTspan1258" dy="16" x="37"><tspan id="SvgjsTspan1259" style="text-decoration:;">应用进程</tspan></tspan></text></g></g><g id="SvgjsG1260" transform="translate(543,29)"><path id="SvgjsPath1261" d="M 0 0L 74 0L 74 36L 0 36Z" stroke="none" fill="none"></path><g id="SvgjsG1262"><text id="SvgjsText1263" font-family="微软雅黑" text-anchor="middle" font-size="13px" width="74px" fill="#323232" font-weight="700" align="middle" anchor="middle" family="微软雅黑" size="13px" weight="700" font-style="" opacity="1" y="8.05" transform="rotate(0)"><tspan id="SvgjsTspan1264" dy="16" x="37"><tspan id="SvgjsTspan1265" style="text-decoration:;">内核</tspan></tspan></text></g></g><g id="SvgjsG1266" transform="translate(25,94)"><path id="SvgjsPath1267" d="M 135 0Q 126 0 126 9L 126 161.5Q 126 170.5 113 170.5Q 126 170.5 126 179.5L 126 332Q 126 341 135 341" stroke="rgba(50,50,50,1)" stroke-width="2" fill="none"></path><path id="SvgjsPath1268" d="M 0 0L 135 0L 135 341L 0 341Z" stroke="none" fill="none"></path><g id="SvgjsG1269"><text id="SvgjsText1270" font-family="微软雅黑" text-anchor="middle" font-size="13px" width="108px" fill="#323232" font-weight="400" align="middle" anchor="middle" family="微软雅黑" size="13px" weight="400" font-style="" opacity="1" y="152.55" transform="rotate(0)"><tspan id="SvgjsTspan1271" dy="16" x="54"><tspan id="SvgjsTspan1272" style="text-decoration:;">进程阻塞于</tspan></tspan><tspan id="SvgjsTspan1273" dy="16" x="54"><tspan id="SvgjsTspan1274" style="text-decoration:;">recvfrom的调用</tspan></tspan></text></g></g><g id="SvgjsG1275" transform="translate(638,94)"><path id="SvgjsPath1276" d="M 0 210Q 9 210 9 201L 9 114Q 9 105 22 105Q 9 105 9 96L 9 9Q 9 0 0 0" stroke="rgba(50,50,50,1)" stroke-width="2" fill="none"></path><path id="SvgjsPath1277" d="M 0 0L 100 0L 100 210L 0 210Z" stroke="none" fill="none"></path><g id="SvgjsG1278"><text id="SvgjsText1279" font-family="微软雅黑" text-anchor="middle" font-size="13px" width="73px" fill="#323232" font-weight="400" align="middle" anchor="middle" family="微软雅黑" size="13px" weight="400" font-style="" opacity="1" y="95.05" transform="rotate(0)"><tspan id="SvgjsTspan1280" dy="16" x="63.5"><tspan id="SvgjsTspan1281" style="text-decoration:;">等待数据</tspan></tspan></text></g></g><g id="SvgjsG1282" transform="translate(638,310)"><path id="SvgjsPath1283" d="M 0 129Q 9 129 9 120L 9 73.5Q 9 64.5 22 64.5Q 9 64.5 9 55.5L 9 9Q 9 0 0 0" stroke="rgba(50,50,50,1)" stroke-width="2" fill="none"></path><path id="SvgjsPath1284" d="M 0 0L 100 0L 100 129L 0 129Z" stroke="none" fill="none"></path><g id="SvgjsG1285"><text id="SvgjsText1286" font-family="微软雅黑" text-anchor="middle" font-size="13px" width="73px" fill="#323232" font-weight="400" align="middle" anchor="middle" family="微软雅黑" size="13px" weight="400" font-style="" opacity="1" y="38.55" transform="rotate(0)"><tspan id="SvgjsTspan1287" dy="16" x="63.5"><tspan id="SvgjsTspan1288" style="text-decoration:;">将数据从内</tspan></tspan><tspan id="SvgjsTspan1289" dy="16" x="63.5"><tspan id="SvgjsTspan1290" style="text-decoration:;">核复制到数</tspan></tspan><tspan id="SvgjsTspan1291" dy="16" x="63.5"><tspan id="SvgjsTspan1292" style="text-decoration:;">据空间</tspan></tspan></text></g></g><g id="SvgjsG1293"><path id="SvgjsPath1294" d="M580 326L580 372.5L580 372.5L580 419" stroke="#323232" stroke-width="2" fill="none" marker-end="url(#SvgjsMarker1295)"></path></g><g id="SvgjsG1297"><path id="SvgjsPath1298" d="M489 104L386 104L386 104L283 104" stroke="#323232" stroke-width="2" fill="none" marker-end="url(#SvgjsMarker1299)"></path></g><g id="SvgjsG1301" transform="translate(327,104)"><path id="SvgjsPath1302" d="M 0 0L 110 0L 110 36L 0 36Z" stroke="none" fill="none"></path><g id="SvgjsG1303"><text id="SvgjsText1304" font-family="微软雅黑" text-anchor="middle" font-size="13px" width="110px" fill="#323232" font-weight="400" align="middle" anchor="middle" family="微软雅黑" size="13px" weight="400" font-style="" opacity="1" y="8.05" transform="rotate(0)"><tspan id="SvgjsTspan1305" dy="16" x="55"><tspan id="SvgjsTspan1306" style="text-decoration:;">EWOULDBLOCK</tspan></tspan></text></g></g><g id="SvgjsG1307" transform="translate(165,154)"><path id="SvgjsPath1308" d="M 0 0L 74 0L 74 36L 0 36Z" stroke="none" fill="none"></path><g id="SvgjsG1309"><text id="SvgjsText1310" font-family="微软雅黑" text-anchor="middle" font-size="13px" width="74px" fill="#323232" font-weight="400" align="middle" anchor="middle" family="微软雅黑" size="13px" weight="400" font-style="" opacity="1" y="8.05" transform="rotate(0)"><tspan id="SvgjsTspan1311" dy="16" x="37"><tspan id="SvgjsTspan1312" style="text-decoration:;">recvfrom</tspan></tspan></text></g></g><g id="SvgjsG1313" transform="translate(525,154)"><path id="SvgjsPath1314" d="M 0 0L 110 0L 110 36L 0 36Z" stroke="none" fill="none"></path><g id="SvgjsG1315"><text id="SvgjsText1316" font-family="微软雅黑" text-anchor="middle" font-size="13px" width="110px" fill="#323232" font-weight="400" align="middle" anchor="middle" family="微软雅黑" size="13px" weight="400" font-style="" opacity="1" y="8.05" transform="rotate(0)"><tspan id="SvgjsTspan1317" dy="16" x="55"><tspan id="SvgjsTspan1318" style="text-decoration:;">无数据报准备好</tspan></tspan></text></g></g><g id="SvgjsG1319"><path id="SvgjsPath1320" d="M287 161L384.5 161L384.5 161L482 161" stroke="#323232" stroke-width="2" fill="none" marker-end="url(#SvgjsMarker1321)"></path></g><g id="SvgjsG1323" transform="translate(327,124)"><path id="SvgjsPath1324" d="M 0 0L 110 0L 110 36L 0 36Z" stroke="none" fill="none"></path><g id="SvgjsG1325"><text id="SvgjsText1326" font-family="微软雅黑" text-anchor="middle" font-size="13px" width="110px" fill="#323232" font-weight="400" align="middle" anchor="middle" family="微软雅黑" size="13px" weight="400" font-style="" opacity="1" y="8.05" transform="rotate(0)"><tspan id="SvgjsTspan1327" dy="16" x="55"><tspan id="SvgjsTspan1328" style="text-decoration:;">系统调用</tspan></tspan></text></g></g><g id="SvgjsG1329"><path id="SvgjsPath1330" d="M489 180L386 180L386 180L283 180" stroke="#323232" stroke-width="2" fill="none" marker-end="url(#SvgjsMarker1331)"></path></g><g id="SvgjsG1333" transform="translate(327,180)"><path id="SvgjsPath1334" d="M 0 0L 110 0L 110 36L 0 36Z" stroke="none" fill="none"></path><g id="SvgjsG1335"><text id="SvgjsText1336" font-family="微软雅黑" text-anchor="middle" font-size="13px" width="110px" fill="#323232" font-weight="400" align="middle" anchor="middle" family="微软雅黑" size="13px" weight="400" font-style="" opacity="1" y="8.05" transform="rotate(0)"><tspan id="SvgjsTspan1337" dy="16" x="55"><tspan id="SvgjsTspan1338" style="text-decoration:;">EWOULDBLOCK</tspan></tspan></text></g></g><g id="SvgjsG1339" transform="translate(165,227)"><path id="SvgjsPath1340" d="M 0 0L 74 0L 74 36L 0 36Z" stroke="none" fill="none"></path><g id="SvgjsG1341"><text id="SvgjsText1342" font-family="微软雅黑" text-anchor="middle" font-size="13px" width="74px" fill="#323232" font-weight="400" align="middle" anchor="middle" family="微软雅黑" size="13px" weight="400" font-style="" opacity="1" y="8.05" transform="rotate(0)"><tspan id="SvgjsTspan1343" dy="16" x="37"><tspan id="SvgjsTspan1344" style="text-decoration:;">recvfrom</tspan></tspan></text></g></g><g id="SvgjsG1345" transform="translate(527,227)"><path id="SvgjsPath1346" d="M 0 0L 110 0L 110 36L 0 36Z" stroke="none" fill="none"></path><g id="SvgjsG1347"><text id="SvgjsText1348" font-family="微软雅黑" text-anchor="middle" font-size="13px" width="110px" fill="#323232" font-weight="400" align="middle" anchor="middle" family="微软雅黑" size="13px" weight="400" font-style="" opacity="1" y="8.05" transform="rotate(0)"><tspan id="SvgjsTspan1349" dy="16" x="55"><tspan id="SvgjsTspan1350" style="text-decoration:;">无数据报准备好</tspan></tspan></text></g></g><g id="SvgjsG1351"><path id="SvgjsPath1352" d="M289 234L386.5 234L386.5 234L484 234" stroke="#323232" stroke-width="2" fill="none" marker-end="url(#SvgjsMarker1353)"></path></g><g id="SvgjsG1355" transform="translate(329,197)"><path id="SvgjsPath1356" d="M 0 0L 110 0L 110 36L 0 36Z" stroke="none" fill="none"></path><g id="SvgjsG1357"><text id="SvgjsText1358" font-family="微软雅黑" text-anchor="middle" font-size="13px" width="110px" fill="#323232" font-weight="400" align="middle" anchor="middle" family="微软雅黑" size="13px" weight="400" font-style="" opacity="1" y="8.05" transform="rotate(0)"><tspan id="SvgjsTspan1359" dy="16" x="55"><tspan id="SvgjsTspan1360" style="text-decoration:;">系统调用</tspan></tspan></text></g></g><g id="SvgjsG1361"><path id="SvgjsPath1362" d="M491 253L388 253L388 253L285 253" stroke="#323232" stroke-width="2" fill="none" marker-end="url(#SvgjsMarker1363)"></path></g><g id="SvgjsG1365" transform="translate(329,253)"><path id="SvgjsPath1366" d="M 0 0L 110 0L 110 36L 0 36Z" stroke="none" fill="none"></path><g id="SvgjsG1367"><text id="SvgjsText1368" font-family="微软雅黑" text-anchor="middle" font-size="13px" width="110px" fill="#323232" font-weight="400" align="middle" anchor="middle" family="微软雅黑" size="13px" weight="400" font-style="" opacity="1" y="8.05" transform="rotate(0)"><tspan id="SvgjsTspan1369" dy="16" x="55"><tspan id="SvgjsTspan1370" style="text-decoration:;">EWOULDBLOCK</tspan></tspan></text></g></g><g id="SvgjsG1371" transform="translate(165,289)"><path id="SvgjsPath1372" d="M 0 0L 74 0L 74 36L 0 36Z" stroke="none" fill="none"></path><g id="SvgjsG1373"><text id="SvgjsText1374" font-family="微软雅黑" text-anchor="middle" font-size="13px" width="74px" fill="#323232" font-weight="400" align="middle" anchor="middle" family="微软雅黑" size="13px" weight="400" font-style="" opacity="1" y="8.05" transform="rotate(0)"><tspan id="SvgjsTspan1375" dy="16" x="37"><tspan id="SvgjsTspan1376" style="text-decoration:;">recvfrom</tspan></tspan></text></g></g><g id="SvgjsG1377"><path id="SvgjsPath1378" d="M288 310L385.5 310L385.5 310L483 310" stroke="#323232" stroke-width="2" fill="none" marker-end="url(#SvgjsMarker1379)"></path></g><g id="SvgjsG1381" transform="translate(328,273)"><path id="SvgjsPath1382" d="M 0 0L 110 0L 110 36L 0 36Z" stroke="none" fill="none"></path><g id="SvgjsG1383"><text id="SvgjsText1384" font-family="微软雅黑" text-anchor="middle" font-size="13px" width="110px" fill="#323232" font-weight="400" align="middle" anchor="middle" family="微软雅黑" size="13px" weight="400" font-style="" opacity="1" y="8.05" transform="rotate(0)"><tspan id="SvgjsTspan1385" dy="16" x="55"><tspan id="SvgjsTspan1386" style="text-decoration:;">系统调用</tspan></tspan></text></g></g></svg>