<svg id="SvgjsSvg1006" width="737" height="604" xmlns="http://www.w3.org/2000/svg" version="1.1" xmlns:xlink="http://www.w3.org/1999/xlink" xmlns:svgjs="http://svgjs.com/svgjs"><defs id="SvgjsDefs1007"><marker id="SvgjsMarker1022" markerWidth="16" markerHeight="12" refX="16" refY="6" viewBox="0 0 16 12" orient="auto" markerUnits="userSpaceOnUse" stroke-dasharray="0,0"><path id="SvgjsPath1023" d="M0,2 L14,6 L0,11 L0,2" fill="#323232" stroke="#323232" stroke-width="2"></path></marker><marker id="SvgjsMarker1052" markerWidth="16" markerHeight="12" refX="16" refY="6" viewBox="0 0 16 12" orient="auto" markerUnits="userSpaceOnUse" stroke-dasharray="0,0"><path id="SvgjsPath1053" d="M0,2 L14,6 L0,11 L0,2" fill="#323232" stroke="#323232" stroke-width="2"></path></marker><marker id="SvgjsMarker1056" markerWidth="16" markerHeight="12" refX="16" refY="6" viewBox="0 0 16 12" orient="auto" markerUnits="userSpaceOnUse" stroke-dasharray="0,0"><path id="SvgjsPath1057" d="M0,2 L14,6 L0,11 L0,2" fill="#323232" stroke="#323232" stroke-width="2"></path></marker><marker id="SvgjsMarker1060" markerWidth="16" markerHeight="12" refX="16" refY="6" viewBox="0 0 16 12" orient="auto" markerUnits="userSpaceOnUse" stroke-dasharray="0,0"><path id="SvgjsPath1061" d="M0,2 L14,6 L0,11 L0,2" fill="#323232" stroke="#323232" stroke-width="2"></path></marker><marker id="SvgjsMarker1064" markerWidth="16" markerHeight="12" refX="16" refY="6" viewBox="0 0 16 12" orient="auto" markerUnits="userSpaceOnUse" stroke-dasharray="0,0"><path id="SvgjsPath1065" d="M0,2 L14,6 L0,11 L0,2" fill="#323232" stroke="#323232" stroke-width="2"></path></marker><marker id="SvgjsMarker1100" markerWidth="16" markerHeight="12" refX="16" refY="6" viewBox="0 0 16 12" orient="auto" markerUnits="userSpaceOnUse" stroke-dasharray="0,0"><path id="SvgjsPath1101" d="M0,2 L14,6 L0,11 L0,2" fill="#323232" stroke="#323232" stroke-width="2"></path></marker><marker id="SvgjsMarker1110" markerWidth="16" markerHeight="12" refX="16" refY="6" viewBox="0 0 16 12" orient="auto" markerUnits="userSpaceOnUse" stroke-dasharray="0,0"><path id="SvgjsPath1111" d="M0,2 L14,6 L0,11 L0,2" fill="#323232" stroke="#323232" stroke-width="2"></path></marker><marker id="SvgjsMarker1132" markerWidth="16" markerHeight="12" refX="16" refY="6" viewBox="0 0 16 12" orient="auto" markerUnits="userSpaceOnUse" stroke-dasharray="0,0"><path id="SvgjsPath1133" d="M0,2 L14,6 L0,11 L0,2" fill="#323232" stroke="#323232" stroke-width="2"></path></marker><marker id="SvgjsMarker1148" markerWidth="16" markerHeight="12" refX="16" refY="6" viewBox="0 0 16 12" orient="auto" markerUnits="userSpaceOnUse" stroke-dasharray="0,0"><path id="SvgjsPath1149" d="M0,2 L14,6 L0,11 L0,2" fill="#323232" stroke="#323232" stroke-width="2"></path></marker><marker id="SvgjsMarker1164" markerWidth="16" markerHeight="12" refX="16" refY="6" viewBox="0 0 16 12" orient="auto" markerUnits="userSpaceOnUse" stroke-dasharray="0,0"><path id="SvgjsPath1165" d="M0,2 L14,6 L0,11 L0,2" fill="#323232" stroke="#323232" stroke-width="2"></path></marker><marker id="SvgjsMarker1174" markerWidth="16" markerHeight="12" refX="16" refY="6" viewBox="0 0 16 12" orient="auto" markerUnits="userSpaceOnUse" stroke-dasharray="0,0"><path id="SvgjsPath1175" d="M0,2 L14,6 L0,11 L0,2" fill="#323232" stroke="#323232" stroke-width="2"></path></marker></defs><g id="SvgjsG1008" transform="translate(185.5,25)"><path id="SvgjsPath1009" d="M 0 4Q 0 0 4 0L 151 0Q 155 0 155 4L 155 63Q 155 67 151 67L 4 67Q 0 67 0 63Z" stroke="rgba(50,50,50,1)" stroke-width="2" fill-opacity="1" fill="#ffffff"></path><g id="SvgjsG1010"><text id="SvgjsText1011" font-family="微软雅黑" text-anchor="middle" font-size="13px" width="135px" fill="#323232" font-weight="400" align="middle" anchor="middle" family="微软雅黑" size="13px" weight="400" font-style="" opacity="1" y="23.55" transform="rotate(0)"><tspan id="SvgjsTspan1012" dy="16" x="77.5"><tspan id="SvgjsTspan1013" style="text-decoration:;">创建Posix IPC</tspan></tspan></text></g></g><g id="SvgjsG1014" transform="translate(193,141)"><path id="SvgjsPath1015" d="M 0 46.5L 70 0L 140 46.5L 70 93Z" stroke="rgba(50,50,50,1)" stroke-width="2" fill-opacity="1" fill="#ffffff"></path><g id="SvgjsG1016"><text id="SvgjsText1017" font-family="微软雅黑" text-anchor="middle" font-size="13px" width="120px" fill="#323232" font-weight="400" align="middle" anchor="middle" family="微软雅黑" size="13px" weight="400" font-style="" opacity="1" y="37.015" transform="rotate(0)"><tspan id="SvgjsTspan1018" dy="16" x="70"><tspan id="SvgjsTspan1019" style="text-decoration:;">IPC对象存在</tspan></tspan></text></g></g><g id="SvgjsG1020"><path id="SvgjsPath1021" d="M263 92L263 116.5L263 116.5L263 141" stroke="#323232" stroke-width="2" fill="none" marker-end="url(#SvgjsMarker1022)"></path></g><g id="SvgjsG1024" transform="translate(193,284)"><path id="SvgjsPath1025" d="M 0 46.5L 70 0L 140 46.5L 70 93Z" stroke="rgba(50,50,50,1)" stroke-width="2" fill-opacity="1" fill="#ffffff"></path><g id="SvgjsG1026"><text id="SvgjsText1027" font-family="微软雅黑" text-anchor="middle" font-size="13px" width="120px" fill="#323232" font-weight="400" align="middle" anchor="middle" family="微软雅黑" size="13px" weight="400" font-style="" opacity="1" y="29.015" transform="rotate(0)"><tspan id="SvgjsTspan1028" dy="16" x="70"><tspan id="SvgjsTspan1029" style="text-decoration:;">设置O_CREATE和</tspan></tspan><tspan id="SvgjsTspan1030" dy="16" x="70"><tspan id="SvgjsTspan1031" style="text-decoration:;">O_EXCL</tspan></tspan></text></g></g><g id="SvgjsG1032" transform="translate(193,421)"><path id="SvgjsPath1033" d="M 0 46.5L 70 0L 140 46.5L 70 93Z" stroke="rgba(50,50,50,1)" stroke-width="2" fill-opacity="1" fill="#ffffff"></path><g id="SvgjsG1034"><text id="SvgjsText1035" font-family="微软雅黑" text-anchor="middle" font-size="13px" width="120px" fill="#323232" font-weight="400" align="middle" anchor="middle" family="微软雅黑" size="13px" weight="400" font-style="" opacity="1" y="37.015" transform="rotate(0)"><tspan id="SvgjsTspan1036" dy="16" x="70"><tspan id="SvgjsTspan1037" style="text-decoration:;">访问权限</tspan></tspan></text></g></g><g id="SvgjsG1038" transform="translate(416,141)"><path id="SvgjsPath1039" d="M 0 46.5L 70 0L 140 46.5L 70 93Z" stroke="rgba(50,50,50,1)" stroke-width="2" fill-opacity="1" fill="#ffffff"></path><g id="SvgjsG1040"><text id="SvgjsText1041" font-family="微软雅黑" text-anchor="middle" font-size="13px" width="120px" fill="#323232" font-weight="400" align="middle" anchor="middle" family="微软雅黑" size="13px" weight="400" font-style="" opacity="1" y="37.015" transform="rotate(0)"><tspan id="SvgjsTspan1042" dy="16" x="70"><tspan id="SvgjsTspan1043" style="text-decoration:;">设置了O_CREATE</tspan></tspan></text></g></g><g id="SvgjsG1044" transform="translate(416,284)"><path id="SvgjsPath1045" d="M 0 46.5L 70 0L 140 46.5L 70 93Z" stroke="rgba(50,50,50,1)" stroke-width="2" fill-opacity="1" fill="#ffffff"></path><g id="SvgjsG1046"><text id="SvgjsText1047" font-family="微软雅黑" text-anchor="middle" font-size="13px" width="120px" fill="#323232" font-weight="400" align="middle" anchor="middle" family="微软雅黑" size="13px" weight="400" font-style="" opacity="1" y="37.015" transform="rotate(0)"><tspan id="SvgjsTspan1048" dy="16" x="70"><tspan id="SvgjsTspan1049" style="text-decoration:;">系统表格已满</tspan></tspan></text></g></g><g id="SvgjsG1050"><path id="SvgjsPath1051" d="M263 234L263 259L263 259L263 284" stroke="#323232" stroke-width="2" fill="none" marker-end="url(#SvgjsMarker1052)"></path></g><g id="SvgjsG1054"><path id="SvgjsPath1055" d="M263 377L263 399L263 399L263 421" stroke="#323232" stroke-width="2" fill="none" marker-end="url(#SvgjsMarker1056)"></path></g><g id="SvgjsG1058"><path id="SvgjsPath1059" d="M333 187.5L374.5 187.5L374.5 187.5L416 187.5" stroke="#323232" stroke-width="2" fill="none" marker-end="url(#SvgjsMarker1060)"></path></g><g id="SvgjsG1062"><path id="SvgjsPath1063" d="M486 234L486 259L486 259L486 284" stroke="#323232" stroke-width="2" fill="none" marker-end="url(#SvgjsMarker1064)"></path></g><g id="SvgjsG1066" transform="translate(262.5,234)"><path id="SvgjsPath1067" d="M 0 0L 51 0L 51 32L 0 32Z" stroke="none" fill="none"></path><g id="SvgjsG1068"><text id="SvgjsText1069" font-family="微软雅黑" text-anchor="middle" font-size="13px" width="51px" fill="#323232" font-weight="400" align="middle" anchor="middle" family="微软雅黑" size="13px" weight="400" font-style="" opacity="1" y="6.05" transform="rotate(0)"><tspan id="SvgjsTspan1070" dy="16" x="25.5"><tspan id="SvgjsTspan1071" style="text-decoration:;">是</tspan></tspan></text></g></g><g id="SvgjsG1072" transform="translate(337.5,155)"><path id="SvgjsPath1073" d="M 0 0L 51 0L 51 32L 0 32Z" stroke="none" fill="none"></path><g id="SvgjsG1074"><text id="SvgjsText1075" font-family="微软雅黑" text-anchor="middle" font-size="13px" width="51px" fill="#323232" font-weight="400" align="middle" anchor="middle" family="微软雅黑" size="13px" weight="400" font-style="" opacity="1" y="6.05" transform="rotate(0)"><tspan id="SvgjsTspan1076" dy="16" x="25.5"><tspan id="SvgjsTspan1077" style="text-decoration:;">否</tspan></tspan></text></g></g><g id="SvgjsG1078" transform="translate(262.5,377)"><path id="SvgjsPath1079" d="M 0 0L 51 0L 51 32L 0 32Z" stroke="none" fill="none"></path><g id="SvgjsG1080"><text id="SvgjsText1081" font-family="微软雅黑" text-anchor="middle" font-size="13px" width="51px" fill="#323232" font-weight="400" align="middle" anchor="middle" family="微软雅黑" size="13px" weight="400" font-style="" opacity="1" y="6.05" transform="rotate(0)"><tspan id="SvgjsTspan1082" dy="16" x="25.5"><tspan id="SvgjsTspan1083" style="text-decoration:;">否</tspan></tspan></text></g></g><g id="SvgjsG1084" transform="translate(488.5,234)"><path id="SvgjsPath1085" d="M 0 0L 51 0L 51 32L 0 32Z" stroke="none" fill="none"></path><g id="SvgjsG1086"><text id="SvgjsText1087" font-family="微软雅黑" text-anchor="middle" font-size="13px" width="51px" fill="#323232" font-weight="400" align="middle" anchor="middle" family="微软雅黑" size="13px" weight="400" font-style="" opacity="1" y="6.05" transform="rotate(0)"><tspan id="SvgjsTspan1088" dy="16" x="25.5"><tspan id="SvgjsTspan1089" style="text-decoration:;">是</tspan></tspan></text></g></g><g id="SvgjsG1090" transform="translate(436,418)"><path id="SvgjsPath1091" d="M 0 0L 100 0L 100 43L 0 43Z" stroke="rgba(50,50,50,1)" stroke-width="2" fill-opacity="1" fill="#ccffcc"></path><g id="SvgjsG1092"><text id="SvgjsText1093" font-family="微软雅黑" text-anchor="middle" font-size="13px" width="80px" fill="#323232" font-weight="400" align="middle" anchor="middle" family="微软雅黑" size="13px" weight="400" font-style="" opacity="1" y="3.55" transform="rotate(0)"><tspan id="SvgjsTspan1094" dy="16" x="50"><tspan id="SvgjsTspan1095" style="text-decoration:;">成功创建新的</tspan></tspan><tspan id="SvgjsTspan1096" dy="16" x="50"><tspan id="SvgjsTspan1097" style="text-decoration:;">IPC</tspan></tspan></text></g></g><g id="SvgjsG1098"><path id="SvgjsPath1099" d="M486 377L486 397.5L486 397.5L486 418" stroke="#323232" stroke-width="2" fill="none" marker-end="url(#SvgjsMarker1100)"></path></g><g id="SvgjsG1102" transform="translate(612,309)"><path id="SvgjsPath1103" d="M 0 0L 100 0L 100 43L 0 43Z" stroke="rgba(50,50,50,1)" stroke-width="2" fill-opacity="1" fill="#ff6666"></path><g id="SvgjsG1104"><text id="SvgjsText1105" font-family="微软雅黑" text-anchor="middle" font-size="13px" width="80px" fill="#323232" font-weight="400" align="middle" anchor="middle" family="微软雅黑" size="13px" weight="400" font-style="" opacity="1" y="11.55" transform="rotate(0)"><tspan id="SvgjsTspan1106" dy="16" x="50"><tspan id="SvgjsTspan1107" style="text-decoration:;">ENOSPC</tspan></tspan></text></g></g><g id="SvgjsG1108"><path id="SvgjsPath1109" d="M556 330.5L584 330.5L584 330.5L612 330.5" stroke="#323232" stroke-width="2" fill="none" marker-end="url(#SvgjsMarker1110)"></path></g><g id="SvgjsG1112" transform="translate(556,300)"><path id="SvgjsPath1113" d="M 0 0L 51 0L 51 32L 0 32Z" stroke="none" fill="none"></path><g id="SvgjsG1114"><text id="SvgjsText1115" font-family="微软雅黑" text-anchor="middle" font-size="13px" width="51px" fill="#323232" font-weight="400" align="middle" anchor="middle" family="微软雅黑" size="13px" weight="400" font-style="" opacity="1" y="6.05" transform="rotate(0)"><tspan id="SvgjsTspan1116" dy="16" x="25.5"><tspan id="SvgjsTspan1117" style="text-decoration:;">是</tspan></tspan></text></g></g><g id="SvgjsG1118" transform="translate(488.5,377)"><path id="SvgjsPath1119" d="M 0 0L 51 0L 51 32L 0 32Z" stroke="none" fill="none"></path><g id="SvgjsG1120"><text id="SvgjsText1121" font-family="微软雅黑" text-anchor="middle" font-size="13px" width="51px" fill="#323232" font-weight="400" align="middle" anchor="middle" family="微软雅黑" size="13px" weight="400" font-style="" opacity="1" y="6.05" transform="rotate(0)"><tspan id="SvgjsTspan1122" dy="16" x="25.5"><tspan id="SvgjsTspan1123" style="text-decoration:;">否</tspan></tspan></text></g></g><g id="SvgjsG1124" transform="translate(612,166)"><path id="SvgjsPath1125" d="M 0 0L 100 0L 100 43L 0 43Z" stroke="rgba(50,50,50,1)" stroke-width="2" fill-opacity="1" fill="#ff6666"></path><g id="SvgjsG1126"><text id="SvgjsText1127" font-family="微软雅黑" text-anchor="middle" font-size="13px" width="80px" fill="#323232" font-weight="400" align="middle" anchor="middle" family="微软雅黑" size="13px" weight="400" font-style="" opacity="1" y="11.55" transform="rotate(0)"><tspan id="SvgjsTspan1128" dy="16" x="50"><tspan id="SvgjsTspan1129" style="text-decoration:;">ENOENT</tspan></tspan></text></g></g><g id="SvgjsG1130"><path id="SvgjsPath1131" d="M556 187.5L584 187.5L584 187.5L612 187.5" stroke="#323232" stroke-width="2" fill="none" marker-end="url(#SvgjsMarker1132)"></path></g><g id="SvgjsG1134" transform="translate(551.5,155)"><path id="SvgjsPath1135" d="M 0 0L 51 0L 51 32L 0 32Z" stroke="none" fill="none"></path><g id="SvgjsG1136"><text id="SvgjsText1137" font-family="微软雅黑" text-anchor="middle" font-size="13px" width="51px" fill="#323232" font-weight="400" align="middle" anchor="middle" family="微软雅黑" size="13px" weight="400" font-style="" opacity="1" y="6.05" transform="rotate(0)"><tspan id="SvgjsTspan1138" dy="16" x="25.5"><tspan id="SvgjsTspan1139" style="text-decoration:;">否</tspan></tspan></text></g></g><g id="SvgjsG1140" transform="translate(25,309)"><path id="SvgjsPath1141" d="M 0 0L 100 0L 100 43L 0 43Z" stroke="rgba(50,50,50,1)" stroke-width="2" fill-opacity="1" fill="#ff6666"></path><g id="SvgjsG1142"><text id="SvgjsText1143" font-family="微软雅黑" text-anchor="middle" font-size="13px" width="80px" fill="#323232" font-weight="400" align="middle" anchor="middle" family="微软雅黑" size="13px" weight="400" font-style="" opacity="1" y="11.55" transform="rotate(0)"><tspan id="SvgjsTspan1144" dy="16" x="50"><tspan id="SvgjsTspan1145" style="text-decoration:;">EEXIST</tspan></tspan></text></g></g><g id="SvgjsG1146"><path id="SvgjsPath1147" d="M193 330.5L159 330.5L159 330.5L125 330.5" stroke="#323232" stroke-width="2" fill="none" marker-end="url(#SvgjsMarker1148)"></path></g><g id="SvgjsG1150" transform="translate(145.5,300)"><path id="SvgjsPath1151" d="M 0 0L 51 0L 51 32L 0 32Z" stroke="none" fill="none"></path><g id="SvgjsG1152"><text id="SvgjsText1153" font-family="微软雅黑" text-anchor="middle" font-size="13px" width="51px" fill="#323232" font-weight="400" align="middle" anchor="middle" family="微软雅黑" size="13px" weight="400" font-style="" opacity="1" y="6.05" transform="rotate(0)"><tspan id="SvgjsTspan1154" dy="16" x="25.5"><tspan id="SvgjsTspan1155" style="text-decoration:;">是</tspan></tspan></text></g></g><g id="SvgjsG1156" transform="translate(213.5,536)"><path id="SvgjsPath1157" d="M 0 0L 100 0L 100 43L 0 43Z" stroke="rgba(50,50,50,1)" stroke-width="2" fill-opacity="1" fill="#ccffcc"></path><g id="SvgjsG1158"><text id="SvgjsText1159" font-family="微软雅黑" text-anchor="middle" font-size="13px" width="80px" fill="#323232" font-weight="400" align="middle" anchor="middle" family="微软雅黑" size="13px" weight="400" font-style="" opacity="1" y="11.55" transform="rotate(0)"><tspan id="SvgjsTspan1160" dy="16" x="50"><tspan id="SvgjsTspan1161" style="text-decoration:;">成功打开IPC</tspan></tspan></text></g></g><g id="SvgjsG1162"><path id="SvgjsPath1163" d="M263 514L263 525L263.5 525L263.5 536" stroke="#323232" stroke-width="2" fill="none" marker-end="url(#SvgjsMarker1164)"></path></g><g id="SvgjsG1166" transform="translate(25,446)"><path id="SvgjsPath1167" d="M 0 0L 100 0L 100 43L 0 43Z" stroke="rgba(50,50,50,1)" stroke-width="2" fill-opacity="1" fill="#ff6666"></path><g id="SvgjsG1168"><text id="SvgjsText1169" font-family="微软雅黑" text-anchor="middle" font-size="13px" width="80px" fill="#323232" font-weight="400" align="middle" anchor="middle" family="微软雅黑" size="13px" weight="400" font-style="" opacity="1" y="11.55" transform="rotate(0)"><tspan id="SvgjsTspan1170" dy="16" x="50"><tspan id="SvgjsTspan1171" style="text-decoration:;">EACCES</tspan></tspan></text></g></g><g id="SvgjsG1172"><path id="SvgjsPath1173" d="M193 467.5L159 467.5L159 467.5L125 467.5" stroke="#323232" stroke-width="2" fill="none" marker-end="url(#SvgjsMarker1174)"></path></g></svg>