<svg id="SvgjsSvg1518" width="785" height="404" xmlns="http://www.w3.org/2000/svg" version="1.1" xmlns:xlink="http://www.w3.org/1999/xlink" xmlns:svgjs="http://svgjs.com/svgjs"><defs id="SvgjsDefs1519"><marker id="SvgjsMarker1552" markerWidth="16" markerHeight="12" refX="16" refY="6" viewBox="0 0 16 12" orient="auto" markerUnits="userSpaceOnUse" stroke-dasharray="0,0"><path id="SvgjsPath1553" d="M0,2 L14,6 L0,11 L0,2" fill="#323232" stroke="#323232" stroke-width="2"></path></marker><marker id="SvgjsMarker1556" markerWidth="16" markerHeight="12" refX="16" refY="6" viewBox="0 0 16 12" orient="auto" markerUnits="userSpaceOnUse" stroke-dasharray="0,0"><path id="SvgjsPath1557" d="M0,2 L14,6 L0,11 L0,2" fill="#323232" stroke="#323232" stroke-width="2"></path></marker><marker id="SvgjsMarker1609" markerWidth="16" markerHeight="12" refX="16" refY="6" viewBox="0 0 16 12" orient="auto" markerUnits="userSpaceOnUse" stroke-dasharray="0,0"><path id="SvgjsPath1610" d="M0,2 L14,6 L0,11 L0,2" fill="#323232" stroke="#323232" stroke-width="2"></path></marker><marker id="SvgjsMarker1621" markerWidth="16" markerHeight="12" refX="16" refY="6" viewBox="0 0 16 12" orient="auto" markerUnits="userSpaceOnUse" stroke-dasharray="0,0"><path id="SvgjsPath1622" d="M0,2 L14,6 L0,11 L0,2" fill="#323232" stroke="#323232" stroke-width="2"></path></marker><marker id="SvgjsMarker1631" markerWidth="16" markerHeight="12" refX="16" refY="6" viewBox="0 0 16 12" orient="auto" markerUnits="userSpaceOnUse" stroke-dasharray="0,0"><path id="SvgjsPath1632" d="M0,2 L14,6 L0,11 L0,2" fill="#323232" stroke="#323232" stroke-width="2"></path></marker><marker id="SvgjsMarker1650" markerWidth="16" markerHeight="12" refX="16" refY="6" viewBox="0 0 16 12" orient="auto" markerUnits="userSpaceOnUse" stroke-dasharray="0,0"><path id="SvgjsPath1651" d="M0,2 L14,6 L0,11 L0,2" fill="#323232" stroke="#323232" stroke-width="2"></path></marker></defs><g id="SvgjsG1520" transform="translate(187,78)"><path id="SvgjsPath1521" d="M 0 0L 74 0L 74 36L 0 36Z" stroke="none" fill="none"></path><g id="SvgjsG1522"><text id="SvgjsText1523" font-family="微软雅黑" text-anchor="middle" font-size="13px" width="74px" fill="#323232" font-weight="400" align="middle" anchor="middle" family="微软雅黑" size="13px" weight="400" font-style="" opacity="1" y="-7.95" transform="rotate(0)"><tspan id="SvgjsTspan1524" dy="16" x="37"><tspan id="SvgjsTspan1525" style="text-decoration:;">建立SIGIO的</tspan></tspan><tspan id="SvgjsTspan1526" dy="16" x="37"><tspan id="SvgjsTspan1527" style="text-decoration:;">信号处理程</tspan></tspan><tspan id="SvgjsTspan1528" dy="16" x="37"><tspan id="SvgjsTspan1529" style="text-decoration:;">序</tspan></tspan></text></g></g><g id="SvgjsG1530" transform="translate(547,213)"><path id="SvgjsPath1531" d="M 0 0L 110 0L 110 36L 0 36Z" stroke="none" fill="none"></path><g id="SvgjsG1532"><text id="SvgjsText1533" font-family="微软雅黑" text-anchor="middle" font-size="13px" width="110px" fill="#323232" font-weight="400" align="middle" anchor="middle" family="微软雅黑" size="13px" weight="400" font-style="" opacity="1" y="0.050000000000000044" transform="rotate(0)"><tspan id="SvgjsTspan1534" dy="16" x="55"><tspan id="SvgjsTspan1535" style="text-decoration:;">数据报准备好</tspan></tspan><tspan id="SvgjsTspan1536" dy="16" x="55"><tspan id="SvgjsTspan1537" style="text-decoration:;">复制数据报</tspan></tspan></text></g></g><g id="SvgjsG1538" transform="translate(547,343)"><path id="SvgjsPath1539" d="M 0 0L 110 0L 110 36L 0 36Z" stroke="none" fill="none"></path><g id="SvgjsG1540"><text id="SvgjsText1541" font-family="微软雅黑" text-anchor="middle" font-size="13px" width="110px" fill="#323232" font-weight="400" align="middle" anchor="middle" family="微软雅黑" size="13px" weight="400" font-style="" opacity="1" y="8.05" transform="rotate(0)"><tspan id="SvgjsTspan1542" dy="16" x="55"><tspan id="SvgjsTspan1543" style="text-decoration:;">复制完成</tspan></tspan></text></g></g><g id="SvgjsG1544" transform="translate(169,343)"><path id="SvgjsPath1545" d="M 0 0L 110 0L 110 36L 0 36Z" stroke="none" fill="none"></path><g id="SvgjsG1546"><text id="SvgjsText1547" font-family="微软雅黑" text-anchor="middle" font-size="13px" width="110px" fill="#323232" font-weight="400" align="middle" anchor="middle" family="微软雅黑" size="13px" weight="400" font-style="" opacity="1" y="8.05" transform="rotate(0)"><tspan id="SvgjsTspan1548" dy="16" x="55"><tspan id="SvgjsTspan1549" style="text-decoration:;">处理数据报</tspan></tspan></text></g></g><g id="SvgjsG1550"><path id="SvgjsPath1551" d="M309 96L406.5 96L406.5 96L504 96" stroke="#323232" stroke-width="2" fill="none" marker-end="url(#SvgjsMarker1552)"></path></g><g id="SvgjsG1554"><path id="SvgjsPath1555" d="M510 358L407 358L407 358L304 358" stroke="#323232" stroke-width="2" fill="none" marker-end="url(#SvgjsMarker1556)"></path></g><g id="SvgjsG1558" transform="translate(349,58)"><path id="SvgjsPath1559" d="M 0 0L 110 0L 110 36L 0 36Z" stroke="none" fill="none"></path><g id="SvgjsG1560"><text id="SvgjsText1561" font-family="微软雅黑" text-anchor="middle" font-size="13px" width="110px" fill="#323232" font-weight="400" align="middle" anchor="middle" family="微软雅黑" size="13px" weight="400" font-style="" opacity="1" y="8.05" transform="rotate(0)"><tspan id="SvgjsTspan1562" dy="16" x="55"><tspan id="SvgjsTspan1563" style="text-decoration:;">sigaction系统调用</tspan></tspan></text></g></g><g id="SvgjsG1564" transform="translate(349,323)"><path id="SvgjsPath1565" d="M 0 0L 110 0L 110 36L 0 36Z" stroke="none" fill="none"></path><g id="SvgjsG1566"><text id="SvgjsText1567" font-family="微软雅黑" text-anchor="middle" font-size="13px" width="110px" fill="#323232" font-weight="400" align="middle" anchor="middle" family="微软雅黑" size="13px" weight="400" font-style="" opacity="1" y="8.05" transform="rotate(0)"><tspan id="SvgjsTspan1568" dy="16" x="55"><tspan id="SvgjsTspan1569" style="text-decoration:;">返回成功指示</tspan></tspan></text></g></g><g id="SvgjsG1570" transform="translate(187,25)"><path id="SvgjsPath1571" d="M 0 0L 74 0L 74 36L 0 36Z" stroke="none" fill="none"></path><g id="SvgjsG1572"><text id="SvgjsText1573" font-family="微软雅黑" text-anchor="middle" font-size="13px" width="74px" fill="#323232" font-weight="700" align="middle" anchor="middle" family="微软雅黑" size="13px" weight="700" font-style="" opacity="1" y="8.05" transform="rotate(0)"><tspan id="SvgjsTspan1574" dy="16" x="37"><tspan id="SvgjsTspan1575" style="text-decoration:;">应用进程</tspan></tspan></text></g></g><g id="SvgjsG1576" transform="translate(565,29)"><path id="SvgjsPath1577" d="M 0 0L 74 0L 74 36L 0 36Z" stroke="none" fill="none"></path><g id="SvgjsG1578"><text id="SvgjsText1579" font-family="微软雅黑" text-anchor="middle" font-size="13px" width="74px" fill="#323232" font-weight="700" align="middle" anchor="middle" family="微软雅黑" size="13px" weight="700" font-style="" opacity="1" y="8.05" transform="rotate(0)"><tspan id="SvgjsTspan1580" dy="16" x="37"><tspan id="SvgjsTspan1581" style="text-decoration:;">内核</tspan></tspan></text></g></g><g id="SvgjsG1582" transform="translate(47,94)"><path id="SvgjsPath1583" d="M 144 0Q 135 0 135 9L 135 61Q 135 70 122 70Q 135 70 135 79L 135 131Q 135 140 144 140" stroke="rgba(50,50,50,1)" stroke-width="2" fill="none"></path><path id="SvgjsPath1584" d="M 0 0L 144 0L 144 140L 0 140Z" stroke="none" fill="none"></path><g id="SvgjsG1585"><text id="SvgjsText1586" font-family="微软雅黑" text-anchor="middle" font-size="13px" width="117px" fill="#323232" font-weight="400" align="middle" anchor="middle" family="微软雅黑" size="13px" weight="400" font-style="" opacity="1" y="60.05" transform="rotate(0)"><tspan id="SvgjsTspan1587" dy="16" x="58.5"><tspan id="SvgjsTspan1588" style="text-decoration:;">进程继续执行</tspan></tspan></text></g></g><g id="SvgjsG1589" transform="translate(660,94)"><path id="SvgjsPath1590" d="M 0 140Q 9 140 9 131L 9 79Q 9 70 22 70Q 9 70 9 61L 9 9Q 9 0 0 0" stroke="rgba(50,50,50,1)" stroke-width="2" fill="none"></path><path id="SvgjsPath1591" d="M 0 0L 100 0L 100 140L 0 140Z" stroke="none" fill="none"></path><g id="SvgjsG1592"><text id="SvgjsText1593" font-family="微软雅黑" text-anchor="middle" font-size="13px" width="73px" fill="#323232" font-weight="400" align="middle" anchor="middle" family="微软雅黑" size="13px" weight="400" font-style="" opacity="1" y="60.05" transform="rotate(0)"><tspan id="SvgjsTspan1594" dy="16" x="63.5"><tspan id="SvgjsTspan1595" style="text-decoration:;">等待数据</tspan></tspan></text></g></g><g id="SvgjsG1596" transform="translate(660,234)"><path id="SvgjsPath1597" d="M 0 129Q 9 129 9 120L 9 73.5Q 9 64.5 22 64.5Q 9 64.5 9 55.5L 9 9Q 9 0 0 0" stroke="rgba(50,50,50,1)" stroke-width="2" fill="none"></path><path id="SvgjsPath1598" d="M 0 0L 100 0L 100 129L 0 129Z" stroke="none" fill="none"></path><g id="SvgjsG1599"><text id="SvgjsText1600" font-family="微软雅黑" text-anchor="middle" font-size="13px" width="73px" fill="#323232" font-weight="400" align="middle" anchor="middle" family="微软雅黑" size="13px" weight="400" font-style="" opacity="1" y="38.55" transform="rotate(0)"><tspan id="SvgjsTspan1601" dy="16" x="63.5"><tspan id="SvgjsTspan1602" style="text-decoration:;">将数据从内</tspan></tspan><tspan id="SvgjsTspan1603" dy="16" x="63.5"><tspan id="SvgjsTspan1604" style="text-decoration:;">核复制到数</tspan></tspan><tspan id="SvgjsTspan1605" dy="16" x="63.5"><tspan id="SvgjsTspan1606" style="text-decoration:;">据空间</tspan></tspan></text></g></g><g id="SvgjsG1607"><path id="SvgjsPath1608" d="M602 250L602 296.5L602 296.5L602 343" stroke="#323232" stroke-width="2" fill="none" marker-end="url(#SvgjsMarker1609)"></path></g><g id="SvgjsG1611" transform="translate(187,213)"><path id="SvgjsPath1612" d="M 0 0L 87 0L 87 36L 0 36Z" stroke="none" fill="none"></path><g id="SvgjsG1613"><text id="SvgjsText1614" font-family="微软雅黑" text-anchor="middle" font-size="13px" width="87px" fill="#323232" font-weight="400" align="middle" anchor="middle" family="微软雅黑" size="13px" weight="400" font-style="" opacity="1" y="0.050000000000000044" transform="rotate(0)"><tspan id="SvgjsTspan1615" dy="16" x="43.5"><tspan id="SvgjsTspan1616" style="text-decoration:;">信号处理程序</tspan></tspan><tspan id="SvgjsTspan1617" dy="16" x="43.5"><tspan id="SvgjsTspan1618" style="text-decoration:;">recvfrom</tspan></tspan></text></g></g><g id="SvgjsG1619"><path id="SvgjsPath1620" d="M306.5 240.5L404 240.5L404 240.5L501.5 240.5" stroke="#323232" stroke-width="2" fill="none" marker-end="url(#SvgjsMarker1621)"></path></g><g id="SvgjsG1623" transform="translate(341.5,240.5)"><path id="SvgjsPath1624" d="M 0 0L 110 0L 110 36L 0 36Z" stroke="none" fill="none"></path><g id="SvgjsG1625"><text id="SvgjsText1626" font-family="微软雅黑" text-anchor="middle" font-size="13px" width="110px" fill="#323232" font-weight="400" align="middle" anchor="middle" family="微软雅黑" size="13px" weight="400" font-style="" opacity="1" y="8.05" transform="rotate(0)"><tspan id="SvgjsTspan1627" dy="16" x="55"><tspan id="SvgjsTspan1628" style="text-decoration:;">系统调用</tspan></tspan></text></g></g><g id="SvgjsG1629"><path id="SvgjsPath1630" d="M499 219L403.5 219L403.5 219L308 219" stroke="#323232" stroke-width="2" fill="none" marker-end="url(#SvgjsMarker1631)"></path></g><g id="SvgjsG1633" transform="translate(346,181)"><path id="SvgjsPath1634" d="M 0 0L 110 0L 110 36L 0 36Z" stroke="none" fill="none"></path><g id="SvgjsG1635"><text id="SvgjsText1636" font-family="微软雅黑" text-anchor="middle" font-size="13px" width="110px" fill="#323232" font-weight="400" align="middle" anchor="middle" family="微软雅黑" size="13px" weight="400" font-style="" opacity="1" y="8.05" transform="rotate(0)"><tspan id="SvgjsTspan1637" dy="16" x="55"><tspan id="SvgjsTspan1638" style="text-decoration:;">递交SIGIO</tspan></tspan></text></g></g><g id="SvgjsG1639" transform="translate(25,240.5)"><path id="SvgjsPath1640" d="M 166 0Q 157 0 157 9L 157 52.25Q 157 61.25 144 61.25Q 157 61.25 157 70.25L 157 113.5Q 157 122.5 166 122.5" stroke="rgba(50,50,50,1)" stroke-width="2" fill="none"></path><path id="SvgjsPath1641" d="M 0 0L 166 0L 166 122.5L 0 122.5Z" stroke="none" fill="none"></path><g id="SvgjsG1642"><text id="SvgjsText1643" font-family="微软雅黑" text-anchor="middle" font-size="13px" width="139px" fill="#323232" font-weight="400" align="middle" anchor="middle" family="微软雅黑" size="13px" weight="400" font-style="" opacity="1" y="43.3" transform="rotate(0)"><tspan id="SvgjsTspan1644" dy="16" x="69.5"><tspan id="SvgjsTspan1645" style="text-decoration:;">数据复制到应用缓冲区</tspan></tspan><tspan id="SvgjsTspan1646" dy="16" x="69.5"><tspan id="SvgjsTspan1647" style="text-decoration:;">期间进程阻塞</tspan></tspan></text></g></g><g id="SvgjsG1648"><path id="SvgjsPath1649" d="M501 111L405.5 111L405.5 111L310 111" stroke="#323232" stroke-width="2" fill="none" marker-end="url(#SvgjsMarker1650)"></path></g><g id="SvgjsG1652" transform="translate(341.5,114)"><path id="SvgjsPath1653" d="M 0 0L 110 0L 110 36L 0 36Z" stroke="none" fill="none"></path><g id="SvgjsG1654"><text id="SvgjsText1655" font-family="微软雅黑" text-anchor="middle" font-size="13px" width="110px" fill="#323232" font-weight="400" align="middle" anchor="middle" family="微软雅黑" size="13px" weight="400" font-style="" opacity="1" y="8.05" transform="rotate(0)"><tspan id="SvgjsTspan1656" dy="16" x="55"><tspan id="SvgjsTspan1657" style="text-decoration:;">返回</tspan></tspan></text></g></g></svg>