<svg id="SvgjsSvg1006" width="738" height="762" xmlns="http://www.w3.org/2000/svg" version="1.1" xmlns:xlink="http://www.w3.org/1999/xlink" xmlns:svgjs="http://svgjs.com/svgjs"><defs id="SvgjsDefs1007"><marker id="SvgjsMarker1024" markerWidth="16" markerHeight="12" refX="16" refY="6" viewBox="0 0 16 12" orient="auto" markerUnits="userSpaceOnUse" stroke-dasharray="0,0"><path id="SvgjsPath1025" d="M0,2 L14,6 L0,11 L0,2" fill="#323232" stroke="#323232" stroke-width="2"></path></marker><marker id="SvgjsMarker1046" markerWidth="16" markerHeight="12" refX="16" refY="6" viewBox="0 0 16 12" orient="auto" markerUnits="userSpaceOnUse" stroke-dasharray="0,0"><path id="SvgjsPath1047" d="M0,2 L14,6 L0,11 L0,2" fill="#323232" stroke="#323232" stroke-width="2"></path></marker><marker id="SvgjsMarker1076" markerWidth="16" markerHeight="12" refX="16" refY="6" viewBox="0 0 16 12" orient="auto" markerUnits="userSpaceOnUse" stroke-dasharray="0,0"><path id="SvgjsPath1077" d="M0,2 L14,6 L0,11 L0,2" fill="#323232" stroke="#323232" stroke-width="2"></path></marker><marker id="SvgjsMarker1112" markerWidth="16" markerHeight="12" refX="16" refY="6" viewBox="0 0 16 12" orient="auto" markerUnits="userSpaceOnUse" stroke-dasharray="0,0"><path id="SvgjsPath1113" d="M0,2 L14,6 L0,11 L0,2" fill="#323232" stroke="#323232" stroke-width="2"></path></marker><marker id="SvgjsMarker1122" markerWidth="16" markerHeight="12" refX="16" refY="6" viewBox="0 0 16 12" orient="auto" markerUnits="userSpaceOnUse" stroke-dasharray="0,0"><path id="SvgjsPath1123" d="M0,2 L14,6 L0,11 L0,2" fill="#323232" stroke="#323232" stroke-width="2"></path></marker><marker id="SvgjsMarker1126" markerWidth="16" markerHeight="12" refX="16" refY="6" viewBox="0 0 16 12" orient="auto" markerUnits="userSpaceOnUse" stroke-dasharray="0,0"><path id="SvgjsPath1127" d="M0,2 L14,6 L0,11 L0,2" fill="#323232" stroke="#323232" stroke-width="2"></path></marker><marker id="SvgjsMarker1136" markerWidth="16" markerHeight="12" refX="16" refY="6" viewBox="0 0 16 12" orient="auto" markerUnits="userSpaceOnUse" stroke-dasharray="0,0"><path id="SvgjsPath1137" d="M0,2 L14,6 L0,11 L0,2" fill="#323232" stroke="#323232" stroke-width="2"></path></marker><marker id="SvgjsMarker1146" markerWidth="16" markerHeight="12" refX="16" refY="6" viewBox="0 0 16 12" orient="auto" markerUnits="userSpaceOnUse" stroke-dasharray="0,0"><path id="SvgjsPath1147" d="M0,2 L14,6 L0,11 L0,2" fill="#323232" stroke="#323232" stroke-width="2"></path></marker><marker id="SvgjsMarker1158" markerWidth="16" markerHeight="12" refX="16" refY="6" viewBox="0 0 16 12" orient="auto" markerUnits="userSpaceOnUse" stroke-dasharray="0,0"><path id="SvgjsPath1159" d="M0,2 L14,6 L0,11 L0,2" fill="#323232" stroke="#323232" stroke-width="2"></path></marker><marker id="SvgjsMarker1162" markerWidth="16" markerHeight="12" refX="16" refY="6" viewBox="0 0 16 12" orient="auto" markerUnits="userSpaceOnUse" stroke-dasharray="0,0"><path id="SvgjsPath1163" d="M0,2 L14,6 L0,11 L0,2" fill="#323232" stroke="#323232" stroke-width="2"></path></marker><marker id="SvgjsMarker1184" markerWidth="16" markerHeight="12" refX="16" refY="6" viewBox="0 0 16 12" orient="auto" markerUnits="userSpaceOnUse" stroke-dasharray="0,0"><path id="SvgjsPath1185" d="M0,2 L14,6 L0,11 L0,2" fill="#323232" stroke="#323232" stroke-width="2"></path></marker><marker id="SvgjsMarker1194" markerWidth="16" markerHeight="12" refX="16" refY="6" viewBox="0 0 16 12" orient="auto" markerUnits="userSpaceOnUse" stroke-dasharray="0,0"><path id="SvgjsPath1195" d="M0,2 L14,6 L0,11 L0,2" fill="#323232" stroke="#323232" stroke-width="2"></path></marker><marker id="SvgjsMarker1210" markerWidth="16" markerHeight="12" refX="16" refY="6" viewBox="0 0 16 12" orient="auto" markerUnits="userSpaceOnUse" stroke-dasharray="0,0"><path id="SvgjsPath1211" d="M0,2 L14,6 L0,11 L0,2" fill="#323232" stroke="#323232" stroke-width="2"></path></marker></defs><g id="SvgjsG1008" transform="translate(185.5,25)"><path id="SvgjsPath1009" d="M 0 4Q 0 0 4 0L 151 0Q 155 0 155 4L 155 63Q 155 67 151 67L 4 67Q 0 67 0 63Z" stroke="rgba(50,50,50,1)" stroke-width="2" fill-opacity="1" fill="#ffffff"></path><g id="SvgjsG1010"><text id="SvgjsText1011" font-family="微软雅黑" text-anchor="middle" font-size="13px" width="135px" fill="#323232" font-weight="400" align="middle" anchor="middle" family="微软雅黑" size="13px" weight="400" font-style="" opacity="1" y="23.55" transform="rotate(0)"><tspan id="SvgjsTspan1012" dy="16" x="77.5"><tspan id="SvgjsTspan1013" style="text-decoration:;">创建Posix IPC</tspan></tspan></text></g></g><g id="SvgjsG1014" transform="translate(193,141)"><path id="SvgjsPath1015" d="M 0 46.5L 70 0L 140 46.5L 70 93Z" stroke="rgba(50,50,50,1)" stroke-width="2" fill-opacity="1" fill="#ffffff"></path><g id="SvgjsG1016"><text id="SvgjsText1017" font-family="微软雅黑" text-anchor="middle" font-size="13px" width="120px" fill="#323232" font-weight="400" align="middle" anchor="middle" family="微软雅黑" size="13px" weight="400" font-style="" opacity="1" y="29.015" transform="rotate(0)"><tspan id="SvgjsTspan1018" dy="16" x="70"><tspan id="SvgjsTspan1019" style="text-decoration:;">key == </tspan></tspan><tspan id="SvgjsTspan1020" dy="16" x="70"><tspan id="SvgjsTspan1021" style="text-decoration:;">IPC_PRIVATE</tspan></tspan></text></g></g><g id="SvgjsG1022"><path id="SvgjsPath1023" d="M263 92L263 116.5L263 116.5L263 141" stroke="#323232" stroke-width="2" fill="none" marker-end="url(#SvgjsMarker1024)"></path></g><g id="SvgjsG1026" transform="translate(193,284)"><path id="SvgjsPath1027" d="M 0 46.5L 70 0L 140 46.5L 70 93Z" stroke="rgba(50,50,50,1)" stroke-width="2" fill-opacity="1" fill="#ffffff"></path><g id="SvgjsG1028"><text id="SvgjsText1029" font-family="微软雅黑" text-anchor="middle" font-size="13px" width="120px" fill="#323232" font-weight="400" align="middle" anchor="middle" family="微软雅黑" size="13px" weight="400" font-style="" opacity="1" y="37.015" transform="rotate(0)"><tspan id="SvgjsTspan1030" dy="16" x="70"><tspan id="SvgjsTspan1031" style="text-decoration:;">key存在</tspan></tspan></text></g></g><g id="SvgjsG1032" transform="translate(193,562)"><path id="SvgjsPath1033" d="M 0 46.5L 70 0L 140 46.5L 70 93Z" stroke="rgba(50,50,50,1)" stroke-width="2" fill-opacity="1" fill="#ffffff"></path><g id="SvgjsG1034"><text id="SvgjsText1035" font-family="微软雅黑" text-anchor="middle" font-size="13px" width="120px" fill="#323232" font-weight="400" align="middle" anchor="middle" family="微软雅黑" size="13px" weight="400" font-style="" opacity="1" y="37.015" transform="rotate(0)"><tspan id="SvgjsTspan1036" dy="16" x="70"><tspan id="SvgjsTspan1037" style="text-decoration:;">访问权限</tspan></tspan></text></g></g><g id="SvgjsG1038" transform="translate(416,141)"><path id="SvgjsPath1039" d="M 0 46.5L 70 0L 140 46.5L 70 93Z" stroke="rgba(50,50,50,1)" stroke-width="2" fill-opacity="1" fill="#ffffff"></path><g id="SvgjsG1040"><text id="SvgjsText1041" font-family="微软雅黑" text-anchor="middle" font-size="13px" width="120px" fill="#323232" font-weight="400" align="middle" anchor="middle" family="微软雅黑" size="13px" weight="400" font-style="" opacity="1" y="37.015" transform="rotate(0)"><tspan id="SvgjsTspan1042" dy="16" x="70"><tspan id="SvgjsTspan1043" style="text-decoration:;">系统表格已满</tspan></tspan></text></g></g><g id="SvgjsG1044"><path id="SvgjsPath1045" d="M263 234L263 259L263 259L263 284" stroke="#323232" stroke-width="2" fill="none" marker-end="url(#SvgjsMarker1046)"></path></g><g id="SvgjsG1048" transform="translate(262.5,234)"><path id="SvgjsPath1049" d="M 0 0L 51 0L 51 32L 0 32Z" stroke="none" fill="none"></path><g id="SvgjsG1050"><text id="SvgjsText1051" font-family="微软雅黑" text-anchor="middle" font-size="13px" width="51px" fill="#323232" font-weight="400" align="middle" anchor="middle" family="微软雅黑" size="13px" weight="400" font-style="" opacity="1" y="6.05" transform="rotate(0)"><tspan id="SvgjsTspan1052" dy="16" x="25.5"><tspan id="SvgjsTspan1053" style="text-decoration:;">否</tspan></tspan></text></g></g><g id="SvgjsG1054" transform="translate(262.5,377)"><path id="SvgjsPath1055" d="M 0 0L 51 0L 51 32L 0 32Z" stroke="none" fill="none"></path><g id="SvgjsG1056"><text id="SvgjsText1057" font-family="微软雅黑" text-anchor="middle" font-size="13px" width="51px" fill="#323232" font-weight="400" align="middle" anchor="middle" family="微软雅黑" size="13px" weight="400" font-style="" opacity="1" y="6.05" transform="rotate(0)"><tspan id="SvgjsTspan1058" dy="16" x="25.5"><tspan id="SvgjsTspan1059" style="text-decoration:;">是</tspan></tspan></text></g></g><g id="SvgjsG1060" transform="translate(436,53)"><path id="SvgjsPath1061" d="M 0 0L 100 0L 100 43L 0 43Z" stroke="rgba(50,50,50,1)" stroke-width="2" fill-opacity="1" fill="#ccffcc"></path><g id="SvgjsG1062"><text id="SvgjsText1063" font-family="微软雅黑" text-anchor="middle" font-size="13px" width="80px" fill="#323232" font-weight="400" align="middle" anchor="middle" family="微软雅黑" size="13px" weight="400" font-style="" opacity="1" y="3.55" transform="rotate(0)"><tspan id="SvgjsTspan1064" dy="16" x="50"><tspan id="SvgjsTspan1065" style="text-decoration:;">成功创建新的</tspan></tspan><tspan id="SvgjsTspan1066" dy="16" x="50"><tspan id="SvgjsTspan1067" style="text-decoration:;">IPC</tspan></tspan></text></g></g><g id="SvgjsG1068" transform="translate(613,166)"><path id="SvgjsPath1069" d="M 0 0L 100 0L 100 43L 0 43Z" stroke="rgba(50,50,50,1)" stroke-width="2" fill-opacity="1" fill="#ff6666"></path><g id="SvgjsG1070"><text id="SvgjsText1071" font-family="微软雅黑" text-anchor="middle" font-size="13px" width="80px" fill="#323232" font-weight="400" align="middle" anchor="middle" family="微软雅黑" size="13px" weight="400" font-style="" opacity="1" y="11.55" transform="rotate(0)"><tspan id="SvgjsTspan1072" dy="16" x="50"><tspan id="SvgjsTspan1073" style="text-decoration:;">ENOSPC</tspan></tspan></text></g></g><g id="SvgjsG1074"><path id="SvgjsPath1075" d="M556 187.5L584.5 187.5L584.5 187.5L613 187.5" stroke="#323232" stroke-width="2" fill="none" marker-end="url(#SvgjsMarker1076)"></path></g><g id="SvgjsG1078" transform="translate(556,154)"><path id="SvgjsPath1079" d="M 0 0L 51 0L 51 32L 0 32Z" stroke="none" fill="none"></path><g id="SvgjsG1080"><text id="SvgjsText1081" font-family="微软雅黑" text-anchor="middle" font-size="13px" width="51px" fill="#323232" font-weight="400" align="middle" anchor="middle" family="微软雅黑" size="13px" weight="400" font-style="" opacity="1" y="6.05" transform="rotate(0)"><tspan id="SvgjsTspan1082" dy="16" x="25.5"><tspan id="SvgjsTspan1083" style="text-decoration:;">是</tspan></tspan></text></g></g><g id="SvgjsG1084" transform="translate(485,109)"><path id="SvgjsPath1085" d="M 0 0L 51 0L 51 32L 0 32Z" stroke="none" fill="none"></path><g id="SvgjsG1086"><text id="SvgjsText1087" font-family="微软雅黑" text-anchor="middle" font-size="13px" width="51px" fill="#323232" font-weight="400" align="middle" anchor="middle" family="微软雅黑" size="13px" weight="400" font-style="" opacity="1" y="6.05" transform="rotate(0)"><tspan id="SvgjsTspan1088" dy="16" x="25.5"><tspan id="SvgjsTspan1089" style="text-decoration:;">否</tspan></tspan></text></g></g><g id="SvgjsG1090" transform="translate(25,456.5)"><path id="SvgjsPath1091" d="M 0 0L 100 0L 100 43L 0 43Z" stroke="rgba(50,50,50,1)" stroke-width="2" fill-opacity="1" fill="#ff6666"></path><g id="SvgjsG1092"><text id="SvgjsText1093" font-family="微软雅黑" text-anchor="middle" font-size="13px" width="80px" fill="#323232" font-weight="400" align="middle" anchor="middle" family="微软雅黑" size="13px" weight="400" font-style="" opacity="1" y="11.55" transform="rotate(0)"><tspan id="SvgjsTspan1094" dy="16" x="50"><tspan id="SvgjsTspan1095" style="text-decoration:;">EEXIST</tspan></tspan></text></g></g><g id="SvgjsG1096" transform="translate(333,299)"><path id="SvgjsPath1097" d="M 0 0L 51 0L 51 32L 0 32Z" stroke="none" fill="none"></path><g id="SvgjsG1098"><text id="SvgjsText1099" font-family="微软雅黑" text-anchor="middle" font-size="13px" width="51px" fill="#323232" font-weight="400" align="middle" anchor="middle" family="微软雅黑" size="13px" weight="400" font-style="" opacity="1" y="6.05" transform="rotate(0)"><tspan id="SvgjsTspan1100" dy="16" x="25.5"><tspan id="SvgjsTspan1101" style="text-decoration:;">否</tspan></tspan></text></g></g><g id="SvgjsG1102" transform="translate(213.5,694)"><path id="SvgjsPath1103" d="M 0 0L 100 0L 100 43L 0 43Z" stroke="rgba(50,50,50,1)" stroke-width="2" fill-opacity="1" fill="#ccffcc"></path><g id="SvgjsG1104"><text id="SvgjsText1105" font-family="微软雅黑" text-anchor="middle" font-size="13px" width="80px" fill="#323232" font-weight="400" align="middle" anchor="middle" family="微软雅黑" size="13px" weight="400" font-style="" opacity="1" y="3.55" transform="rotate(0)"><tspan id="SvgjsTspan1106" dy="16" x="50"><tspan id="SvgjsTspan1107" style="text-decoration:;">成功返回</tspan></tspan><tspan id="SvgjsTspan1108" dy="16" x="50"><tspan id="SvgjsTspan1109" style="text-decoration:;">identifier</tspan></tspan></text></g></g><g id="SvgjsG1110"><path id="SvgjsPath1111" d="M263 655L263 674L263.5 674L263.5 693" stroke="#323232" stroke-width="2" fill="none" marker-end="url(#SvgjsMarker1112)"></path></g><g id="SvgjsG1114" transform="translate(25,588)"><path id="SvgjsPath1115" d="M 0 0L 100 0L 100 43L 0 43Z" stroke="rgba(50,50,50,1)" stroke-width="2" fill-opacity="1" fill="#ff6666"></path><g id="SvgjsG1116"><text id="SvgjsText1117" font-family="微软雅黑" text-anchor="middle" font-size="13px" width="80px" fill="#323232" font-weight="400" align="middle" anchor="middle" family="微软雅黑" size="13px" weight="400" font-style="" opacity="1" y="11.55" transform="rotate(0)"><tspan id="SvgjsTspan1118" dy="16" x="50"><tspan id="SvgjsTspan1119" style="text-decoration:;">EACCES</tspan></tspan></text></g></g><g id="SvgjsG1120"><path id="SvgjsPath1121" d="M193 608.5L159 608.5L159 608.5L125 608.5" stroke="#323232" stroke-width="2" fill="none" marker-end="url(#SvgjsMarker1122)"></path></g><g id="SvgjsG1124"><path id="SvgjsPath1125" d="M333 187.5L374.5 187.5L374.5 187.5L416 187.5" stroke="#323232" stroke-width="2" fill="none" marker-end="url(#SvgjsMarker1126)"></path></g><g id="SvgjsG1128" transform="translate(333,154)"><path id="SvgjsPath1129" d="M 0 0L 51 0L 51 32L 0 32Z" stroke="none" fill="none"></path><g id="SvgjsG1130"><text id="SvgjsText1131" font-family="微软雅黑" text-anchor="middle" font-size="13px" width="51px" fill="#323232" font-weight="400" align="middle" anchor="middle" family="微软雅黑" size="13px" weight="400" font-style="" opacity="1" y="6.05" transform="rotate(0)"><tspan id="SvgjsTspan1132" dy="16" x="25.5"><tspan id="SvgjsTspan1133" style="text-decoration:;">是</tspan></tspan></text></g></g><g id="SvgjsG1134"><path id="SvgjsPath1135" d="M486 141L486 118.5L486 118.5L486 96" stroke="#323232" stroke-width="2" fill="none" marker-end="url(#SvgjsMarker1136)"></path></g><g id="SvgjsG1138" transform="translate(416,284)"><path id="SvgjsPath1139" d="M 0 46.5L 70 0L 140 46.5L 70 93Z" stroke="rgba(50,50,50,1)" stroke-width="2" fill-opacity="1" fill="#ffffff"></path><g id="SvgjsG1140"><text id="SvgjsText1141" font-family="微软雅黑" text-anchor="middle" font-size="13px" width="120px" fill="#323232" font-weight="400" align="middle" anchor="middle" family="微软雅黑" size="13px" weight="400" font-style="" opacity="1" y="37.015" transform="rotate(0)"><tspan id="SvgjsTspan1142" dy="16" x="70"><tspan id="SvgjsTspan1143" style="text-decoration:;">设置了IPC_CREATE</tspan></tspan></text></g></g><g id="SvgjsG1144"><path id="SvgjsPath1145" d="M333 330.5L374.5 330.5L374.5 330.5L416 330.5" stroke="#323232" stroke-width="2" fill="none" marker-end="url(#SvgjsMarker1146)"></path></g><g id="SvgjsG1148" transform="translate(193,431)"><path id="SvgjsPath1149" d="M 0 46.5L 70 0L 140 46.5L 70 93Z" stroke="rgba(50,50,50,1)" stroke-width="2" fill-opacity="1" fill="#ffffff"></path><g id="SvgjsG1150"><text id="SvgjsText1151" font-family="微软雅黑" text-anchor="middle" font-size="13px" width="120px" fill="#323232" font-weight="400" align="middle" anchor="middle" family="微软雅黑" size="13px" weight="400" font-style="" opacity="1" y="29.015" transform="rotate(0)"><tspan id="SvgjsTspan1152" dy="16" x="70"><tspan id="SvgjsTspan1153" style="text-decoration:;">设置了IPC_CREATE</tspan></tspan><tspan id="SvgjsTspan1154" dy="16" x="70"><tspan id="SvgjsTspan1155" style="text-decoration:;">和IPC_EXCL</tspan></tspan></text></g></g><g id="SvgjsG1156"><path id="SvgjsPath1157" d="M263.09576022144495 377.86788218175525L263 377.86788218175525L263 431" stroke="#323232" stroke-width="2" fill="none" marker-end="url(#SvgjsMarker1158)"></path></g><g id="SvgjsG1160"><path id="SvgjsPath1161" d="M263 524L263 543L263 543L263 562" stroke="#323232" stroke-width="2" fill="none" marker-end="url(#SvgjsMarker1162)"></path></g><g id="SvgjsG1164" transform="translate(262.5,524)"><path id="SvgjsPath1165" d="M 0 0L 51 0L 51 32L 0 32Z" stroke="none" fill="none"></path><g id="SvgjsG1166"><text id="SvgjsText1167" font-family="微软雅黑" text-anchor="middle" font-size="13px" width="51px" fill="#323232" font-weight="400" align="middle" anchor="middle" family="微软雅黑" size="13px" weight="400" font-style="" opacity="1" y="6.05" transform="rotate(0)"><tspan id="SvgjsTspan1168" dy="16" x="25.5"><tspan id="SvgjsTspan1169" style="text-decoration:;">否</tspan></tspan></text></g></g><g id="SvgjsG1170" transform="translate(262.5,655)"><path id="SvgjsPath1171" d="M 0 0L 51 0L 51 32L 0 32Z" stroke="none" fill="none"></path><g id="SvgjsG1172"><text id="SvgjsText1173" font-family="微软雅黑" text-anchor="middle" font-size="13px" width="51px" fill="#323232" font-weight="400" align="middle" anchor="middle" family="微软雅黑" size="13px" weight="400" font-style="" opacity="1" y="6.05" transform="rotate(0)"><tspan id="SvgjsTspan1174" dy="16" x="25.5"><tspan id="SvgjsTspan1175" style="text-decoration:;">是</tspan></tspan></text></g></g><g id="SvgjsG1176" transform="translate(142,577)"><path id="SvgjsPath1177" d="M 0 0L 51 0L 51 32L 0 32Z" stroke="none" fill="none"></path><g id="SvgjsG1178"><text id="SvgjsText1179" font-family="微软雅黑" text-anchor="middle" font-size="13px" width="51px" fill="#323232" font-weight="400" align="middle" anchor="middle" family="微软雅黑" size="13px" weight="400" font-style="" opacity="1" y="6.05" transform="rotate(0)"><tspan id="SvgjsTspan1180" dy="16" x="25.5"><tspan id="SvgjsTspan1181" style="text-decoration:;">否</tspan></tspan></text></g></g><g id="SvgjsG1182"><path id="SvgjsPath1183" d="M193 477.5L159 477.5L159 478L125 478" stroke="#323232" stroke-width="2" fill="none" marker-end="url(#SvgjsMarker1184)"></path></g><g id="SvgjsG1186" transform="translate(142,445)"><path id="SvgjsPath1187" d="M 0 0L 51 0L 51 32L 0 32Z" stroke="none" fill="none"></path><g id="SvgjsG1188"><text id="SvgjsText1189" font-family="微软雅黑" text-anchor="middle" font-size="13px" width="51px" fill="#323232" font-weight="400" align="middle" anchor="middle" family="微软雅黑" size="13px" weight="400" font-style="" opacity="1" y="6.05" transform="rotate(0)"><tspan id="SvgjsTspan1190" dy="16" x="25.5"><tspan id="SvgjsTspan1191" style="text-decoration:;">是</tspan></tspan></text></g></g><g id="SvgjsG1192"><path id="SvgjsPath1193" d="M486 284L486 259L486 259L486 234" stroke="#323232" stroke-width="2" fill="none" marker-end="url(#SvgjsMarker1194)"></path></g><g id="SvgjsG1196" transform="translate(485,249)"><path id="SvgjsPath1197" d="M 0 0L 51 0L 51 32L 0 32Z" stroke="none" fill="none"></path><g id="SvgjsG1198"><text id="SvgjsText1199" font-family="微软雅黑" text-anchor="middle" font-size="13px" width="51px" fill="#323232" font-weight="400" align="middle" anchor="middle" family="微软雅黑" size="13px" weight="400" font-style="" opacity="1" y="6.05" transform="rotate(0)"><tspan id="SvgjsTspan1200" dy="16" x="25.5"><tspan id="SvgjsTspan1201" style="text-decoration:;">是</tspan></tspan></text></g></g><g id="SvgjsG1202" transform="translate(613,309)"><path id="SvgjsPath1203" d="M 0 0L 100 0L 100 43L 0 43Z" stroke="rgba(50,50,50,1)" stroke-width="2" fill-opacity="1" fill="#ff6666"></path><g id="SvgjsG1204"><text id="SvgjsText1205" font-family="微软雅黑" text-anchor="middle" font-size="13px" width="80px" fill="#323232" font-weight="400" align="middle" anchor="middle" family="微软雅黑" size="13px" weight="400" font-style="" opacity="1" y="11.55" transform="rotate(0)"><tspan id="SvgjsTspan1206" dy="16" x="50"><tspan id="SvgjsTspan1207" style="text-decoration:;">ENOENT</tspan></tspan></text></g></g><g id="SvgjsG1208"><path id="SvgjsPath1209" d="M556 330.5L584.5 330.5L584.5 330.5L613 330.5" stroke="#323232" stroke-width="2" fill="none" marker-end="url(#SvgjsMarker1210)"></path></g><g id="SvgjsG1212" transform="translate(556,299)"><path id="SvgjsPath1213" d="M 0 0L 51 0L 51 32L 0 32Z" stroke="none" fill="none"></path><g id="SvgjsG1214"><text id="SvgjsText1215" font-family="微软雅黑" text-anchor="middle" font-size="13px" width="51px" fill="#323232" font-weight="400" align="middle" anchor="middle" family="微软雅黑" size="13px" weight="400" font-style="" opacity="1" y="6.05" transform="rotate(0)"><tspan id="SvgjsTspan1216" dy="16" x="25.5"><tspan id="SvgjsTspan1217" style="text-decoration:;">否</tspan></tspan></text></g></g></svg>